<?xml version="1.0" encoding="utf-8" standalone="no"?>
<!DOCTYPE svg PUBLIC "-//W3C//DTD SVG 1.1//EN"
  "http://www.w3.org/Graphics/SVG/1.1/DTD/svg11.dtd">
<!-- Created with matplotlib (https://matplotlib.org/) -->
<svg height="345.6pt" version="1.1" viewBox="0 0 460.8 345.6" width="460.8pt" xmlns="http://www.w3.org/2000/svg" xmlns:xlink="http://www.w3.org/1999/xlink">
 <metadata>
  <rdf:RDF xmlns:cc="http://creativecommons.org/ns#" xmlns:dc="http://purl.org/dc/elements/1.1/" xmlns:rdf="http://www.w3.org/1999/02/22-rdf-syntax-ns#">
   <cc:Work>
    <dc:type rdf:resource="http://purl.org/dc/dcmitype/StillImage"/>
    <dc:date>2024-06-26T21:53:16.637645</dc:date>
    <dc:format>image/svg+xml</dc:format>
    <dc:creator>
     <cc:Agent>
      <dc:title>Matplotlib v3.3.4, https://matplotlib.org/</dc:title>
     </cc:Agent>
    </dc:creator>
   </cc:Work>
  </rdf:RDF>
 </metadata>
 <defs>
  <style type="text/css">*{stroke-linecap:butt;stroke-linejoin:round;}</style>
 </defs>
 <g id="figure_1">
  <g id="patch_1">
   <path d="M 0 345.6 
L 460.8 345.6 
L 460.8 0 
L 0 0 
z
" style="fill:#ffffff;"/>
  </g>
  <g id="axes_1">
   <g id="patch_2">
    <path d="M 57.6 307.584 
L 414.72 307.584 
L 414.72 41.472 
L 57.6 41.472 
z
" style="fill:#ffffff;"/>
   </g>
   <g id="matplotlib.axis_1">
    <g id="xtick_1">
     <g id="line2d_1">
      <path clip-path="url(#p56ff44ac9b)" d="M 73.816493 307.584 
L 73.816493 41.472 
" style="fill:none;stroke:#b0b0b0;stroke-dasharray:1.85,0.8;stroke-dashoffset:0;stroke-width:0.5;"/>
     </g>
     <g id="line2d_2">
      <defs>
       <path d="M 0 3.5 
L 0 -3.5 
" id="mc6a71a3754" style="stroke:#000000;stroke-width:0.8;"/>
      </defs>
      <g>
       <use style="stroke:#000000;stroke-width:0.8;" x="73.816493" xlink:href="#mc6a71a3754" y="307.584"/>
      </g>
     </g>
     <g id="text_1">
      <!-- $\mathdefault{0}$ -->
      <g transform="translate(71.256493 320.66275)scale(0.08 -0.08)">
       <defs>
        <path d="M 31.78125 66.40625 
Q 24.171875 66.40625 20.328125 58.90625 
Q 16.5 51.421875 16.5 36.375 
Q 16.5 21.390625 20.328125 13.890625 
Q 24.171875 6.390625 31.78125 6.390625 
Q 39.453125 6.390625 43.28125 13.890625 
Q 47.125 21.390625 47.125 36.375 
Q 47.125 51.421875 43.28125 58.90625 
Q 39.453125 66.40625 31.78125 66.40625 
z
M 31.78125 74.21875 
Q 44.046875 74.21875 50.515625 64.515625 
Q 56.984375 54.828125 56.984375 36.375 
Q 56.984375 17.96875 50.515625 8.265625 
Q 44.046875 -1.421875 31.78125 -1.421875 
Q 19.53125 -1.421875 13.0625 8.265625 
Q 6.59375 17.96875 6.59375 36.375 
Q 6.59375 54.828125 13.0625 64.515625 
Q 19.53125 74.21875 31.78125 74.21875 
z
" id="DejaVuSans-48"/>
       </defs>
       <use transform="translate(0 0.78125)" xlink:href="#DejaVuSans-48"/>
      </g>
     </g>
    </g>
    <g id="xtick_2">
     <g id="line2d_3">
      <path clip-path="url(#p56ff44ac9b)" d="M 138.76039 307.584 
L 138.76039 41.472 
" style="fill:none;stroke:#b0b0b0;stroke-dasharray:1.85,0.8;stroke-dashoffset:0;stroke-width:0.5;"/>
     </g>
     <g id="line2d_4">
      <g>
       <use style="stroke:#000000;stroke-width:0.8;" x="138.76039" xlink:href="#mc6a71a3754" y="307.584"/>
      </g>
     </g>
     <g id="text_2">
      <!-- $\mathdefault{20}$ -->
      <g transform="translate(133.64039 320.66275)scale(0.08 -0.08)">
       <defs>
        <path d="M 19.1875 8.296875 
L 53.609375 8.296875 
L 53.609375 0 
L 7.328125 0 
L 7.328125 8.296875 
Q 12.9375 14.109375 22.625 23.890625 
Q 32.328125 33.6875 34.8125 36.53125 
Q 39.546875 41.84375 41.421875 45.53125 
Q 43.3125 49.21875 43.3125 52.78125 
Q 43.3125 58.59375 39.234375 62.25 
Q 35.15625 65.921875 28.609375 65.921875 
Q 23.96875 65.921875 18.8125 64.3125 
Q 13.671875 62.703125 7.8125 59.421875 
L 7.8125 69.390625 
Q 13.765625 71.78125 18.9375 73 
Q 24.125 74.21875 28.421875 74.21875 
Q 39.75 74.21875 46.484375 68.546875 
Q 53.21875 62.890625 53.21875 53.421875 
Q 53.21875 48.921875 51.53125 44.890625 
Q 49.859375 40.875 45.40625 35.40625 
Q 44.1875 33.984375 37.640625 27.21875 
Q 31.109375 20.453125 19.1875 8.296875 
z
" id="DejaVuSans-50"/>
       </defs>
       <use transform="translate(0 0.78125)" xlink:href="#DejaVuSans-50"/>
       <use transform="translate(63.623047 0.78125)" xlink:href="#DejaVuSans-48"/>
      </g>
     </g>
    </g>
    <g id="xtick_3">
     <g id="line2d_5">
      <path clip-path="url(#p56ff44ac9b)" d="M 203.704287 307.584 
L 203.704287 41.472 
" style="fill:none;stroke:#b0b0b0;stroke-dasharray:1.85,0.8;stroke-dashoffset:0;stroke-width:0.5;"/>
     </g>
     <g id="line2d_6">
      <g>
       <use style="stroke:#000000;stroke-width:0.8;" x="203.704287" xlink:href="#mc6a71a3754" y="307.584"/>
      </g>
     </g>
     <g id="text_3">
      <!-- $\mathdefault{40}$ -->
      <g transform="translate(198.584287 320.66275)scale(0.08 -0.08)">
       <defs>
        <path d="M 37.796875 64.3125 
L 12.890625 25.390625 
L 37.796875 25.390625 
z
M 35.203125 72.90625 
L 47.609375 72.90625 
L 47.609375 25.390625 
L 58.015625 25.390625 
L 58.015625 17.1875 
L 47.609375 17.1875 
L 47.609375 0 
L 37.796875 0 
L 37.796875 17.1875 
L 4.890625 17.1875 
L 4.890625 26.703125 
z
" id="DejaVuSans-52"/>
       </defs>
       <use transform="translate(0 0.78125)" xlink:href="#DejaVuSans-52"/>
       <use transform="translate(63.623047 0.78125)" xlink:href="#DejaVuSans-48"/>
      </g>
     </g>
    </g>
    <g id="xtick_4">
     <g id="line2d_7">
      <path clip-path="url(#p56ff44ac9b)" d="M 268.648185 307.584 
L 268.648185 41.472 
" style="fill:none;stroke:#b0b0b0;stroke-dasharray:1.85,0.8;stroke-dashoffset:0;stroke-width:0.5;"/>
     </g>
     <g id="line2d_8">
      <g>
       <use style="stroke:#000000;stroke-width:0.8;" x="268.648185" xlink:href="#mc6a71a3754" y="307.584"/>
      </g>
     </g>
     <g id="text_4">
      <!-- $\mathdefault{60}$ -->
      <g transform="translate(263.528185 320.66275)scale(0.08 -0.08)">
       <defs>
        <path d="M 33.015625 40.375 
Q 26.375 40.375 22.484375 35.828125 
Q 18.609375 31.296875 18.609375 23.390625 
Q 18.609375 15.53125 22.484375 10.953125 
Q 26.375 6.390625 33.015625 6.390625 
Q 39.65625 6.390625 43.53125 10.953125 
Q 47.40625 15.53125 47.40625 23.390625 
Q 47.40625 31.296875 43.53125 35.828125 
Q 39.65625 40.375 33.015625 40.375 
z
M 52.59375 71.296875 
L 52.59375 62.3125 
Q 48.875 64.0625 45.09375 64.984375 
Q 41.3125 65.921875 37.59375 65.921875 
Q 27.828125 65.921875 22.671875 59.328125 
Q 17.53125 52.734375 16.796875 39.40625 
Q 19.671875 43.65625 24.015625 45.921875 
Q 28.375 48.1875 33.59375 48.1875 
Q 44.578125 48.1875 50.953125 41.515625 
Q 57.328125 34.859375 57.328125 23.390625 
Q 57.328125 12.15625 50.6875 5.359375 
Q 44.046875 -1.421875 33.015625 -1.421875 
Q 20.359375 -1.421875 13.671875 8.265625 
Q 6.984375 17.96875 6.984375 36.375 
Q 6.984375 53.65625 15.1875 63.9375 
Q 23.390625 74.21875 37.203125 74.21875 
Q 40.921875 74.21875 44.703125 73.484375 
Q 48.484375 72.75 52.59375 71.296875 
z
" id="DejaVuSans-54"/>
       </defs>
       <use transform="translate(0 0.78125)" xlink:href="#DejaVuSans-54"/>
       <use transform="translate(63.623047 0.78125)" xlink:href="#DejaVuSans-48"/>
      </g>
     </g>
    </g>
    <g id="xtick_5">
     <g id="line2d_9">
      <path clip-path="url(#p56ff44ac9b)" d="M 333.592082 307.584 
L 333.592082 41.472 
" style="fill:none;stroke:#b0b0b0;stroke-dasharray:1.85,0.8;stroke-dashoffset:0;stroke-width:0.5;"/>
     </g>
     <g id="line2d_10">
      <g>
       <use style="stroke:#000000;stroke-width:0.8;" x="333.592082" xlink:href="#mc6a71a3754" y="307.584"/>
      </g>
     </g>
     <g id="text_5">
      <!-- $\mathdefault{80}$ -->
      <g transform="translate(328.472082 320.66275)scale(0.08 -0.08)">
       <defs>
        <path d="M 31.78125 34.625 
Q 24.75 34.625 20.71875 30.859375 
Q 16.703125 27.09375 16.703125 20.515625 
Q 16.703125 13.921875 20.71875 10.15625 
Q 24.75 6.390625 31.78125 6.390625 
Q 38.8125 6.390625 42.859375 10.171875 
Q 46.921875 13.96875 46.921875 20.515625 
Q 46.921875 27.09375 42.890625 30.859375 
Q 38.875 34.625 31.78125 34.625 
z
M 21.921875 38.8125 
Q 15.578125 40.375 12.03125 44.71875 
Q 8.5 49.078125 8.5 55.328125 
Q 8.5 64.0625 14.71875 69.140625 
Q 20.953125 74.21875 31.78125 74.21875 
Q 42.671875 74.21875 48.875 69.140625 
Q 55.078125 64.0625 55.078125 55.328125 
Q 55.078125 49.078125 51.53125 44.71875 
Q 48 40.375 41.703125 38.8125 
Q 48.828125 37.15625 52.796875 32.3125 
Q 56.78125 27.484375 56.78125 20.515625 
Q 56.78125 9.90625 50.3125 4.234375 
Q 43.84375 -1.421875 31.78125 -1.421875 
Q 19.734375 -1.421875 13.25 4.234375 
Q 6.78125 9.90625 6.78125 20.515625 
Q 6.78125 27.484375 10.78125 32.3125 
Q 14.796875 37.15625 21.921875 38.8125 
z
M 18.3125 54.390625 
Q 18.3125 48.734375 21.84375 45.5625 
Q 25.390625 42.390625 31.78125 42.390625 
Q 38.140625 42.390625 41.71875 45.5625 
Q 45.3125 48.734375 45.3125 54.390625 
Q 45.3125 60.0625 41.71875 63.234375 
Q 38.140625 66.40625 31.78125 66.40625 
Q 25.390625 66.40625 21.84375 63.234375 
Q 18.3125 60.0625 18.3125 54.390625 
z
" id="DejaVuSans-56"/>
       </defs>
       <use transform="translate(0 0.78125)" xlink:href="#DejaVuSans-56"/>
       <use transform="translate(63.623047 0.78125)" xlink:href="#DejaVuSans-48"/>
      </g>
     </g>
    </g>
    <g id="xtick_6">
     <g id="line2d_11">
      <path clip-path="url(#p56ff44ac9b)" d="M 398.535979 307.584 
L 398.535979 41.472 
" style="fill:none;stroke:#b0b0b0;stroke-dasharray:1.85,0.8;stroke-dashoffset:0;stroke-width:0.5;"/>
     </g>
     <g id="line2d_12">
      <g>
       <use style="stroke:#000000;stroke-width:0.8;" x="398.535979" xlink:href="#mc6a71a3754" y="307.584"/>
      </g>
     </g>
     <g id="text_6">
      <!-- $\mathdefault{100}$ -->
      <g transform="translate(390.895979 320.66275)scale(0.08 -0.08)">
       <defs>
        <path d="M 12.40625 8.296875 
L 28.515625 8.296875 
L 28.515625 63.921875 
L 10.984375 60.40625 
L 10.984375 69.390625 
L 28.421875 72.90625 
L 38.28125 72.90625 
L 38.28125 8.296875 
L 54.390625 8.296875 
L 54.390625 0 
L 12.40625 0 
z
" id="DejaVuSans-49"/>
       </defs>
       <use transform="translate(0 0.78125)" xlink:href="#DejaVuSans-49"/>
       <use transform="translate(63.623047 0.78125)" xlink:href="#DejaVuSans-48"/>
       <use transform="translate(127.246094 0.78125)" xlink:href="#DejaVuSans-48"/>
      </g>
     </g>
    </g>
    <g id="xtick_7">
     <g id="line2d_13">
      <defs>
       <path d="M 0 2.5 
L 0 -2.5 
" id="m9b2f21513c" style="stroke:#000000;stroke-width:0.6;"/>
      </defs>
      <g>
       <use style="stroke:#000000;stroke-width:0.6;" x="90.052467" xlink:href="#m9b2f21513c" y="307.584"/>
      </g>
     </g>
    </g>
    <g id="xtick_8">
     <g id="line2d_14">
      <g>
       <use style="stroke:#000000;stroke-width:0.6;" x="106.288442" xlink:href="#m9b2f21513c" y="307.584"/>
      </g>
     </g>
    </g>
    <g id="xtick_9">
     <g id="line2d_15">
      <g>
       <use style="stroke:#000000;stroke-width:0.6;" x="122.524416" xlink:href="#m9b2f21513c" y="307.584"/>
      </g>
     </g>
    </g>
    <g id="xtick_10">
     <g id="line2d_16">
      <g>
       <use style="stroke:#000000;stroke-width:0.6;" x="154.996364" xlink:href="#m9b2f21513c" y="307.584"/>
      </g>
     </g>
    </g>
    <g id="xtick_11">
     <g id="line2d_17">
      <g>
       <use style="stroke:#000000;stroke-width:0.6;" x="171.232339" xlink:href="#m9b2f21513c" y="307.584"/>
      </g>
     </g>
    </g>
    <g id="xtick_12">
     <g id="line2d_18">
      <g>
       <use style="stroke:#000000;stroke-width:0.6;" x="187.468313" xlink:href="#m9b2f21513c" y="307.584"/>
      </g>
     </g>
    </g>
    <g id="xtick_13">
     <g id="line2d_19">
      <g>
       <use style="stroke:#000000;stroke-width:0.6;" x="219.940262" xlink:href="#m9b2f21513c" y="307.584"/>
      </g>
     </g>
    </g>
    <g id="xtick_14">
     <g id="line2d_20">
      <g>
       <use style="stroke:#000000;stroke-width:0.6;" x="236.176236" xlink:href="#m9b2f21513c" y="307.584"/>
      </g>
     </g>
    </g>
    <g id="xtick_15">
     <g id="line2d_21">
      <g>
       <use style="stroke:#000000;stroke-width:0.6;" x="252.41221" xlink:href="#m9b2f21513c" y="307.584"/>
      </g>
     </g>
    </g>
    <g id="xtick_16">
     <g id="line2d_22">
      <g>
       <use style="stroke:#000000;stroke-width:0.6;" x="284.884159" xlink:href="#m9b2f21513c" y="307.584"/>
      </g>
     </g>
    </g>
    <g id="xtick_17">
     <g id="line2d_23">
      <g>
       <use style="stroke:#000000;stroke-width:0.6;" x="301.120133" xlink:href="#m9b2f21513c" y="307.584"/>
      </g>
     </g>
    </g>
    <g id="xtick_18">
     <g id="line2d_24">
      <g>
       <use style="stroke:#000000;stroke-width:0.6;" x="317.356108" xlink:href="#m9b2f21513c" y="307.584"/>
      </g>
     </g>
    </g>
    <g id="xtick_19">
     <g id="line2d_25">
      <g>
       <use style="stroke:#000000;stroke-width:0.6;" x="349.828056" xlink:href="#m9b2f21513c" y="307.584"/>
      </g>
     </g>
    </g>
    <g id="xtick_20">
     <g id="line2d_26">
      <g>
       <use style="stroke:#000000;stroke-width:0.6;" x="366.06403" xlink:href="#m9b2f21513c" y="307.584"/>
      </g>
     </g>
    </g>
    <g id="xtick_21">
     <g id="line2d_27">
      <g>
       <use style="stroke:#000000;stroke-width:0.6;" x="382.300005" xlink:href="#m9b2f21513c" y="307.584"/>
      </g>
     </g>
    </g>
    <g id="text_7">
     <!-- Hodnota indikátoru HbI -->
     <g transform="translate(178.089687 345.924937)scale(0.1 -0.1)">
      <defs>
       <path d="M 9.8125 72.90625 
L 19.671875 72.90625 
L 19.671875 43.015625 
L 55.515625 43.015625 
L 55.515625 72.90625 
L 65.375 72.90625 
L 65.375 0 
L 55.515625 0 
L 55.515625 34.71875 
L 19.671875 34.71875 
L 19.671875 0 
L 9.8125 0 
z
" id="DejaVuSans-72"/>
       <path d="M 30.609375 48.390625 
Q 23.390625 48.390625 19.1875 42.75 
Q 14.984375 37.109375 14.984375 27.296875 
Q 14.984375 17.484375 19.15625 11.84375 
Q 23.34375 6.203125 30.609375 6.203125 
Q 37.796875 6.203125 41.984375 11.859375 
Q 46.1875 17.53125 46.1875 27.296875 
Q 46.1875 37.015625 41.984375 42.703125 
Q 37.796875 48.390625 30.609375 48.390625 
z
M 30.609375 56 
Q 42.328125 56 49.015625 48.375 
Q 55.71875 40.765625 55.71875 27.296875 
Q 55.71875 13.875 49.015625 6.21875 
Q 42.328125 -1.421875 30.609375 -1.421875 
Q 18.84375 -1.421875 12.171875 6.21875 
Q 5.515625 13.875 5.515625 27.296875 
Q 5.515625 40.765625 12.171875 48.375 
Q 18.84375 56 30.609375 56 
z
" id="DejaVuSans-111"/>
       <path d="M 45.40625 46.390625 
L 45.40625 75.984375 
L 54.390625 75.984375 
L 54.390625 0 
L 45.40625 0 
L 45.40625 8.203125 
Q 42.578125 3.328125 38.25 0.953125 
Q 33.9375 -1.421875 27.875 -1.421875 
Q 17.96875 -1.421875 11.734375 6.484375 
Q 5.515625 14.40625 5.515625 27.296875 
Q 5.515625 40.1875 11.734375 48.09375 
Q 17.96875 56 27.875 56 
Q 33.9375 56 38.25 53.625 
Q 42.578125 51.265625 45.40625 46.390625 
z
M 14.796875 27.296875 
Q 14.796875 17.390625 18.875 11.75 
Q 22.953125 6.109375 30.078125 6.109375 
Q 37.203125 6.109375 41.296875 11.75 
Q 45.40625 17.390625 45.40625 27.296875 
Q 45.40625 37.203125 41.296875 42.84375 
Q 37.203125 48.484375 30.078125 48.484375 
Q 22.953125 48.484375 18.875 42.84375 
Q 14.796875 37.203125 14.796875 27.296875 
z
" id="DejaVuSans-100"/>
       <path d="M 54.890625 33.015625 
L 54.890625 0 
L 45.90625 0 
L 45.90625 32.71875 
Q 45.90625 40.484375 42.875 44.328125 
Q 39.84375 48.1875 33.796875 48.1875 
Q 26.515625 48.1875 22.3125 43.546875 
Q 18.109375 38.921875 18.109375 30.90625 
L 18.109375 0 
L 9.078125 0 
L 9.078125 54.6875 
L 18.109375 54.6875 
L 18.109375 46.1875 
Q 21.34375 51.125 25.703125 53.5625 
Q 30.078125 56 35.796875 56 
Q 45.21875 56 50.046875 50.171875 
Q 54.890625 44.34375 54.890625 33.015625 
z
" id="DejaVuSans-110"/>
       <path d="M 18.3125 70.21875 
L 18.3125 54.6875 
L 36.8125 54.6875 
L 36.8125 47.703125 
L 18.3125 47.703125 
L 18.3125 18.015625 
Q 18.3125 11.328125 20.140625 9.421875 
Q 21.96875 7.515625 27.59375 7.515625 
L 36.8125 7.515625 
L 36.8125 0 
L 27.59375 0 
Q 17.1875 0 13.234375 3.875 
Q 9.28125 7.765625 9.28125 18.015625 
L 9.28125 47.703125 
L 2.6875 47.703125 
L 2.6875 54.6875 
L 9.28125 54.6875 
L 9.28125 70.21875 
z
" id="DejaVuSans-116"/>
       <path d="M 34.28125 27.484375 
Q 23.390625 27.484375 19.1875 25 
Q 14.984375 22.515625 14.984375 16.5 
Q 14.984375 11.71875 18.140625 8.90625 
Q 21.296875 6.109375 26.703125 6.109375 
Q 34.1875 6.109375 38.703125 11.40625 
Q 43.21875 16.703125 43.21875 25.484375 
L 43.21875 27.484375 
z
M 52.203125 31.203125 
L 52.203125 0 
L 43.21875 0 
L 43.21875 8.296875 
Q 40.140625 3.328125 35.546875 0.953125 
Q 30.953125 -1.421875 24.3125 -1.421875 
Q 15.921875 -1.421875 10.953125 3.296875 
Q 6 8.015625 6 15.921875 
Q 6 25.140625 12.171875 29.828125 
Q 18.359375 34.515625 30.609375 34.515625 
L 43.21875 34.515625 
L 43.21875 35.40625 
Q 43.21875 41.609375 39.140625 45 
Q 35.0625 48.390625 27.6875 48.390625 
Q 23 48.390625 18.546875 47.265625 
Q 14.109375 46.140625 10.015625 43.890625 
L 10.015625 52.203125 
Q 14.9375 54.109375 19.578125 55.046875 
Q 24.21875 56 28.609375 56 
Q 40.484375 56 46.34375 49.84375 
Q 52.203125 43.703125 52.203125 31.203125 
z
" id="DejaVuSans-97"/>
       <path id="DejaVuSans-32"/>
       <path d="M 9.421875 54.6875 
L 18.40625 54.6875 
L 18.40625 0 
L 9.421875 0 
z
M 9.421875 75.984375 
L 18.40625 75.984375 
L 18.40625 64.59375 
L 9.421875 64.59375 
z
" id="DejaVuSans-105"/>
       <path d="M 9.078125 75.984375 
L 18.109375 75.984375 
L 18.109375 31.109375 
L 44.921875 54.6875 
L 56.390625 54.6875 
L 27.390625 29.109375 
L 57.625 0 
L 45.90625 0 
L 18.109375 26.703125 
L 18.109375 0 
L 9.078125 0 
z
" id="DejaVuSans-107"/>
       <path d="M 34.28125 27.484375 
Q 23.390625 27.484375 19.1875 25 
Q 14.984375 22.515625 14.984375 16.5 
Q 14.984375 11.71875 18.140625 8.90625 
Q 21.296875 6.109375 26.703125 6.109375 
Q 34.1875 6.109375 38.703125 11.40625 
Q 43.21875 16.703125 43.21875 25.484375 
L 43.21875 27.484375 
z
M 52.203125 31.203125 
L 52.203125 0 
L 43.21875 0 
L 43.21875 8.296875 
Q 40.140625 3.328125 35.546875 0.953125 
Q 30.953125 -1.421875 24.3125 -1.421875 
Q 15.921875 -1.421875 10.953125 3.296875 
Q 6 8.015625 6 15.921875 
Q 6 25.140625 12.171875 29.828125 
Q 18.359375 34.515625 30.609375 34.515625 
L 43.21875 34.515625 
L 43.21875 35.40625 
Q 43.21875 41.609375 39.140625 45 
Q 35.0625 48.390625 27.6875 48.390625 
Q 23 48.390625 18.546875 47.265625 
Q 14.109375 46.140625 10.015625 43.890625 
L 10.015625 52.203125 
Q 14.9375 54.109375 19.578125 55.046875 
Q 24.21875 56 28.609375 56 
Q 40.484375 56 46.34375 49.84375 
Q 52.203125 43.703125 52.203125 31.203125 
z
M 35.78125 79.984375 
L 45.5 79.984375 
L 29.59375 61.625 
L 22.109375 61.625 
z
" id="DejaVuSans-225"/>
       <path d="M 41.109375 46.296875 
Q 39.59375 47.171875 37.8125 47.578125 
Q 36.03125 48 33.890625 48 
Q 26.265625 48 22.1875 43.046875 
Q 18.109375 38.09375 18.109375 28.8125 
L 18.109375 0 
L 9.078125 0 
L 9.078125 54.6875 
L 18.109375 54.6875 
L 18.109375 46.1875 
Q 20.953125 51.171875 25.484375 53.578125 
Q 30.03125 56 36.53125 56 
Q 37.453125 56 38.578125 55.875 
Q 39.703125 55.765625 41.0625 55.515625 
z
" id="DejaVuSans-114"/>
       <path d="M 8.5 21.578125 
L 8.5 54.6875 
L 17.484375 54.6875 
L 17.484375 21.921875 
Q 17.484375 14.15625 20.5 10.265625 
Q 23.53125 6.390625 29.59375 6.390625 
Q 36.859375 6.390625 41.078125 11.03125 
Q 45.3125 15.671875 45.3125 23.6875 
L 45.3125 54.6875 
L 54.296875 54.6875 
L 54.296875 0 
L 45.3125 0 
L 45.3125 8.40625 
Q 42.046875 3.421875 37.71875 1 
Q 33.40625 -1.421875 27.6875 -1.421875 
Q 18.265625 -1.421875 13.375 4.4375 
Q 8.5 10.296875 8.5 21.578125 
z
M 31.109375 56 
z
" id="DejaVuSans-117"/>
       <path d="M 48.6875 27.296875 
Q 48.6875 37.203125 44.609375 42.84375 
Q 40.53125 48.484375 33.40625 48.484375 
Q 26.265625 48.484375 22.1875 42.84375 
Q 18.109375 37.203125 18.109375 27.296875 
Q 18.109375 17.390625 22.1875 11.75 
Q 26.265625 6.109375 33.40625 6.109375 
Q 40.53125 6.109375 44.609375 11.75 
Q 48.6875 17.390625 48.6875 27.296875 
z
M 18.109375 46.390625 
Q 20.953125 51.265625 25.265625 53.625 
Q 29.59375 56 35.59375 56 
Q 45.5625 56 51.78125 48.09375 
Q 58.015625 40.1875 58.015625 27.296875 
Q 58.015625 14.40625 51.78125 6.484375 
Q 45.5625 -1.421875 35.59375 -1.421875 
Q 29.59375 -1.421875 25.265625 0.953125 
Q 20.953125 3.328125 18.109375 8.203125 
L 18.109375 0 
L 9.078125 0 
L 9.078125 75.984375 
L 18.109375 75.984375 
z
" id="DejaVuSans-98"/>
       <path d="M 9.8125 72.90625 
L 19.671875 72.90625 
L 19.671875 0 
L 9.8125 0 
z
" id="DejaVuSans-73"/>
      </defs>
      <use xlink:href="#DejaVuSans-72"/>
      <use x="75.195312" xlink:href="#DejaVuSans-111"/>
      <use x="136.376953" xlink:href="#DejaVuSans-100"/>
      <use x="199.853516" xlink:href="#DejaVuSans-110"/>
      <use x="263.232422" xlink:href="#DejaVuSans-111"/>
      <use x="324.414062" xlink:href="#DejaVuSans-116"/>
      <use x="363.623047" xlink:href="#DejaVuSans-97"/>
      <use x="424.902344" xlink:href="#DejaVuSans-32"/>
      <use x="456.689453" xlink:href="#DejaVuSans-105"/>
      <use x="484.472656" xlink:href="#DejaVuSans-110"/>
      <use x="547.851562" xlink:href="#DejaVuSans-100"/>
      <use x="611.328125" xlink:href="#DejaVuSans-105"/>
      <use x="639.111328" xlink:href="#DejaVuSans-107"/>
      <use x="695.271484" xlink:href="#DejaVuSans-225"/>
      <use x="756.550781" xlink:href="#DejaVuSans-116"/>
      <use x="795.759766" xlink:href="#DejaVuSans-111"/>
      <use x="856.941406" xlink:href="#DejaVuSans-114"/>
      <use x="898.054688" xlink:href="#DejaVuSans-117"/>
      <use x="961.433594" xlink:href="#DejaVuSans-32"/>
      <use x="993.220703" xlink:href="#DejaVuSans-72"/>
      <use x="1068.416016" xlink:href="#DejaVuSans-98"/>
      <use x="1131.892578" xlink:href="#DejaVuSans-73"/>
     </g>
    </g>
   </g>
   <g id="matplotlib.axis_2">
    <g id="ytick_1">
     <g id="line2d_28">
      <path clip-path="url(#p56ff44ac9b)" d="M 57.6 281.364473 
L 414.72 281.364473 
" style="fill:none;stroke:#b0b0b0;stroke-dasharray:1.85,0.8;stroke-dashoffset:0;stroke-width:0.5;"/>
     </g>
     <g id="line2d_29">
      <defs>
       <path d="M 3.5 0 
L -3.5 -0 
" id="mb6c8f516e7" style="stroke:#000000;stroke-width:0.8;"/>
      </defs>
      <g>
       <use style="stroke:#000000;stroke-width:0.8;" x="57.6" xlink:href="#mb6c8f516e7" y="281.364473"/>
      </g>
     </g>
     <g id="text_8">
      <!-- $\mathdefault{0.5}$ -->
      <g transform="translate(37.8 284.403848)scale(0.08 -0.08)">
       <defs>
        <path d="M 10.6875 12.40625 
L 21 12.40625 
L 21 0 
L 10.6875 0 
z
" id="DejaVuSans-46"/>
        <path d="M 10.796875 72.90625 
L 49.515625 72.90625 
L 49.515625 64.59375 
L 19.828125 64.59375 
L 19.828125 46.734375 
Q 21.96875 47.46875 24.109375 47.828125 
Q 26.265625 48.1875 28.421875 48.1875 
Q 40.625 48.1875 47.75 41.5 
Q 54.890625 34.8125 54.890625 23.390625 
Q 54.890625 11.625 47.5625 5.09375 
Q 40.234375 -1.421875 26.90625 -1.421875 
Q 22.3125 -1.421875 17.546875 -0.640625 
Q 12.796875 0.140625 7.71875 1.703125 
L 7.71875 11.625 
Q 12.109375 9.234375 16.796875 8.0625 
Q 21.484375 6.890625 26.703125 6.890625 
Q 35.15625 6.890625 40.078125 11.328125 
Q 45.015625 15.765625 45.015625 23.390625 
Q 45.015625 31 40.078125 35.4375 
Q 35.15625 39.890625 26.703125 39.890625 
Q 22.75 39.890625 18.8125 39.015625 
Q 14.890625 38.140625 10.796875 36.28125 
z
" id="DejaVuSans-53"/>
       </defs>
       <use transform="translate(0 0.78125)" xlink:href="#DejaVuSans-48"/>
       <use transform="translate(63.623047 0.78125)" xlink:href="#DejaVuSans-46"/>
       <use transform="translate(95.410156 0.78125)" xlink:href="#DejaVuSans-53"/>
      </g>
     </g>
    </g>
    <g id="ytick_2">
     <g id="line2d_30">
      <path clip-path="url(#p56ff44ac9b)" d="M 57.6 250.665157 
L 414.72 250.665157 
" style="fill:none;stroke:#b0b0b0;stroke-dasharray:1.85,0.8;stroke-dashoffset:0;stroke-width:0.5;"/>
     </g>
     <g id="line2d_31">
      <g>
       <use style="stroke:#000000;stroke-width:0.8;" x="57.6" xlink:href="#mb6c8f516e7" y="250.665157"/>
      </g>
     </g>
     <g id="text_9">
      <!-- $\mathdefault{1.0}$ -->
      <g transform="translate(37.8 253.704532)scale(0.08 -0.08)">
       <use transform="translate(0 0.78125)" xlink:href="#DejaVuSans-49"/>
       <use transform="translate(63.623047 0.78125)" xlink:href="#DejaVuSans-46"/>
       <use transform="translate(95.410156 0.78125)" xlink:href="#DejaVuSans-48"/>
      </g>
     </g>
    </g>
    <g id="ytick_3">
     <g id="line2d_32">
      <path clip-path="url(#p56ff44ac9b)" d="M 57.6 219.965842 
L 414.72 219.965842 
" style="fill:none;stroke:#b0b0b0;stroke-dasharray:1.85,0.8;stroke-dashoffset:0;stroke-width:0.5;"/>
     </g>
     <g id="line2d_33">
      <g>
       <use style="stroke:#000000;stroke-width:0.8;" x="57.6" xlink:href="#mb6c8f516e7" y="219.965842"/>
      </g>
     </g>
     <g id="text_10">
      <!-- $\mathdefault{1.5}$ -->
      <g transform="translate(37.8 223.005217)scale(0.08 -0.08)">
       <use transform="translate(0 0.09375)" xlink:href="#DejaVuSans-49"/>
       <use transform="translate(63.623047 0.09375)" xlink:href="#DejaVuSans-46"/>
       <use transform="translate(95.410156 0.09375)" xlink:href="#DejaVuSans-53"/>
      </g>
     </g>
    </g>
    <g id="ytick_4">
     <g id="line2d_34">
      <path clip-path="url(#p56ff44ac9b)" d="M 57.6 189.266526 
L 414.72 189.266526 
" style="fill:none;stroke:#b0b0b0;stroke-dasharray:1.85,0.8;stroke-dashoffset:0;stroke-width:0.5;"/>
     </g>
     <g id="line2d_35">
      <g>
       <use style="stroke:#000000;stroke-width:0.8;" x="57.6" xlink:href="#mb6c8f516e7" y="189.266526"/>
      </g>
     </g>
     <g id="text_11">
      <!-- $\mathdefault{2.0}$ -->
      <g transform="translate(37.8 192.305901)scale(0.08 -0.08)">
       <use transform="translate(0 0.78125)" xlink:href="#DejaVuSans-50"/>
       <use transform="translate(63.623047 0.78125)" xlink:href="#DejaVuSans-46"/>
       <use transform="translate(95.410156 0.78125)" xlink:href="#DejaVuSans-48"/>
      </g>
     </g>
    </g>
    <g id="ytick_5">
     <g id="line2d_36">
      <path clip-path="url(#p56ff44ac9b)" d="M 57.6 158.567211 
L 414.72 158.567211 
" style="fill:none;stroke:#b0b0b0;stroke-dasharray:1.85,0.8;stroke-dashoffset:0;stroke-width:0.5;"/>
     </g>
     <g id="line2d_37">
      <g>
       <use style="stroke:#000000;stroke-width:0.8;" x="57.6" xlink:href="#mb6c8f516e7" y="158.567211"/>
      </g>
     </g>
     <g id="text_12">
      <!-- $\mathdefault{2.5}$ -->
      <g transform="translate(37.8 161.606586)scale(0.08 -0.08)">
       <use transform="translate(0 0.78125)" xlink:href="#DejaVuSans-50"/>
       <use transform="translate(63.623047 0.78125)" xlink:href="#DejaVuSans-46"/>
       <use transform="translate(95.410156 0.78125)" xlink:href="#DejaVuSans-53"/>
      </g>
     </g>
    </g>
    <g id="ytick_6">
     <g id="line2d_38">
      <path clip-path="url(#p56ff44ac9b)" d="M 57.6 127.867896 
L 414.72 127.867896 
" style="fill:none;stroke:#b0b0b0;stroke-dasharray:1.85,0.8;stroke-dashoffset:0;stroke-width:0.5;"/>
     </g>
     <g id="line2d_39">
      <g>
       <use style="stroke:#000000;stroke-width:0.8;" x="57.6" xlink:href="#mb6c8f516e7" y="127.867896"/>
      </g>
     </g>
     <g id="text_13">
      <!-- $\mathdefault{3.0}$ -->
      <g transform="translate(37.8 130.907271)scale(0.08 -0.08)">
       <defs>
        <path d="M 40.578125 39.3125 
Q 47.65625 37.796875 51.625 33 
Q 55.609375 28.21875 55.609375 21.1875 
Q 55.609375 10.40625 48.1875 4.484375 
Q 40.765625 -1.421875 27.09375 -1.421875 
Q 22.515625 -1.421875 17.65625 -0.515625 
Q 12.796875 0.390625 7.625 2.203125 
L 7.625 11.71875 
Q 11.71875 9.328125 16.59375 8.109375 
Q 21.484375 6.890625 26.8125 6.890625 
Q 36.078125 6.890625 40.9375 10.546875 
Q 45.796875 14.203125 45.796875 21.1875 
Q 45.796875 27.640625 41.28125 31.265625 
Q 36.765625 34.90625 28.71875 34.90625 
L 20.21875 34.90625 
L 20.21875 43.015625 
L 29.109375 43.015625 
Q 36.375 43.015625 40.234375 45.921875 
Q 44.09375 48.828125 44.09375 54.296875 
Q 44.09375 59.90625 40.109375 62.90625 
Q 36.140625 65.921875 28.71875 65.921875 
Q 24.65625 65.921875 20.015625 65.03125 
Q 15.375 64.15625 9.8125 62.3125 
L 9.8125 71.09375 
Q 15.4375 72.65625 20.34375 73.4375 
Q 25.25 74.21875 29.59375 74.21875 
Q 40.828125 74.21875 47.359375 69.109375 
Q 53.90625 64.015625 53.90625 55.328125 
Q 53.90625 49.265625 50.4375 45.09375 
Q 46.96875 40.921875 40.578125 39.3125 
z
" id="DejaVuSans-51"/>
       </defs>
       <use transform="translate(0 0.78125)" xlink:href="#DejaVuSans-51"/>
       <use transform="translate(63.623047 0.78125)" xlink:href="#DejaVuSans-46"/>
       <use transform="translate(95.410156 0.78125)" xlink:href="#DejaVuSans-48"/>
      </g>
     </g>
    </g>
    <g id="ytick_7">
     <g id="line2d_40">
      <path clip-path="url(#p56ff44ac9b)" d="M 57.6 97.16858 
L 414.72 97.16858 
" style="fill:none;stroke:#b0b0b0;stroke-dasharray:1.85,0.8;stroke-dashoffset:0;stroke-width:0.5;"/>
     </g>
     <g id="line2d_41">
      <g>
       <use style="stroke:#000000;stroke-width:0.8;" x="57.6" xlink:href="#mb6c8f516e7" y="97.16858"/>
      </g>
     </g>
     <g id="text_14">
      <!-- $\mathdefault{3.5}$ -->
      <g transform="translate(37.8 100.207955)scale(0.08 -0.08)">
       <use transform="translate(0 0.78125)" xlink:href="#DejaVuSans-51"/>
       <use transform="translate(63.623047 0.78125)" xlink:href="#DejaVuSans-46"/>
       <use transform="translate(95.410156 0.78125)" xlink:href="#DejaVuSans-53"/>
      </g>
     </g>
    </g>
    <g id="ytick_8">
     <g id="line2d_42">
      <path clip-path="url(#p56ff44ac9b)" d="M 57.6 66.469265 
L 414.72 66.469265 
" style="fill:none;stroke:#b0b0b0;stroke-dasharray:1.85,0.8;stroke-dashoffset:0;stroke-width:0.5;"/>
     </g>
     <g id="line2d_43">
      <g>
       <use style="stroke:#000000;stroke-width:0.8;" x="57.6" xlink:href="#mb6c8f516e7" y="66.469265"/>
      </g>
     </g>
     <g id="text_15">
      <!-- $\mathdefault{4.0}$ -->
      <g transform="translate(37.8 69.50864)scale(0.08 -0.08)">
       <use transform="translate(0 0.78125)" xlink:href="#DejaVuSans-52"/>
       <use transform="translate(63.623047 0.78125)" xlink:href="#DejaVuSans-46"/>
       <use transform="translate(95.410156 0.78125)" xlink:href="#DejaVuSans-48"/>
      </g>
     </g>
    </g>
    <g id="ytick_9">
     <g id="line2d_44">
      <defs>
       <path d="M 2.5 0 
L -2.5 -0 
" id="m4329baf018" style="stroke:#000000;stroke-width:0.6;"/>
      </defs>
      <g>
       <use style="stroke:#000000;stroke-width:0.6;" x="57.6" xlink:href="#m4329baf018" y="305.923925"/>
      </g>
     </g>
    </g>
    <g id="ytick_10">
     <g id="line2d_45">
      <g>
       <use style="stroke:#000000;stroke-width:0.6;" x="57.6" xlink:href="#m4329baf018" y="299.784062"/>
      </g>
     </g>
    </g>
    <g id="ytick_11">
     <g id="line2d_46">
      <g>
       <use style="stroke:#000000;stroke-width:0.6;" x="57.6" xlink:href="#m4329baf018" y="293.644199"/>
      </g>
     </g>
    </g>
    <g id="ytick_12">
     <g id="line2d_47">
      <g>
       <use style="stroke:#000000;stroke-width:0.6;" x="57.6" xlink:href="#m4329baf018" y="287.504336"/>
      </g>
     </g>
    </g>
    <g id="ytick_13">
     <g id="line2d_48">
      <g>
       <use style="stroke:#000000;stroke-width:0.6;" x="57.6" xlink:href="#m4329baf018" y="275.22461"/>
      </g>
     </g>
    </g>
    <g id="ytick_14">
     <g id="line2d_49">
      <g>
       <use style="stroke:#000000;stroke-width:0.6;" x="57.6" xlink:href="#m4329baf018" y="269.084747"/>
      </g>
     </g>
    </g>
    <g id="ytick_15">
     <g id="line2d_50">
      <g>
       <use style="stroke:#000000;stroke-width:0.6;" x="57.6" xlink:href="#m4329baf018" y="262.944884"/>
      </g>
     </g>
    </g>
    <g id="ytick_16">
     <g id="line2d_51">
      <g>
       <use style="stroke:#000000;stroke-width:0.6;" x="57.6" xlink:href="#m4329baf018" y="256.805021"/>
      </g>
     </g>
    </g>
    <g id="ytick_17">
     <g id="line2d_52">
      <g>
       <use style="stroke:#000000;stroke-width:0.6;" x="57.6" xlink:href="#m4329baf018" y="244.525294"/>
      </g>
     </g>
    </g>
    <g id="ytick_18">
     <g id="line2d_53">
      <g>
       <use style="stroke:#000000;stroke-width:0.6;" x="57.6" xlink:href="#m4329baf018" y="238.385431"/>
      </g>
     </g>
    </g>
    <g id="ytick_19">
     <g id="line2d_54">
      <g>
       <use style="stroke:#000000;stroke-width:0.6;" x="57.6" xlink:href="#m4329baf018" y="232.245568"/>
      </g>
     </g>
    </g>
    <g id="ytick_20">
     <g id="line2d_55">
      <g>
       <use style="stroke:#000000;stroke-width:0.6;" x="57.6" xlink:href="#m4329baf018" y="226.105705"/>
      </g>
     </g>
    </g>
    <g id="ytick_21">
     <g id="line2d_56">
      <g>
       <use style="stroke:#000000;stroke-width:0.6;" x="57.6" xlink:href="#m4329baf018" y="213.825979"/>
      </g>
     </g>
    </g>
    <g id="ytick_22">
     <g id="line2d_57">
      <g>
       <use style="stroke:#000000;stroke-width:0.6;" x="57.6" xlink:href="#m4329baf018" y="207.686116"/>
      </g>
     </g>
    </g>
    <g id="ytick_23">
     <g id="line2d_58">
      <g>
       <use style="stroke:#000000;stroke-width:0.6;" x="57.6" xlink:href="#m4329baf018" y="201.546253"/>
      </g>
     </g>
    </g>
    <g id="ytick_24">
     <g id="line2d_59">
      <g>
       <use style="stroke:#000000;stroke-width:0.6;" x="57.6" xlink:href="#m4329baf018" y="195.40639"/>
      </g>
     </g>
    </g>
    <g id="ytick_25">
     <g id="line2d_60">
      <g>
       <use style="stroke:#000000;stroke-width:0.6;" x="57.6" xlink:href="#m4329baf018" y="183.126663"/>
      </g>
     </g>
    </g>
    <g id="ytick_26">
     <g id="line2d_61">
      <g>
       <use style="stroke:#000000;stroke-width:0.6;" x="57.6" xlink:href="#m4329baf018" y="176.9868"/>
      </g>
     </g>
    </g>
    <g id="ytick_27">
     <g id="line2d_62">
      <g>
       <use style="stroke:#000000;stroke-width:0.6;" x="57.6" xlink:href="#m4329baf018" y="170.846937"/>
      </g>
     </g>
    </g>
    <g id="ytick_28">
     <g id="line2d_63">
      <g>
       <use style="stroke:#000000;stroke-width:0.6;" x="57.6" xlink:href="#m4329baf018" y="164.707074"/>
      </g>
     </g>
    </g>
    <g id="ytick_29">
     <g id="line2d_64">
      <g>
       <use style="stroke:#000000;stroke-width:0.6;" x="57.6" xlink:href="#m4329baf018" y="152.427348"/>
      </g>
     </g>
    </g>
    <g id="ytick_30">
     <g id="line2d_65">
      <g>
       <use style="stroke:#000000;stroke-width:0.6;" x="57.6" xlink:href="#m4329baf018" y="146.287485"/>
      </g>
     </g>
    </g>
    <g id="ytick_31">
     <g id="line2d_66">
      <g>
       <use style="stroke:#000000;stroke-width:0.6;" x="57.6" xlink:href="#m4329baf018" y="140.147622"/>
      </g>
     </g>
    </g>
    <g id="ytick_32">
     <g id="line2d_67">
      <g>
       <use style="stroke:#000000;stroke-width:0.6;" x="57.6" xlink:href="#m4329baf018" y="134.007759"/>
      </g>
     </g>
    </g>
    <g id="ytick_33">
     <g id="line2d_68">
      <g>
       <use style="stroke:#000000;stroke-width:0.6;" x="57.6" xlink:href="#m4329baf018" y="121.728032"/>
      </g>
     </g>
    </g>
    <g id="ytick_34">
     <g id="line2d_69">
      <g>
       <use style="stroke:#000000;stroke-width:0.6;" x="57.6" xlink:href="#m4329baf018" y="115.588169"/>
      </g>
     </g>
    </g>
    <g id="ytick_35">
     <g id="line2d_70">
      <g>
       <use style="stroke:#000000;stroke-width:0.6;" x="57.6" xlink:href="#m4329baf018" y="109.448306"/>
      </g>
     </g>
    </g>
    <g id="ytick_36">
     <g id="line2d_71">
      <g>
       <use style="stroke:#000000;stroke-width:0.6;" x="57.6" xlink:href="#m4329baf018" y="103.308443"/>
      </g>
     </g>
    </g>
    <g id="ytick_37">
     <g id="line2d_72">
      <g>
       <use style="stroke:#000000;stroke-width:0.6;" x="57.6" xlink:href="#m4329baf018" y="91.028717"/>
      </g>
     </g>
    </g>
    <g id="ytick_38">
     <g id="line2d_73">
      <g>
       <use style="stroke:#000000;stroke-width:0.6;" x="57.6" xlink:href="#m4329baf018" y="84.888854"/>
      </g>
     </g>
    </g>
    <g id="ytick_39">
     <g id="line2d_74">
      <g>
       <use style="stroke:#000000;stroke-width:0.6;" x="57.6" xlink:href="#m4329baf018" y="78.748991"/>
      </g>
     </g>
    </g>
    <g id="ytick_40">
     <g id="line2d_75">
      <g>
       <use style="stroke:#000000;stroke-width:0.6;" x="57.6" xlink:href="#m4329baf018" y="72.609128"/>
      </g>
     </g>
    </g>
    <g id="ytick_41">
     <g id="line2d_76">
      <g>
       <use style="stroke:#000000;stroke-width:0.6;" x="57.6" xlink:href="#m4329baf018" y="60.329401"/>
      </g>
     </g>
    </g>
    <g id="ytick_42">
     <g id="line2d_77">
      <g>
       <use style="stroke:#000000;stroke-width:0.6;" x="57.6" xlink:href="#m4329baf018" y="54.189538"/>
      </g>
     </g>
    </g>
    <g id="ytick_43">
     <g id="line2d_78">
      <g>
       <use style="stroke:#000000;stroke-width:0.6;" x="57.6" xlink:href="#m4329baf018" y="48.049675"/>
      </g>
     </g>
    </g>
    <g id="ytick_44">
     <g id="line2d_79">
      <g>
       <use style="stroke:#000000;stroke-width:0.6;" x="57.6" xlink:href="#m4329baf018" y="41.909812"/>
      </g>
     </g>
    </g>
    <g id="text_16">
     <!-- Komulativní histogram -->
     <g transform="translate(19.720312 230.910031)rotate(-90)scale(0.1 -0.1)">
      <defs>
       <path d="M 9.8125 72.90625 
L 19.671875 72.90625 
L 19.671875 42.09375 
L 52.390625 72.90625 
L 65.09375 72.90625 
L 28.90625 38.921875 
L 67.671875 0 
L 54.6875 0 
L 19.671875 35.109375 
L 19.671875 0 
L 9.8125 0 
z
" id="DejaVuSans-75"/>
       <path d="M 52 44.1875 
Q 55.375 50.25 60.0625 53.125 
Q 64.75 56 71.09375 56 
Q 79.640625 56 84.28125 50.015625 
Q 88.921875 44.046875 88.921875 33.015625 
L 88.921875 0 
L 79.890625 0 
L 79.890625 32.71875 
Q 79.890625 40.578125 77.09375 44.375 
Q 74.3125 48.1875 68.609375 48.1875 
Q 61.625 48.1875 57.5625 43.546875 
Q 53.515625 38.921875 53.515625 30.90625 
L 53.515625 0 
L 44.484375 0 
L 44.484375 32.71875 
Q 44.484375 40.625 41.703125 44.40625 
Q 38.921875 48.1875 33.109375 48.1875 
Q 26.21875 48.1875 22.15625 43.53125 
Q 18.109375 38.875 18.109375 30.90625 
L 18.109375 0 
L 9.078125 0 
L 9.078125 54.6875 
L 18.109375 54.6875 
L 18.109375 46.1875 
Q 21.1875 51.21875 25.484375 53.609375 
Q 29.78125 56 35.6875 56 
Q 41.65625 56 45.828125 52.96875 
Q 50 49.953125 52 44.1875 
z
" id="DejaVuSans-109"/>
       <path d="M 9.421875 75.984375 
L 18.40625 75.984375 
L 18.40625 0 
L 9.421875 0 
z
" id="DejaVuSans-108"/>
       <path d="M 2.984375 54.6875 
L 12.5 54.6875 
L 29.59375 8.796875 
L 46.6875 54.6875 
L 56.203125 54.6875 
L 35.6875 0 
L 23.484375 0 
z
" id="DejaVuSans-118"/>
       <path d="M 20.65625 79.984375 
L 30.375 79.984375 
L 14.46875 61.625 
L 6.984375 61.625 
z
M 9.421875 54.6875 
L 18.40625 54.6875 
L 18.40625 0 
L 9.421875 0 
z
M 13.921875 56 
z
" id="DejaVuSans-237"/>
       <path d="M 54.890625 33.015625 
L 54.890625 0 
L 45.90625 0 
L 45.90625 32.71875 
Q 45.90625 40.484375 42.875 44.328125 
Q 39.84375 48.1875 33.796875 48.1875 
Q 26.515625 48.1875 22.3125 43.546875 
Q 18.109375 38.921875 18.109375 30.90625 
L 18.109375 0 
L 9.078125 0 
L 9.078125 75.984375 
L 18.109375 75.984375 
L 18.109375 46.1875 
Q 21.34375 51.125 25.703125 53.5625 
Q 30.078125 56 35.796875 56 
Q 45.21875 56 50.046875 50.171875 
Q 54.890625 44.34375 54.890625 33.015625 
z
" id="DejaVuSans-104"/>
       <path d="M 44.28125 53.078125 
L 44.28125 44.578125 
Q 40.484375 46.53125 36.375 47.5 
Q 32.28125 48.484375 27.875 48.484375 
Q 21.1875 48.484375 17.84375 46.4375 
Q 14.5 44.390625 14.5 40.28125 
Q 14.5 37.15625 16.890625 35.375 
Q 19.28125 33.59375 26.515625 31.984375 
L 29.59375 31.296875 
Q 39.15625 29.25 43.1875 25.515625 
Q 47.21875 21.78125 47.21875 15.09375 
Q 47.21875 7.46875 41.1875 3.015625 
Q 35.15625 -1.421875 24.609375 -1.421875 
Q 20.21875 -1.421875 15.453125 -0.5625 
Q 10.6875 0.296875 5.421875 2 
L 5.421875 11.28125 
Q 10.40625 8.6875 15.234375 7.390625 
Q 20.0625 6.109375 24.8125 6.109375 
Q 31.15625 6.109375 34.5625 8.28125 
Q 37.984375 10.453125 37.984375 14.40625 
Q 37.984375 18.0625 35.515625 20.015625 
Q 33.0625 21.96875 24.703125 23.78125 
L 21.578125 24.515625 
Q 13.234375 26.265625 9.515625 29.90625 
Q 5.8125 33.546875 5.8125 39.890625 
Q 5.8125 47.609375 11.28125 51.796875 
Q 16.75 56 26.8125 56 
Q 31.78125 56 36.171875 55.265625 
Q 40.578125 54.546875 44.28125 53.078125 
z
" id="DejaVuSans-115"/>
       <path d="M 45.40625 27.984375 
Q 45.40625 37.75 41.375 43.109375 
Q 37.359375 48.484375 30.078125 48.484375 
Q 22.859375 48.484375 18.828125 43.109375 
Q 14.796875 37.75 14.796875 27.984375 
Q 14.796875 18.265625 18.828125 12.890625 
Q 22.859375 7.515625 30.078125 7.515625 
Q 37.359375 7.515625 41.375 12.890625 
Q 45.40625 18.265625 45.40625 27.984375 
z
M 54.390625 6.78125 
Q 54.390625 -7.171875 48.1875 -13.984375 
Q 42 -20.796875 29.203125 -20.796875 
Q 24.46875 -20.796875 20.265625 -20.09375 
Q 16.0625 -19.390625 12.109375 -17.921875 
L 12.109375 -9.1875 
Q 16.0625 -11.328125 19.921875 -12.34375 
Q 23.78125 -13.375 27.78125 -13.375 
Q 36.625 -13.375 41.015625 -8.765625 
Q 45.40625 -4.15625 45.40625 5.171875 
L 45.40625 9.625 
Q 42.625 4.78125 38.28125 2.390625 
Q 33.9375 0 27.875 0 
Q 17.828125 0 11.671875 7.65625 
Q 5.515625 15.328125 5.515625 27.984375 
Q 5.515625 40.671875 11.671875 48.328125 
Q 17.828125 56 27.875 56 
Q 33.9375 56 38.28125 53.609375 
Q 42.625 51.21875 45.40625 46.390625 
L 45.40625 54.6875 
L 54.390625 54.6875 
z
" id="DejaVuSans-103"/>
      </defs>
      <use xlink:href="#DejaVuSans-75"/>
      <use x="60.576172" xlink:href="#DejaVuSans-111"/>
      <use x="121.757812" xlink:href="#DejaVuSans-109"/>
      <use x="219.169922" xlink:href="#DejaVuSans-117"/>
      <use x="282.548828" xlink:href="#DejaVuSans-108"/>
      <use x="310.332031" xlink:href="#DejaVuSans-97"/>
      <use x="371.611328" xlink:href="#DejaVuSans-116"/>
      <use x="410.820312" xlink:href="#DejaVuSans-105"/>
      <use x="438.603516" xlink:href="#DejaVuSans-118"/>
      <use x="497.783203" xlink:href="#DejaVuSans-110"/>
      <use x="561.162109" xlink:href="#DejaVuSans-237"/>
      <use x="588.945312" xlink:href="#DejaVuSans-32"/>
      <use x="620.732422" xlink:href="#DejaVuSans-104"/>
      <use x="684.111328" xlink:href="#DejaVuSans-105"/>
      <use x="711.894531" xlink:href="#DejaVuSans-115"/>
      <use x="763.994141" xlink:href="#DejaVuSans-116"/>
      <use x="803.203125" xlink:href="#DejaVuSans-111"/>
      <use x="864.384766" xlink:href="#DejaVuSans-103"/>
      <use x="927.861328" xlink:href="#DejaVuSans-114"/>
      <use x="968.974609" xlink:href="#DejaVuSans-97"/>
      <use x="1030.253906" xlink:href="#DejaVuSans-109"/>
     </g>
    </g>
    <g id="text_17">
     <!-- $\times\mathdefault{10^{6}}\mathdefault{}$ -->
     <g transform="translate(57.6 38.472)scale(0.08 -0.08)">
      <defs>
       <path d="M 70.125 53.71875 
L 47.796875 31.296875 
L 70.125 8.984375 
L 64.3125 3.078125 
L 41.890625 25.484375 
L 19.484375 3.078125 
L 13.71875 8.984375 
L 35.984375 31.296875 
L 13.71875 53.71875 
L 19.484375 59.625 
L 41.890625 37.203125 
L 64.3125 59.625 
z
" id="DejaVuSans-215"/>
      </defs>
      <use transform="translate(0 0.765625)" xlink:href="#DejaVuSans-215"/>
      <use transform="translate(83.789062 0.765625)" xlink:href="#DejaVuSans-49"/>
      <use transform="translate(147.412109 0.765625)" xlink:href="#DejaVuSans-48"/>
      <use transform="translate(211.992188 39.046875)scale(0.7)" xlink:href="#DejaVuSans-54"/>
     </g>
    </g>
   </g>
   <g id="line2d_80">
    <path clip-path="url(#p56ff44ac9b)" d="M 73.832727 295.488 
L 74.027539 290.65427 
L 74.806788 282.524539 
L 74.969132 281.867573 
L 75.456162 280.533811 
L 76.105536 279.028316 
L 76.462692 278.620691 
L 76.722442 278.348818 
L 77.01466 278.017511 
L 78.313408 276.434593 
L 78.638095 276.221846 
L 79.060188 275.748586 
L 79.287469 275.573784 
L 80.001781 274.812809 
L 80.229061 274.609764 
L 80.326468 274.574214 
L 80.488811 274.409297 
L 81.397935 273.817476 
L 81.852497 273.4928 
L 81.917434 273.433857 
L 82.209652 273.146266 
L 82.27459 273.053493 
L 82.436933 272.870955 
L 82.664214 272.77855 
L 82.891495 272.56611 
L 83.183713 272.397448 
L 83.573338 271.984727 
L 83.995431 271.770753 
L 84.222712 271.604608 
L 84.417524 271.506125 
L 84.579867 271.41372 
L 84.77468 271.20871 
L 84.937023 271.115506 
L 85.099367 271.043363 
L 85.229241 270.926583 
L 85.456522 270.885569 
L 85.943553 270.578637 
L 86.300709 270.304676 
L 86.52799 270.218902 
L 88.703393 269.158486 
L 89.190423 268.885999 
L 89.51511 268.716846 
L 90.099547 268.439324 
L 90.52164 268.207237 
L 92.27495 267.162171 
L 92.404824 267.026726 
L 93.184073 266.855854 
L 93.346417 266.752704 
L 93.736041 266.645134 
L 93.930853 266.589199 
L 94.417884 266.249849 
L 94.677634 266.057794 
L 94.77504 265.951513 
L 95.164664 265.754424 
L 95.52182 265.655695 
L 97.01538 264.952435 
L 97.372536 264.86531 
L 97.632285 264.738276 
L 98.086847 264.641573 
L 98.314128 264.524793 
L 98.931033 264.333843 
L 99.677814 263.95661 
L 99.840157 263.901229 
L 100.002501 263.785738 
L 100.684343 263.454431 
L 100.976562 263.349869 
L 101.236311 263.23972 
L 101.431123 263.173532 
L 101.593467 262.990748 
L 102.145435 262.641636 
L 102.535059 262.571027 
L 102.729872 262.473526 
L 103.087027 262.369456 
L 103.379246 262.241562 
L 103.574058 262.131782 
L 103.76887 262.010888 
L 104.418244 261.796668 
L 104.645525 261.652811 
L 104.742931 261.569247 
L 104.970212 261.508278 
L 105.327368 261.422505 
L 105.52218 261.301856 
L 107.989801 260.333845 
L 108.314488 260.202207 
L 108.639175 260.097645 
L 108.898925 259.943289 
L 109.126206 259.833815 
L 109.548299 259.624937 
L 109.905455 259.378114 
L 110.295079 259.267781 
L 110.684703 259.031949 
L 111.593827 258.724158 
L 111.821108 258.657724 
L 112.01592 258.53241 
L 112.697763 258.308734 
L 113.02245 258.198831 
L 113.184793 258.163834 
L 114.02898 257.902644 
L 114.321198 257.784881 
L 114.840697 257.631139 
L 115.26279 257.530507 
L 115.587477 257.424042 
L 115.814758 257.317269 
L 116.626476 257.081253 
L 117.048569 256.866603 
L 117.243381 256.814415 
L 117.405725 256.667856 
L 117.633005 256.55697 
L 118.02263 256.436874 
L 118.217442 256.313279 
L 118.574598 256.197358 
L 118.834347 256.09648 
L 119.061628 255.985472 
L 119.353847 255.874954 
L 119.646065 255.766217 
L 119.905815 255.705432 
L 120.327908 255.590494 
L 120.555189 255.383028 
L 121.107157 255.034223 
L 121.464312 254.843396 
L 121.724062 254.729133 
L 122.146155 254.637526 
L 122.373436 254.579075 
L 122.730592 254.478074 
L 125.068338 253.731037 
L 125.620306 253.626291 
L 125.78265 253.591293 
L 126.107337 253.482679 
L 126.951523 253.250163 
L 127.27621 253.140996 
L 128.607427 252.796611 
L 128.802239 252.737914 
L 129.484081 252.640413 
L 129.906175 252.46512 
L 131.302329 251.749826 
L 131.691953 251.652816 
L 131.951703 251.561025 
L 132.243921 251.4537 
L 133.477732 251.045645 
L 133.672544 251.019612 
L 134.127106 250.947223 
L 134.321918 250.785744 
L 134.549199 250.656623 
L 135.101167 250.554763 
L 135.555729 250.376584 
L 135.78301 250.270364 
L 135.977822 250.139033 
L 137.244101 249.772667 
L 137.406445 249.68984 
L 137.633726 249.574534 
L 137.990881 249.477462 
L 138.250631 249.363629 
L 138.640255 249.287986 
L 138.835068 249.221491 
L 139.02988 249.145419 
L 139.192223 249.084695 
L 139.646785 248.996404 
L 139.874066 248.929848 
L 140.133816 248.820251 
L 142.374156 247.954469 
L 142.666374 247.854819 
L 142.861186 247.791824 
L 143.380686 247.686157 
L 143.672904 247.587244 
L 143.900185 247.430432 
L 145.069058 247.025385 
L 145.26387 246.936971 
L 145.458683 246.880791 
L 145.750901 246.78065 
L 148.997771 245.709858 
L 149.322458 245.603516 
L 152.147235 244.741111 
L 152.309579 244.65196 
L 152.76414 244.451493 
L 152.926484 244.339748 
L 153.348577 244.248202 
L 153.608327 244.161814 
L 153.900545 244.103302 
L 154.095357 243.91358 
L 154.290169 243.828972 
L 154.582388 243.720665 
L 155.101887 243.588904 
L 155.296699 243.492815 
L 155.491511 243.393779 
L 155.718792 243.286761 
L 155.946073 243.193251 
L 156.140885 243.11417 
L 156.595447 243.011388 
L 156.757791 242.936605 
L 157.504571 242.655829 
L 157.76432 242.549916 
L 158.186414 242.322189 
L 158.608507 242.237336 
L 158.738381 242.161938 
L 159.77738 241.821483 
L 160.296879 241.527936 
L 161.400815 241.146957 
L 161.628096 240.919721 
L 162.01772 240.775189 
L 162.212533 240.692976 
L 162.7645 240.60315 
L 163.089187 240.394087 
L 163.413874 240.293639 
L 163.673624 240.236846 
L 164.03078 240.140818 
L 164.322998 239.935869 
L 164.842497 239.82701 
L 165.167184 239.721588 
L 165.589277 239.610764 
L 165.978902 239.476055 
L 166.693213 239.335145 
L 167.082838 239.23967 
L 167.27765 239.105944 
L 168.478992 238.648033 
L 168.868616 238.537454 
L 169.128366 238.44726 
L 169.77774 238.301438 
L 170.005021 238.216155 
L 170.297239 238.1119 
L 170.914145 237.835545 
L 171.433644 237.706485 
L 171.595987 237.599529 
L 171.758331 237.514676 
L 172.180424 237.291553 
L 172.440173 237.222296 
L 172.570048 237.123321 
L 172.927204 237.024101 
L 173.966202 236.633851 
L 174.453233 236.534815 
L 174.875326 236.289159 
L 175.26495 236.175203 
L 175.492231 236.109875 
L 175.751981 236.028461 
L 175.979262 235.91475 
L 176.401355 235.819828 
L 176.563699 235.65749 
L 177.050729 235.547402 
L 178.381946 235.026374 
L 178.576758 234.873614 
L 178.998851 234.763526 
L 179.193663 234.684322 
L 179.680694 234.621634 
L 179.843037 234.548324 
L 180.265131 234.462611 
L 180.427474 234.35326 
L 181.336598 233.99285 
L 181.563879 233.893507 
L 181.726222 233.792322 
L 182.310659 233.597689 
L 182.53794 233.488399 
L 182.700283 233.413677 
L 182.927564 233.274671 
L 183.28472 233.09686 
L 183.641875 232.991316 
L 183.836688 232.894797 
L 184.096437 232.800428 
L 184.258781 232.709066 
L 186.304309 232.184845 
L 186.466652 232.096676 
L 186.921214 232.008385 
L 187.116027 231.982291 
L 187.700463 231.874782 
L 188.02515 231.666272 
L 188.349837 231.594865 
L 188.512181 231.544519 
L 188.804399 231.458438 
L 189.226492 231.348841 
L 190.460303 230.682789 
L 190.979802 230.471884 
L 191.564239 230.132043 
L 192.0188 230.029446 
L 192.213613 229.958408 
L 192.862987 229.717418 
L 193.220142 229.601375 
L 194.161735 229.246798 
L 195.103327 228.808473 
L 195.363077 228.715822 
L 195.687764 228.540345 
L 195.850107 228.439897 
L 197.01898 228.064874 
L 197.733292 227.739768 
L 198.28526 227.63318 
L 198.967103 227.261104 
L 199.421664 227.018948 
L 199.713883 226.915553 
L 200.03857 226.747935 
L 200.5256 226.60199 
L 201.369786 226.495218 
L 202.084098 226.20032 
L 202.343847 226.117985 
L 202.603597 226.022633 
L 202.765941 225.962032 
L 202.928284 225.833955 
L 203.252971 225.732586 
L 203.77247 225.432469 
L 204.064689 225.339573 
L 204.356907 225.223775 
L 204.973812 225.121117 
L 205.363437 224.873128 
L 205.688124 224.781398 
L 205.947873 224.685985 
L 206.142686 224.563003 
L 206.402435 224.471458 
L 206.53231 224.371501 
L 206.727122 224.292849 
L 207.344027 224.178218 
L 207.603777 224.095821 
L 207.766121 223.97548 
L 207.960933 223.810686 
L 208.220682 223.643313 
L 208.545369 223.467651 
L 208.805119 223.37979 
L 209.0324 223.262641 
L 209.389556 223.094041 
L 209.551899 223.01146 
L 209.941524 222.921388 
L 210.168805 222.823948 
L 212.246801 222.210515 
L 212.376676 222.101471 
L 212.733832 221.993041 
L 212.896175 221.862568 
L 213.610487 221.54262 
L 213.837768 221.45482 
L 214.097517 221.352284 
L 214.519611 221.241337 
L 215.03911 221.107734 
L 215.266391 221.003172 
L 217.409325 220.115409 
L 217.636606 220.026627 
L 217.896355 219.944291 
L 218.058699 219.822415 
L 218.188574 219.628272 
L 218.350917 219.535376 
L 218.675604 219.436831 
L 219.324978 219.280756 
L 219.584728 219.178589 
L 220.52632 218.711161 
L 220.980882 218.497432 
L 221.2731 218.446287 
L 221.53285 218.339638 
L 222.377036 218.089438 
L 222.929004 217.758316 
L 223.253691 217.636685 
L 223.416035 217.522361 
L 223.708253 217.423447 
L 224.487502 216.878903 
L 225.234282 216.571971 
L 225.429094 216.415589 
L 225.591438 216.313299 
L 225.721312 216.243489 
L 226.046 216.142181 
L 226.208343 216.040873 
L 226.403155 215.941284 
L 226.630436 215.87043 
L 227.052529 215.78435 
L 227.27981 215.621029 
L 227.572028 215.523344 
L 227.734372 215.428299 
L 228.091528 215.241095 
L 228.318809 215.138436 
L 228.903245 215.02755 
L 229.487682 214.752177 
L 229.942244 214.680341 
L 230.234462 214.44414 
L 230.494212 214.327728 
L 230.883836 214.254173 
L 231.04618 214.162812 
L 231.468273 214.071573 
L 231.630616 214.019139 
L 232.085178 213.722031 
L 232.572208 213.627109 
L 232.734552 213.512293 
L 233.091708 213.423142 
L 233.54627 213.18289 
L 233.708613 213.11836 
L 233.968363 212.921638 
L 234.390456 212.8339 
L 234.585268 212.709752 
L 236.858077 211.634969 
L 237.020421 211.527337 
L 237.702263 211.149183 
L 237.962013 211.021289 
L 238.221763 210.870556 
L 238.54645 210.771581 
L 238.77373 210.69692 
L 239.065949 210.609612 
L 239.260761 210.460167 
L 239.910135 210.139359 
L 240.429634 210.03535 
L 240.689384 209.987029 
L 240.949133 209.893642 
L 241.306289 209.674572 
L 241.501101 209.583579 
L 241.79332 209.463299 
L 242.118007 209.245088 
L 242.247882 209.15735 
L 242.475162 209.047262 
L 242.702443 208.95983 
L 242.929724 208.877126 
L 243.059599 208.766609 
L 243.254411 208.707605 
L 243.416755 208.611884 
L 243.741442 208.563809 
L 243.936254 208.401962 
L 244.358347 208.295559 
L 244.975252 207.887626 
L 245.105127 207.787853 
L 245.754501 207.474413 
L 245.916845 207.380289 
L 246.241532 207.294884 
L 246.501281 207.144273 
L 246.825968 207.035597 
L 248.611747 206.312321 
L 248.741622 206.266886 
L 248.903965 206.151211 
L 249.878026 205.622815 
L 250.007901 205.445925 
L 250.235182 205.392079 
L 250.462463 205.14851 
L 250.624806 205.090366 
L 250.78715 205.005452 
L 251.339118 204.949517 
L 251.566399 204.700792 
L 251.663805 204.610658 
L 252.702803 203.851648 
L 252.930084 203.748806 
L 255.462643 202.396255 
L 255.722393 202.289176 
L 256.04708 202.128434 
L 256.176954 202.025837 
L 257.086078 201.561111 
L 257.28089 201.513343 
L 257.378296 201.420938 
L 257.605577 201.287642 
L 257.767921 201.195851 
L 257.962733 201.116953 
L 258.384826 201.023259 
L 258.741982 200.745492 
L 258.871857 200.652718 
L 259.066669 200.586776 
L 259.488762 200.479881 
L 260.170605 200.014357 
L 260.560229 199.912681 
L 261.079728 199.644737 
L 261.209603 199.549569 
L 261.599228 199.459129 
L 262.151195 199.110323 
L 262.54082 198.932329 
L 262.865507 198.740888 
L 263.612287 198.37925 
L 263.839568 198.298572 
L 264.001911 198.121621 
L 264.131786 198.041373 
L 264.29413 197.911638 
L 264.521411 197.807936 
L 264.716223 197.727196 
L 264.943504 197.666719 
L 265.105847 197.581497 
L 265.30066 197.503214 
L 265.560409 197.27782 
L 265.690284 197.181485 
L 265.982502 197.090431 
L 266.274721 196.979422 
L 266.599408 196.7765 
L 267.216313 196.453543 
L 267.605937 196.356533 
L 267.930624 196.195423 
L 268.125437 196.114009 
L 268.482592 195.884439 
L 268.54753 195.782333 
L 269.229372 195.32608 
L 269.554059 195.122237 
L 270.008621 194.882045 
L 270.268371 194.779387 
L 271.664525 194.027069 
L 272.151556 193.782703 
L 273.223023 192.868907 
L 273.417835 192.761889 
L 273.969803 192.485104 
L 274.262021 192.375385 
L 275.852987 191.617664 
L 276.0478 191.556941 
L 276.210143 191.411426 
L 278.158265 190.094426 
L 278.28814 190.03186 
L 278.580358 189.529742 
L 278.742702 189.441144 
L 278.937514 189.261062 
L 279.099858 189.173016 
L 279.521951 188.832622 
L 279.7817 188.752988 
L 280.106387 188.535637 
L 280.366137 188.435496 
L 280.560949 188.164544 
L 280.853167 187.962051 
L 280.983042 187.829185 
L 282.411665 186.789583 
L 282.606477 186.70958 
L 282.963633 186.262476 
L 283.093508 186.143547 
L 283.223383 186.048808 
L 283.418195 185.943878 
L 283.613007 185.757104 
L 284.002632 185.660892 
L 284.359787 185.475284 
L 284.716943 185.423156 
L 284.879286 185.312086 
L 285.139036 185.174369 
L 285.463723 185.073123 
L 285.691004 184.998216 
L 285.853348 184.954378 
L 286.080628 184.689074 
L 287.119627 183.91846 
L 287.28197 183.808311 
L 289.067749 182.469023 
L 289.457373 182.11948 
L 289.78206 181.896358 
L 290.463903 181.315956 
L 290.626247 181.272793 
L 290.821059 181.101491 
L 290.983402 181.066371 
L 291.243152 180.652667 
L 292.022401 180.118253 
L 292.412025 179.804629 
L 292.606837 179.720329 
L 292.834118 179.39639 
L 293.223743 179.132928 
L 294.360147 178.721373 
L 294.522491 178.513539 
L 294.717303 178.338614 
L 295.529021 177.661203 
L 295.691364 177.572359 
L 295.918645 177.433046 
L 297.022581 176.433107 
L 297.477143 176.07632 
L 297.769361 175.971513 
L 298.158985 175.617365 
L 298.28886 175.521583 
L 298.386266 175.295145 
L 298.613547 174.812552 
L 298.873297 174.731444 
L 299.03564 174.570703 
L 299.29539 174.464606 
L 299.457733 174.366061 
L 299.652546 174.280042 
L 300.30192 173.622155 
L 300.464263 173.512743 
L 300.853888 173.252351 
L 301.016231 173.156876 
L 301.146106 173.038746 
L 301.211043 172.982197 
L 301.373387 172.798922 
L 301.568199 172.722051 
L 301.990292 172.164859 
L 302.120167 172.113407 
L 302.28251 171.972804 
L 302.931884 171.671828 
L 303.126697 171.481001 
L 303.256571 171.411559 
L 303.516321 171.168605 
L 303.646196 171.07184 
L 304.490382 170.233258 
L 304.685194 169.98183 
L 304.880007 169.858481 
L 305.431974 169.35624 
L 306.113817 168.751463 
L 306.276161 168.666795 
L 306.698254 168.371222 
L 307.120347 167.863762 
L 307.250222 167.762638 
L 308.841188 166.251495 
L 309.068469 166.065703 
L 310.010061 165.196912 
L 310.172405 165.129804 
L 310.334748 165.002708 
L 310.399686 164.939345 
L 310.984122 164.212263 
L 311.211403 164.095789 
L 311.373747 163.994911 
L 312.152996 163.136252 
L 312.347808 163.043171 
L 312.704964 162.801015 
L 313.159525 162.614793 
L 313.938774 161.9127 
L 314.101118 161.824347 
L 315.334928 160.613627 
L 315.432335 160.509311 
L 315.854428 160.244069 
L 316.308989 159.715734 
L 316.438864 159.635609 
L 316.79602 159.328308 
L 316.958363 159.220922 
L 317.510331 158.761783 
L 317.705144 158.524969 
L 317.867487 158.287479 
L 318.094768 158.18918 
L 318.386986 157.903615 
L 318.614267 157.75767 
L 318.776611 157.514961 
L 318.971423 157.371841 
L 319.166235 157.271945 
L 319.328579 157.164682 
L 319.588328 156.825025 
L 319.653266 156.759267 
L 319.848078 156.575869 
L 319.977953 156.424153 
L 320.172765 156.237993 
L 320.270171 156.203793 
L 320.432515 155.918167 
L 320.78967 155.812132 
L 321.179295 155.269736 
L 321.309169 155.219819 
L 321.503982 154.654767 
L 321.633856 154.553398 
L 321.861137 154.325548 
L 323.54951 152.727894 
L 323.711853 152.548672 
L 324.166415 152.009039 
L 324.263821 151.947886 
L 324.588508 151.536945 
L 324.620977 151.536945 
L 324.783321 151.353363 
L 325.010601 151.044282 
L 325.400226 150.702967 
L 326.244412 149.799179 
L 326.374287 149.688969 
L 326.79638 149.380625 
L 326.893786 149.295711 
L 328.062659 148.181019 
L 328.54969 147.521167 
L 328.744502 147.37639 
L 328.939314 146.97607 
L 329.231533 146.679147 
L 330.04325 146.029979 
L 330.530281 145.499126 
L 330.822499 145.129261 
L 331.017311 144.945618 
L 331.244592 144.847073 
L 332.153716 143.714514 
L 332.478403 143.344157 
L 332.673215 143.246902 
L 333.29012 142.566114 
L 334.361587 141.433002 
L 334.5564 141.165734 
L 334.751212 141.029429 
L 334.816149 140.935305 
L 335.010961 140.71734 
L 335.108368 140.61419 
L 336.277241 139.215161 
L 336.634397 138.719428 
L 336.861677 138.543767 
L 336.991552 138.377069 
L 337.316239 138.021019 
L 337.413645 137.962936 
L 337.673395 137.666687 
L 337.738332 137.575633 
L 338.063019 137.100162 
L 338.127957 137.064796 
L 338.2903 136.868505 
L 338.420175 136.799247 
L 338.647456 136.590492 
L 338.907206 136.497289 
L 339.134487 136.172122 
L 339.264361 136.148606 
L 339.459174 135.840201 
L 339.524111 135.742761 
L 340.173485 134.855305 
L 340.335828 134.606702 
L 340.368297 134.606702 
L 340.563109 134.236775 
L 340.920265 133.801214 
L 341.017671 133.698187 
L 341.569639 133.124416 
L 341.79692 132.770945 
L 341.894326 132.641086 
L 342.251482 132.299587 
L 342.316419 132.238496 
L 342.641106 131.906452 
L 342.868387 131.60302 
L 343.095668 131.352329 
L 343.355418 131.191833 
L 343.55023 131.100104 
L 345.011321 129.380144 
L 345.30354 129.009726 
L 347.089318 126.407529 
L 347.349068 126.082423 
L 347.706224 125.658896 
L 348.225723 125.084818 
L 348.453004 124.805639 
L 349.004972 124.098818 
L 349.199784 123.859486 
L 349.55694 123.330844 
L 349.784221 122.900808 
L 349.946564 122.797228 
L 350.368657 122.154814 
L 350.401126 122.150885 
L 350.563469 121.846041 
L 351.115437 121.138544 
L 351.277781 120.894178 
L 351.569999 120.435714 
L 351.862217 120.046754 
L 351.992092 119.902713 
L 352.349248 119.28363 
L 352.414185 119.155184 
L 353.031091 118.257536 
L 353.193434 118.040062 
L 354.070089 116.880979 
L 354.232433 116.607632 
L 355.433775 115.024223 
L 355.531181 114.995366 
L 355.725993 114.726317 
L 355.79093 114.686715 
L 356.05068 114.340672 
L 356.115617 114.153345 
L 356.342898 113.800487 
L 356.862398 113.13775 
L 357.024741 112.891112 
L 357.187085 112.749219 
L 357.479303 112.41343 
L 357.511772 112.41343 
L 357.771521 111.869684 
L 358.128677 111.326429 
L 358.258552 111.203202 
L 358.55077 110.804172 
L 358.81052 110.232858 
L 359.200144 109.821364 
L 359.394956 109.602847 
L 359.459894 109.573437 
L 359.622237 109.274548 
L 359.654706 109.274548 
L 359.849518 108.801165 
L 359.979393 108.693164 
L 360.04433 108.603461 
L 360.498892 107.85581 
L 360.531361 107.827751 
L 360.693704 107.544887 
L 363.063919 103.786431 
L 363.258732 103.518672 
L 364.232793 102.250238 
L 364.395136 102.16121 
L 364.589948 101.941587 
L 364.914635 101.636129 
L 364.979573 101.502095 
L 365.141916 101.32846 
L 366.083509 99.768259 
L 366.278321 99.579459 
L 366.473133 99.24852 
L 366.603008 99.161764 
L 368.713474 95.714353 
L 368.778411 95.644113 
L 369.038161 95.353882 
L 370.336909 92.876202 
L 370.856408 92.027488 
L 370.986283 91.97094 
L 371.213564 91.594321 
L 372.05775 90.573262 
L 372.220093 90.267312 
L 372.349968 90.239008 
L 372.577249 89.687218 
L 372.772061 89.440334 
L 372.934405 89.346026 
L 374.135747 87.144885 
L 374.363028 86.77766 
L 374.460434 86.702569 
L 374.720183 86.41332 
L 374.785121 86.385016 
L 375.012402 85.820824 
L 375.077339 85.751259 
L 375.466963 85.253807 
L 375.531901 85.209846 
L 375.824119 84.801791 
L 375.889057 84.766671 
L 376.343618 83.968734 
L 376.733243 83.434504 
L 376.895586 83.1832 
L 377.187805 82.628218 
L 377.674835 81.917099 
L 378.941114 79.671321 
L 379.135927 79.290342 
L 379.200864 79.19364 
L 379.687895 78.316806 
L 379.850238 78.178168 
L 380.467143 77.408352 
L 380.661956 76.900462 
L 381.213924 75.939389 
L 381.376267 75.847783 
L 381.571079 75.621713 
L 381.79836 75.15582 
L 381.928235 75.034312 
L 382.317859 74.438131 
L 382.447734 74.338174 
L 382.772421 73.91305 
L 384.882887 71.457965 
L 385.077699 71.127272 
L 385.337449 70.770177 
L 385.434855 70.685263 
L 386.214104 69.957566 
L 386.376447 69.617479 
L 386.603728 69.24172 
L 386.831009 68.896844 
L 387.05829 68.70528 
L 387.318039 68.439608 
L 387.382977 68.340449 
L 387.54532 68.123712 
L 387.870007 67.71492 
L 388.032351 67.530724 
L 388.194694 67.284393 
L 388.421975 67.003617 
L 388.519381 66.899976 
L 388.649256 66.760969 
L 388.876537 66.533303 
L 388.941475 66.424259 
L 389.006412 66.345792 
L 389.233693 65.899731 
L 392.123407 62.227356 
L 392.285751 62.107874 
L 392.577969 61.912811 
L 392.740313 61.870691 
L 393.065 61.353408 
L 393.162406 61.25253 
L 396.019651 57.17652 
L 396.117058 56.929882 
L 396.961244 55.976239 
L 397.026181 55.927488 
L 397.285931 55.539387 
L 397.415806 55.474366 
L 397.708024 55.002947 
L 397.870367 54.8077 
L 398.227523 54.123965 
L 398.324929 54.034814 
L 398.487273 53.568 
L 398.487273 53.568 
" style="fill:none;stroke:#4169e1;stroke-linecap:square;stroke-width:2;"/>
   </g>
   <g id="patch_3">
    <path d="M 57.6 307.584 
L 57.6 41.472 
" style="fill:none;stroke:#000000;stroke-linecap:square;stroke-linejoin:miter;stroke-width:0.8;"/>
   </g>
   <g id="patch_4">
    <path d="M 414.72 307.584 
L 414.72 41.472 
" style="fill:none;stroke:#000000;stroke-linecap:square;stroke-linejoin:miter;stroke-width:0.8;"/>
   </g>
   <g id="patch_5">
    <path d="M 57.6 307.584 
L 414.72 307.584 
" style="fill:none;stroke:#000000;stroke-linecap:square;stroke-linejoin:miter;stroke-width:0.8;"/>
   </g>
   <g id="patch_6">
    <path d="M 57.6 41.472 
L 414.72 41.472 
" style="fill:none;stroke:#000000;stroke-linecap:square;stroke-linejoin:miter;stroke-width:0.8;"/>
   </g>
   <g id="text_18">
    <!-- Komulativní histogram hodnot indikátoru HbI (po odstranění outlierů) -->
    <g transform="translate(28.228125 25.472)scale(0.12 -0.12)">
     <defs>
      <path d="M 31 75.875 
Q 24.46875 64.65625 21.28125 53.65625 
Q 18.109375 42.671875 18.109375 31.390625 
Q 18.109375 20.125 21.3125 9.0625 
Q 24.515625 -2 31 -13.1875 
L 23.1875 -13.1875 
Q 15.875 -1.703125 12.234375 9.375 
Q 8.59375 20.453125 8.59375 31.390625 
Q 8.59375 42.28125 12.203125 53.3125 
Q 15.828125 64.359375 23.1875 75.875 
z
" id="DejaVuSans-40"/>
      <path d="M 18.109375 8.203125 
L 18.109375 -20.796875 
L 9.078125 -20.796875 
L 9.078125 54.6875 
L 18.109375 54.6875 
L 18.109375 46.390625 
Q 20.953125 51.265625 25.265625 53.625 
Q 29.59375 56 35.59375 56 
Q 45.5625 56 51.78125 48.09375 
Q 58.015625 40.1875 58.015625 27.296875 
Q 58.015625 14.40625 51.78125 6.484375 
Q 45.5625 -1.421875 35.59375 -1.421875 
Q 29.59375 -1.421875 25.265625 0.953125 
Q 20.953125 3.328125 18.109375 8.203125 
z
M 48.6875 27.296875 
Q 48.6875 37.203125 44.609375 42.84375 
Q 40.53125 48.484375 33.40625 48.484375 
Q 26.265625 48.484375 22.1875 42.84375 
Q 18.109375 37.203125 18.109375 27.296875 
Q 18.109375 17.390625 22.1875 11.75 
Q 26.265625 6.109375 33.40625 6.109375 
Q 40.53125 6.109375 44.609375 11.75 
Q 48.6875 17.390625 48.6875 27.296875 
z
" id="DejaVuSans-112"/>
      <path d="M 56.203125 29.59375 
L 56.203125 25.203125 
L 14.890625 25.203125 
Q 15.484375 15.921875 20.484375 11.0625 
Q 25.484375 6.203125 34.421875 6.203125 
Q 39.59375 6.203125 44.453125 7.46875 
Q 49.3125 8.734375 54.109375 11.28125 
L 54.109375 2.78125 
Q 49.265625 0.734375 44.1875 -0.34375 
Q 39.109375 -1.421875 33.890625 -1.421875 
Q 20.796875 -1.421875 13.15625 6.1875 
Q 5.515625 13.8125 5.515625 26.8125 
Q 5.515625 40.234375 12.765625 48.109375 
Q 20.015625 56 32.328125 56 
Q 43.359375 56 49.78125 48.890625 
Q 56.203125 41.796875 56.203125 29.59375 
z
M 47.21875 32.234375 
Q 47.125 39.59375 43.09375 43.984375 
Q 39.0625 48.390625 32.421875 48.390625 
Q 24.90625 48.390625 20.390625 44.140625 
Q 15.875 39.890625 15.1875 32.171875 
z
M 28.640625 61.625 
L 16.671875 79.984375 
L 23.46875 79.984375 
L 32.25 68.015625 
L 41.046875 79.984375 
L 47.828125 79.984375 
L 35.859375 61.625 
z
" id="DejaVuSans-283"/>
      <path d="M 56.203125 29.59375 
L 56.203125 25.203125 
L 14.890625 25.203125 
Q 15.484375 15.921875 20.484375 11.0625 
Q 25.484375 6.203125 34.421875 6.203125 
Q 39.59375 6.203125 44.453125 7.46875 
Q 49.3125 8.734375 54.109375 11.28125 
L 54.109375 2.78125 
Q 49.265625 0.734375 44.1875 -0.34375 
Q 39.109375 -1.421875 33.890625 -1.421875 
Q 20.796875 -1.421875 13.15625 6.1875 
Q 5.515625 13.8125 5.515625 26.8125 
Q 5.515625 40.234375 12.765625 48.109375 
Q 20.015625 56 32.328125 56 
Q 43.359375 56 49.78125 48.890625 
Q 56.203125 41.796875 56.203125 29.59375 
z
M 47.21875 32.234375 
Q 47.125 39.59375 43.09375 43.984375 
Q 39.0625 48.390625 32.421875 48.390625 
Q 24.90625 48.390625 20.390625 44.140625 
Q 15.875 39.890625 15.1875 32.171875 
z
" id="DejaVuSans-101"/>
      <path d="M 8.5 21.578125 
L 8.5 54.6875 
L 17.484375 54.6875 
L 17.484375 21.921875 
Q 17.484375 14.15625 20.5 10.265625 
Q 23.53125 6.390625 29.59375 6.390625 
Q 36.859375 6.390625 41.078125 11.03125 
Q 45.3125 15.671875 45.3125 23.6875 
L 45.3125 54.6875 
L 54.296875 54.6875 
L 54.296875 0 
L 45.3125 0 
L 45.3125 8.40625 
Q 42.046875 3.421875 37.71875 1 
Q 33.40625 -1.421875 27.6875 -1.421875 
Q 18.265625 -1.421875 13.375 4.4375 
Q 8.5 10.296875 8.5 21.578125 
z
M 31.109375 56 
z
M 38.421875 71.421875 
Q 38.421875 74.484375 36.265625 76.625 
Q 34.125 78.78125 31 78.78125 
Q 27.828125 78.78125 25.703125 76.65625 
Q 23.578125 74.546875 23.578125 71.421875 
Q 23.578125 68.234375 25.703125 66.109375 
Q 27.828125 64 31 64 
Q 34.125 64 36.265625 66.140625 
Q 38.421875 68.296875 38.421875 71.421875 
z
M 44.375 71.421875 
Q 44.375 65.796875 40.484375 61.890625 
Q 36.609375 57.984375 31 57.984375 
Q 25.390625 57.984375 21.5 61.890625 
Q 17.625 65.796875 17.625 71.421875 
Q 17.625 77.03125 21.5 80.90625 
Q 25.390625 84.796875 31 84.796875 
Q 36.609375 84.796875 40.484375 80.90625 
Q 44.375 77.03125 44.375 71.421875 
z
" id="DejaVuSans-367"/>
      <path d="M 8.015625 75.875 
L 15.828125 75.875 
Q 23.140625 64.359375 26.78125 53.3125 
Q 30.421875 42.28125 30.421875 31.390625 
Q 30.421875 20.453125 26.78125 9.375 
Q 23.140625 -1.703125 15.828125 -13.1875 
L 8.015625 -13.1875 
Q 14.5 -2 17.703125 9.0625 
Q 20.90625 20.125 20.90625 31.390625 
Q 20.90625 42.671875 17.703125 53.65625 
Q 14.5 64.65625 8.015625 75.875 
z
" id="DejaVuSans-41"/>
     </defs>
     <use xlink:href="#DejaVuSans-75"/>
     <use x="60.576172" xlink:href="#DejaVuSans-111"/>
     <use x="121.757812" xlink:href="#DejaVuSans-109"/>
     <use x="219.169922" xlink:href="#DejaVuSans-117"/>
     <use x="282.548828" xlink:href="#DejaVuSans-108"/>
     <use x="310.332031" xlink:href="#DejaVuSans-97"/>
     <use x="371.611328" xlink:href="#DejaVuSans-116"/>
     <use x="410.820312" xlink:href="#DejaVuSans-105"/>
     <use x="438.603516" xlink:href="#DejaVuSans-118"/>
     <use x="497.783203" xlink:href="#DejaVuSans-110"/>
     <use x="561.162109" xlink:href="#DejaVuSans-237"/>
     <use x="588.945312" xlink:href="#DejaVuSans-32"/>
     <use x="620.732422" xlink:href="#DejaVuSans-104"/>
     <use x="684.111328" xlink:href="#DejaVuSans-105"/>
     <use x="711.894531" xlink:href="#DejaVuSans-115"/>
     <use x="763.994141" xlink:href="#DejaVuSans-116"/>
     <use x="803.203125" xlink:href="#DejaVuSans-111"/>
     <use x="864.384766" xlink:href="#DejaVuSans-103"/>
     <use x="927.861328" xlink:href="#DejaVuSans-114"/>
     <use x="968.974609" xlink:href="#DejaVuSans-97"/>
     <use x="1030.253906" xlink:href="#DejaVuSans-109"/>
     <use x="1127.666016" xlink:href="#DejaVuSans-32"/>
     <use x="1159.453125" xlink:href="#DejaVuSans-104"/>
     <use x="1222.832031" xlink:href="#DejaVuSans-111"/>
     <use x="1284.013672" xlink:href="#DejaVuSans-100"/>
     <use x="1347.490234" xlink:href="#DejaVuSans-110"/>
     <use x="1410.869141" xlink:href="#DejaVuSans-111"/>
     <use x="1472.050781" xlink:href="#DejaVuSans-116"/>
     <use x="1511.259766" xlink:href="#DejaVuSans-32"/>
     <use x="1543.046875" xlink:href="#DejaVuSans-105"/>
     <use x="1570.830078" xlink:href="#DejaVuSans-110"/>
     <use x="1634.208984" xlink:href="#DejaVuSans-100"/>
     <use x="1697.685547" xlink:href="#DejaVuSans-105"/>
     <use x="1725.46875" xlink:href="#DejaVuSans-107"/>
     <use x="1781.628906" xlink:href="#DejaVuSans-225"/>
     <use x="1842.908203" xlink:href="#DejaVuSans-116"/>
     <use x="1882.117188" xlink:href="#DejaVuSans-111"/>
     <use x="1943.298828" xlink:href="#DejaVuSans-114"/>
     <use x="1984.412109" xlink:href="#DejaVuSans-117"/>
     <use x="2047.791016" xlink:href="#DejaVuSans-32"/>
     <use x="2079.578125" xlink:href="#DejaVuSans-72"/>
     <use x="2154.773438" xlink:href="#DejaVuSans-98"/>
     <use x="2218.25" xlink:href="#DejaVuSans-73"/>
     <use x="2247.742188" xlink:href="#DejaVuSans-32"/>
     <use x="2279.529297" xlink:href="#DejaVuSans-40"/>
     <use x="2318.542969" xlink:href="#DejaVuSans-112"/>
     <use x="2382.019531" xlink:href="#DejaVuSans-111"/>
     <use x="2443.201172" xlink:href="#DejaVuSans-32"/>
     <use x="2474.988281" xlink:href="#DejaVuSans-111"/>
     <use x="2536.169922" xlink:href="#DejaVuSans-100"/>
     <use x="2599.646484" xlink:href="#DejaVuSans-115"/>
     <use x="2651.746094" xlink:href="#DejaVuSans-116"/>
     <use x="2690.955078" xlink:href="#DejaVuSans-114"/>
     <use x="2732.068359" xlink:href="#DejaVuSans-97"/>
     <use x="2793.347656" xlink:href="#DejaVuSans-110"/>
     <use x="2856.726562" xlink:href="#DejaVuSans-283"/>
     <use x="2918.25" xlink:href="#DejaVuSans-110"/>
     <use x="2981.628906" xlink:href="#DejaVuSans-237"/>
     <use x="3009.412109" xlink:href="#DejaVuSans-32"/>
     <use x="3041.199219" xlink:href="#DejaVuSans-111"/>
     <use x="3102.380859" xlink:href="#DejaVuSans-117"/>
     <use x="3165.759766" xlink:href="#DejaVuSans-116"/>
     <use x="3204.96875" xlink:href="#DejaVuSans-108"/>
     <use x="3232.751953" xlink:href="#DejaVuSans-105"/>
     <use x="3260.535156" xlink:href="#DejaVuSans-101"/>
     <use x="3322.058594" xlink:href="#DejaVuSans-114"/>
     <use x="3363.171875" xlink:href="#DejaVuSans-367"/>
     <use x="3426.550781" xlink:href="#DejaVuSans-41"/>
    </g>
   </g>
   <g id="legend_1">
    <g id="patch_7">
     <path d="M 437.576 64.150125 
L 514.00725 64.150125 
L 514.00725 46.472 
L 437.576 46.472 
z
" style="fill:#ffffff;stroke:#000000;stroke-linejoin:miter;"/>
    </g>
    <g id="line2d_81">
     <path d="M 441.576 54.570438 
L 461.576 54.570438 
" style="fill:none;stroke:#4169e1;stroke-linecap:square;stroke-width:2;"/>
    </g>
    <g id="line2d_82"/>
    <g id="text_19">
     <!-- CDF HbI -->
     <g transform="translate(469.576 58.070438)scale(0.1 -0.1)">
      <defs>
       <path d="M 64.40625 67.28125 
L 64.40625 56.890625 
Q 59.421875 61.53125 53.78125 63.8125 
Q 48.140625 66.109375 41.796875 66.109375 
Q 29.296875 66.109375 22.65625 58.46875 
Q 16.015625 50.828125 16.015625 36.375 
Q 16.015625 21.96875 22.65625 14.328125 
Q 29.296875 6.6875 41.796875 6.6875 
Q 48.140625 6.6875 53.78125 8.984375 
Q 59.421875 11.28125 64.40625 15.921875 
L 64.40625 5.609375 
Q 59.234375 2.09375 53.4375 0.328125 
Q 47.65625 -1.421875 41.21875 -1.421875 
Q 24.65625 -1.421875 15.125 8.703125 
Q 5.609375 18.84375 5.609375 36.375 
Q 5.609375 53.953125 15.125 64.078125 
Q 24.65625 74.21875 41.21875 74.21875 
Q 47.75 74.21875 53.53125 72.484375 
Q 59.328125 70.75 64.40625 67.28125 
z
" id="DejaVuSans-67"/>
       <path d="M 19.671875 64.796875 
L 19.671875 8.109375 
L 31.59375 8.109375 
Q 46.6875 8.109375 53.6875 14.9375 
Q 60.6875 21.78125 60.6875 36.53125 
Q 60.6875 51.171875 53.6875 57.984375 
Q 46.6875 64.796875 31.59375 64.796875 
z
M 9.8125 72.90625 
L 30.078125 72.90625 
Q 51.265625 72.90625 61.171875 64.09375 
Q 71.09375 55.28125 71.09375 36.53125 
Q 71.09375 17.671875 61.125 8.828125 
Q 51.171875 0 30.078125 0 
L 9.8125 0 
z
" id="DejaVuSans-68"/>
       <path d="M 9.8125 72.90625 
L 51.703125 72.90625 
L 51.703125 64.59375 
L 19.671875 64.59375 
L 19.671875 43.109375 
L 48.578125 43.109375 
L 48.578125 34.8125 
L 19.671875 34.8125 
L 19.671875 0 
L 9.8125 0 
z
" id="DejaVuSans-70"/>
      </defs>
      <use xlink:href="#DejaVuSans-67"/>
      <use x="69.824219" xlink:href="#DejaVuSans-68"/>
      <use x="146.826172" xlink:href="#DejaVuSans-70"/>
      <use x="204.345703" xlink:href="#DejaVuSans-32"/>
      <use x="236.132812" xlink:href="#DejaVuSans-72"/>
      <use x="311.328125" xlink:href="#DejaVuSans-98"/>
      <use x="374.804688" xlink:href="#DejaVuSans-73"/>
     </g>
    </g>
   </g>
  </g>
 </g>
 <defs>
  <clipPath id="p56ff44ac9b">
   <rect height="266.112" width="357.12" x="57.6" y="41.472"/>
  </clipPath>
 </defs>
</svg>
