<?xml version="1.0" encoding="utf-8" standalone="no"?>
<!DOCTYPE svg PUBLIC "-//W3C//DTD SVG 1.1//EN"
  "http://www.w3.org/Graphics/SVG/1.1/DTD/svg11.dtd">
<!-- Created with matplotlib (https://matplotlib.org/) -->
<svg height="345.6pt" version="1.1" viewBox="0 0 460.8 345.6" width="460.8pt" xmlns="http://www.w3.org/2000/svg" xmlns:xlink="http://www.w3.org/1999/xlink">
 <metadata>
  <rdf:RDF xmlns:cc="http://creativecommons.org/ns#" xmlns:dc="http://purl.org/dc/elements/1.1/" xmlns:rdf="http://www.w3.org/1999/02/22-rdf-syntax-ns#">
   <cc:Work>
    <dc:type rdf:resource="http://purl.org/dc/dcmitype/StillImage"/>
    <dc:date>2024-06-26T21:54:04.565272</dc:date>
    <dc:format>image/svg+xml</dc:format>
    <dc:creator>
     <cc:Agent>
      <dc:title>Matplotlib v3.3.4, https://matplotlib.org/</dc:title>
     </cc:Agent>
    </dc:creator>
   </cc:Work>
  </rdf:RDF>
 </metadata>
 <defs>
  <style type="text/css">*{stroke-linecap:butt;stroke-linejoin:round;}</style>
 </defs>
 <g id="figure_1">
  <g id="patch_1">
   <path d="M 0 345.6 
L 460.8 345.6 
L 460.8 0 
L 0 0 
z
" style="fill:#ffffff;"/>
  </g>
  <g id="axes_1">
   <g id="patch_2">
    <path d="M 57.6 307.584 
L 414.72 307.584 
L 414.72 41.472 
L 57.6 41.472 
z
" style="fill:#ffffff;"/>
   </g>
   <g id="matplotlib.axis_1">
    <g id="xtick_1">
     <g id="line2d_1">
      <path clip-path="url(#p7188596947)" d="M 89.664827 307.584 
L 89.664827 41.472 
" style="fill:none;stroke:#b0b0b0;stroke-dasharray:1.85,0.8;stroke-dashoffset:0;stroke-width:0.5;"/>
     </g>
     <g id="line2d_2">
      <defs>
       <path d="M 0 3.5 
L 0 -3.5 
" id="m25988d698c" style="stroke:#000000;stroke-width:0.8;"/>
      </defs>
      <g>
       <use style="stroke:#000000;stroke-width:0.8;" x="89.664827" xlink:href="#m25988d698c" y="307.584"/>
      </g>
     </g>
     <g id="text_1">
      <!-- $\mathdefault{−750}$ -->
      <g transform="translate(78.664827 320.66275)scale(0.08 -0.08)">
       <defs>
        <path d="M 10.59375 35.5 
L 73.1875 35.5 
L 73.1875 27.203125 
L 10.59375 27.203125 
z
" id="DejaVuSans-8722"/>
        <path d="M 8.203125 72.90625 
L 55.078125 72.90625 
L 55.078125 68.703125 
L 28.609375 0 
L 18.3125 0 
L 43.21875 64.59375 
L 8.203125 64.59375 
z
" id="DejaVuSans-55"/>
        <path d="M 10.796875 72.90625 
L 49.515625 72.90625 
L 49.515625 64.59375 
L 19.828125 64.59375 
L 19.828125 46.734375 
Q 21.96875 47.46875 24.109375 47.828125 
Q 26.265625 48.1875 28.421875 48.1875 
Q 40.625 48.1875 47.75 41.5 
Q 54.890625 34.8125 54.890625 23.390625 
Q 54.890625 11.625 47.5625 5.09375 
Q 40.234375 -1.421875 26.90625 -1.421875 
Q 22.3125 -1.421875 17.546875 -0.640625 
Q 12.796875 0.140625 7.71875 1.703125 
L 7.71875 11.625 
Q 12.109375 9.234375 16.796875 8.0625 
Q 21.484375 6.890625 26.703125 6.890625 
Q 35.15625 6.890625 40.078125 11.328125 
Q 45.015625 15.765625 45.015625 23.390625 
Q 45.015625 31 40.078125 35.4375 
Q 35.15625 39.890625 26.703125 39.890625 
Q 22.75 39.890625 18.8125 39.015625 
Q 14.890625 38.140625 10.796875 36.28125 
z
" id="DejaVuSans-53"/>
        <path d="M 31.78125 66.40625 
Q 24.171875 66.40625 20.328125 58.90625 
Q 16.5 51.421875 16.5 36.375 
Q 16.5 21.390625 20.328125 13.890625 
Q 24.171875 6.390625 31.78125 6.390625 
Q 39.453125 6.390625 43.28125 13.890625 
Q 47.125 21.390625 47.125 36.375 
Q 47.125 51.421875 43.28125 58.90625 
Q 39.453125 66.40625 31.78125 66.40625 
z
M 31.78125 74.21875 
Q 44.046875 74.21875 50.515625 64.515625 
Q 56.984375 54.828125 56.984375 36.375 
Q 56.984375 17.96875 50.515625 8.265625 
Q 44.046875 -1.421875 31.78125 -1.421875 
Q 19.53125 -1.421875 13.0625 8.265625 
Q 6.59375 17.96875 6.59375 36.375 
Q 6.59375 54.828125 13.0625 64.515625 
Q 19.53125 74.21875 31.78125 74.21875 
z
" id="DejaVuSans-48"/>
       </defs>
       <use transform="translate(0 0.78125)" xlink:href="#DejaVuSans-8722"/>
       <use transform="translate(83.789062 0.78125)" xlink:href="#DejaVuSans-55"/>
       <use transform="translate(147.412109 0.78125)" xlink:href="#DejaVuSans-53"/>
       <use transform="translate(211.035156 0.78125)" xlink:href="#DejaVuSans-48"/>
      </g>
     </g>
    </g>
    <g id="xtick_2">
     <g id="line2d_3">
      <path clip-path="url(#p7188596947)" d="M 138.428932 307.584 
L 138.428932 41.472 
" style="fill:none;stroke:#b0b0b0;stroke-dasharray:1.85,0.8;stroke-dashoffset:0;stroke-width:0.5;"/>
     </g>
     <g id="line2d_4">
      <g>
       <use style="stroke:#000000;stroke-width:0.8;" x="138.428932" xlink:href="#m25988d698c" y="307.584"/>
      </g>
     </g>
     <g id="text_2">
      <!-- $\mathdefault{−500}$ -->
      <g transform="translate(127.428932 320.66275)scale(0.08 -0.08)">
       <use transform="translate(0 0.78125)" xlink:href="#DejaVuSans-8722"/>
       <use transform="translate(83.789062 0.78125)" xlink:href="#DejaVuSans-53"/>
       <use transform="translate(147.412109 0.78125)" xlink:href="#DejaVuSans-48"/>
       <use transform="translate(211.035156 0.78125)" xlink:href="#DejaVuSans-48"/>
      </g>
     </g>
    </g>
    <g id="xtick_3">
     <g id="line2d_5">
      <path clip-path="url(#p7188596947)" d="M 187.193037 307.584 
L 187.193037 41.472 
" style="fill:none;stroke:#b0b0b0;stroke-dasharray:1.85,0.8;stroke-dashoffset:0;stroke-width:0.5;"/>
     </g>
     <g id="line2d_6">
      <g>
       <use style="stroke:#000000;stroke-width:0.8;" x="187.193037" xlink:href="#m25988d698c" y="307.584"/>
      </g>
     </g>
     <g id="text_3">
      <!-- $\mathdefault{−250}$ -->
      <g transform="translate(176.193037 320.66275)scale(0.08 -0.08)">
       <defs>
        <path d="M 19.1875 8.296875 
L 53.609375 8.296875 
L 53.609375 0 
L 7.328125 0 
L 7.328125 8.296875 
Q 12.9375 14.109375 22.625 23.890625 
Q 32.328125 33.6875 34.8125 36.53125 
Q 39.546875 41.84375 41.421875 45.53125 
Q 43.3125 49.21875 43.3125 52.78125 
Q 43.3125 58.59375 39.234375 62.25 
Q 35.15625 65.921875 28.609375 65.921875 
Q 23.96875 65.921875 18.8125 64.3125 
Q 13.671875 62.703125 7.8125 59.421875 
L 7.8125 69.390625 
Q 13.765625 71.78125 18.9375 73 
Q 24.125 74.21875 28.421875 74.21875 
Q 39.75 74.21875 46.484375 68.546875 
Q 53.21875 62.890625 53.21875 53.421875 
Q 53.21875 48.921875 51.53125 44.890625 
Q 49.859375 40.875 45.40625 35.40625 
Q 44.1875 33.984375 37.640625 27.21875 
Q 31.109375 20.453125 19.1875 8.296875 
z
" id="DejaVuSans-50"/>
       </defs>
       <use transform="translate(0 0.78125)" xlink:href="#DejaVuSans-8722"/>
       <use transform="translate(83.789062 0.78125)" xlink:href="#DejaVuSans-50"/>
       <use transform="translate(147.412109 0.78125)" xlink:href="#DejaVuSans-53"/>
       <use transform="translate(211.035156 0.78125)" xlink:href="#DejaVuSans-48"/>
      </g>
     </g>
    </g>
    <g id="xtick_4">
     <g id="line2d_7">
      <path clip-path="url(#p7188596947)" d="M 235.957141 307.584 
L 235.957141 41.472 
" style="fill:none;stroke:#b0b0b0;stroke-dasharray:1.85,0.8;stroke-dashoffset:0;stroke-width:0.5;"/>
     </g>
     <g id="line2d_8">
      <g>
       <use style="stroke:#000000;stroke-width:0.8;" x="235.957141" xlink:href="#m25988d698c" y="307.584"/>
      </g>
     </g>
     <g id="text_4">
      <!-- $\mathdefault{0}$ -->
      <g transform="translate(233.397141 320.66275)scale(0.08 -0.08)">
       <use transform="translate(0 0.78125)" xlink:href="#DejaVuSans-48"/>
      </g>
     </g>
    </g>
    <g id="xtick_5">
     <g id="line2d_9">
      <path clip-path="url(#p7188596947)" d="M 284.721246 307.584 
L 284.721246 41.472 
" style="fill:none;stroke:#b0b0b0;stroke-dasharray:1.85,0.8;stroke-dashoffset:0;stroke-width:0.5;"/>
     </g>
     <g id="line2d_10">
      <g>
       <use style="stroke:#000000;stroke-width:0.8;" x="284.721246" xlink:href="#m25988d698c" y="307.584"/>
      </g>
     </g>
     <g id="text_5">
      <!-- $\mathdefault{250}$ -->
      <g transform="translate(277.081246 320.66275)scale(0.08 -0.08)">
       <use transform="translate(0 0.78125)" xlink:href="#DejaVuSans-50"/>
       <use transform="translate(63.623047 0.78125)" xlink:href="#DejaVuSans-53"/>
       <use transform="translate(127.246094 0.78125)" xlink:href="#DejaVuSans-48"/>
      </g>
     </g>
    </g>
    <g id="xtick_6">
     <g id="line2d_11">
      <path clip-path="url(#p7188596947)" d="M 333.485351 307.584 
L 333.485351 41.472 
" style="fill:none;stroke:#b0b0b0;stroke-dasharray:1.85,0.8;stroke-dashoffset:0;stroke-width:0.5;"/>
     </g>
     <g id="line2d_12">
      <g>
       <use style="stroke:#000000;stroke-width:0.8;" x="333.485351" xlink:href="#m25988d698c" y="307.584"/>
      </g>
     </g>
     <g id="text_6">
      <!-- $\mathdefault{500}$ -->
      <g transform="translate(325.845351 320.66275)scale(0.08 -0.08)">
       <use transform="translate(0 0.78125)" xlink:href="#DejaVuSans-53"/>
       <use transform="translate(63.623047 0.78125)" xlink:href="#DejaVuSans-48"/>
       <use transform="translate(127.246094 0.78125)" xlink:href="#DejaVuSans-48"/>
      </g>
     </g>
    </g>
    <g id="xtick_7">
     <g id="line2d_13">
      <path clip-path="url(#p7188596947)" d="M 382.249456 307.584 
L 382.249456 41.472 
" style="fill:none;stroke:#b0b0b0;stroke-dasharray:1.85,0.8;stroke-dashoffset:0;stroke-width:0.5;"/>
     </g>
     <g id="line2d_14">
      <g>
       <use style="stroke:#000000;stroke-width:0.8;" x="382.249456" xlink:href="#m25988d698c" y="307.584"/>
      </g>
     </g>
     <g id="text_7">
      <!-- $\mathdefault{750}$ -->
      <g transform="translate(374.609456 320.66275)scale(0.08 -0.08)">
       <use transform="translate(0 0.78125)" xlink:href="#DejaVuSans-55"/>
       <use transform="translate(63.623047 0.78125)" xlink:href="#DejaVuSans-53"/>
       <use transform="translate(127.246094 0.78125)" xlink:href="#DejaVuSans-48"/>
      </g>
     </g>
    </g>
    <g id="xtick_8">
     <g id="line2d_15">
      <defs>
       <path d="M 0 2.5 
L 0 -2.5 
" id="m2d327fda47" style="stroke:#000000;stroke-width:0.6;"/>
      </defs>
      <g>
       <use style="stroke:#000000;stroke-width:0.6;" x="60.406364" xlink:href="#m2d327fda47" y="307.584"/>
      </g>
     </g>
    </g>
    <g id="xtick_9">
     <g id="line2d_16">
      <g>
       <use style="stroke:#000000;stroke-width:0.6;" x="70.159185" xlink:href="#m2d327fda47" y="307.584"/>
      </g>
     </g>
    </g>
    <g id="xtick_10">
     <g id="line2d_17">
      <g>
       <use style="stroke:#000000;stroke-width:0.6;" x="79.912006" xlink:href="#m2d327fda47" y="307.584"/>
      </g>
     </g>
    </g>
    <g id="xtick_11">
     <g id="line2d_18">
      <g>
       <use style="stroke:#000000;stroke-width:0.6;" x="99.417648" xlink:href="#m2d327fda47" y="307.584"/>
      </g>
     </g>
    </g>
    <g id="xtick_12">
     <g id="line2d_19">
      <g>
       <use style="stroke:#000000;stroke-width:0.6;" x="109.170469" xlink:href="#m2d327fda47" y="307.584"/>
      </g>
     </g>
    </g>
    <g id="xtick_13">
     <g id="line2d_20">
      <g>
       <use style="stroke:#000000;stroke-width:0.6;" x="118.92329" xlink:href="#m2d327fda47" y="307.584"/>
      </g>
     </g>
    </g>
    <g id="xtick_14">
     <g id="line2d_21">
      <g>
       <use style="stroke:#000000;stroke-width:0.6;" x="128.676111" xlink:href="#m2d327fda47" y="307.584"/>
      </g>
     </g>
    </g>
    <g id="xtick_15">
     <g id="line2d_22">
      <g>
       <use style="stroke:#000000;stroke-width:0.6;" x="148.181753" xlink:href="#m2d327fda47" y="307.584"/>
      </g>
     </g>
    </g>
    <g id="xtick_16">
     <g id="line2d_23">
      <g>
       <use style="stroke:#000000;stroke-width:0.6;" x="157.934574" xlink:href="#m2d327fda47" y="307.584"/>
      </g>
     </g>
    </g>
    <g id="xtick_17">
     <g id="line2d_24">
      <g>
       <use style="stroke:#000000;stroke-width:0.6;" x="167.687395" xlink:href="#m2d327fda47" y="307.584"/>
      </g>
     </g>
    </g>
    <g id="xtick_18">
     <g id="line2d_25">
      <g>
       <use style="stroke:#000000;stroke-width:0.6;" x="177.440216" xlink:href="#m2d327fda47" y="307.584"/>
      </g>
     </g>
    </g>
    <g id="xtick_19">
     <g id="line2d_26">
      <g>
       <use style="stroke:#000000;stroke-width:0.6;" x="196.945857" xlink:href="#m2d327fda47" y="307.584"/>
      </g>
     </g>
    </g>
    <g id="xtick_20">
     <g id="line2d_27">
      <g>
       <use style="stroke:#000000;stroke-width:0.6;" x="206.698678" xlink:href="#m2d327fda47" y="307.584"/>
      </g>
     </g>
    </g>
    <g id="xtick_21">
     <g id="line2d_28">
      <g>
       <use style="stroke:#000000;stroke-width:0.6;" x="216.451499" xlink:href="#m2d327fda47" y="307.584"/>
      </g>
     </g>
    </g>
    <g id="xtick_22">
     <g id="line2d_29">
      <g>
       <use style="stroke:#000000;stroke-width:0.6;" x="226.20432" xlink:href="#m2d327fda47" y="307.584"/>
      </g>
     </g>
    </g>
    <g id="xtick_23">
     <g id="line2d_30">
      <g>
       <use style="stroke:#000000;stroke-width:0.6;" x="245.709962" xlink:href="#m2d327fda47" y="307.584"/>
      </g>
     </g>
    </g>
    <g id="xtick_24">
     <g id="line2d_31">
      <g>
       <use style="stroke:#000000;stroke-width:0.6;" x="255.462783" xlink:href="#m2d327fda47" y="307.584"/>
      </g>
     </g>
    </g>
    <g id="xtick_25">
     <g id="line2d_32">
      <g>
       <use style="stroke:#000000;stroke-width:0.6;" x="265.215604" xlink:href="#m2d327fda47" y="307.584"/>
      </g>
     </g>
    </g>
    <g id="xtick_26">
     <g id="line2d_33">
      <g>
       <use style="stroke:#000000;stroke-width:0.6;" x="274.968425" xlink:href="#m2d327fda47" y="307.584"/>
      </g>
     </g>
    </g>
    <g id="xtick_27">
     <g id="line2d_34">
      <g>
       <use style="stroke:#000000;stroke-width:0.6;" x="294.474067" xlink:href="#m2d327fda47" y="307.584"/>
      </g>
     </g>
    </g>
    <g id="xtick_28">
     <g id="line2d_35">
      <g>
       <use style="stroke:#000000;stroke-width:0.6;" x="304.226888" xlink:href="#m2d327fda47" y="307.584"/>
      </g>
     </g>
    </g>
    <g id="xtick_29">
     <g id="line2d_36">
      <g>
       <use style="stroke:#000000;stroke-width:0.6;" x="313.979709" xlink:href="#m2d327fda47" y="307.584"/>
      </g>
     </g>
    </g>
    <g id="xtick_30">
     <g id="line2d_37">
      <g>
       <use style="stroke:#000000;stroke-width:0.6;" x="323.73253" xlink:href="#m2d327fda47" y="307.584"/>
      </g>
     </g>
    </g>
    <g id="xtick_31">
     <g id="line2d_38">
      <g>
       <use style="stroke:#000000;stroke-width:0.6;" x="343.238172" xlink:href="#m2d327fda47" y="307.584"/>
      </g>
     </g>
    </g>
    <g id="xtick_32">
     <g id="line2d_39">
      <g>
       <use style="stroke:#000000;stroke-width:0.6;" x="352.990993" xlink:href="#m2d327fda47" y="307.584"/>
      </g>
     </g>
    </g>
    <g id="xtick_33">
     <g id="line2d_40">
      <g>
       <use style="stroke:#000000;stroke-width:0.6;" x="362.743814" xlink:href="#m2d327fda47" y="307.584"/>
      </g>
     </g>
    </g>
    <g id="xtick_34">
     <g id="line2d_41">
      <g>
       <use style="stroke:#000000;stroke-width:0.6;" x="372.496635" xlink:href="#m2d327fda47" y="307.584"/>
      </g>
     </g>
    </g>
    <g id="xtick_35">
     <g id="line2d_42">
      <g>
       <use style="stroke:#000000;stroke-width:0.6;" x="392.002277" xlink:href="#m2d327fda47" y="307.584"/>
      </g>
     </g>
    </g>
    <g id="xtick_36">
     <g id="line2d_43">
      <g>
       <use style="stroke:#000000;stroke-width:0.6;" x="401.755098" xlink:href="#m2d327fda47" y="307.584"/>
      </g>
     </g>
    </g>
    <g id="xtick_37">
     <g id="line2d_44">
      <g>
       <use style="stroke:#000000;stroke-width:0.6;" x="411.507919" xlink:href="#m2d327fda47" y="307.584"/>
      </g>
     </g>
    </g>
    <g id="text_8">
     <!-- Hodnota indikátoru LES -->
     <g transform="translate(177.379531 345.924937)scale(0.1 -0.1)">
      <defs>
       <path d="M 9.8125 72.90625 
L 19.671875 72.90625 
L 19.671875 43.015625 
L 55.515625 43.015625 
L 55.515625 72.90625 
L 65.375 72.90625 
L 65.375 0 
L 55.515625 0 
L 55.515625 34.71875 
L 19.671875 34.71875 
L 19.671875 0 
L 9.8125 0 
z
" id="DejaVuSans-72"/>
       <path d="M 30.609375 48.390625 
Q 23.390625 48.390625 19.1875 42.75 
Q 14.984375 37.109375 14.984375 27.296875 
Q 14.984375 17.484375 19.15625 11.84375 
Q 23.34375 6.203125 30.609375 6.203125 
Q 37.796875 6.203125 41.984375 11.859375 
Q 46.1875 17.53125 46.1875 27.296875 
Q 46.1875 37.015625 41.984375 42.703125 
Q 37.796875 48.390625 30.609375 48.390625 
z
M 30.609375 56 
Q 42.328125 56 49.015625 48.375 
Q 55.71875 40.765625 55.71875 27.296875 
Q 55.71875 13.875 49.015625 6.21875 
Q 42.328125 -1.421875 30.609375 -1.421875 
Q 18.84375 -1.421875 12.171875 6.21875 
Q 5.515625 13.875 5.515625 27.296875 
Q 5.515625 40.765625 12.171875 48.375 
Q 18.84375 56 30.609375 56 
z
" id="DejaVuSans-111"/>
       <path d="M 45.40625 46.390625 
L 45.40625 75.984375 
L 54.390625 75.984375 
L 54.390625 0 
L 45.40625 0 
L 45.40625 8.203125 
Q 42.578125 3.328125 38.25 0.953125 
Q 33.9375 -1.421875 27.875 -1.421875 
Q 17.96875 -1.421875 11.734375 6.484375 
Q 5.515625 14.40625 5.515625 27.296875 
Q 5.515625 40.1875 11.734375 48.09375 
Q 17.96875 56 27.875 56 
Q 33.9375 56 38.25 53.625 
Q 42.578125 51.265625 45.40625 46.390625 
z
M 14.796875 27.296875 
Q 14.796875 17.390625 18.875 11.75 
Q 22.953125 6.109375 30.078125 6.109375 
Q 37.203125 6.109375 41.296875 11.75 
Q 45.40625 17.390625 45.40625 27.296875 
Q 45.40625 37.203125 41.296875 42.84375 
Q 37.203125 48.484375 30.078125 48.484375 
Q 22.953125 48.484375 18.875 42.84375 
Q 14.796875 37.203125 14.796875 27.296875 
z
" id="DejaVuSans-100"/>
       <path d="M 54.890625 33.015625 
L 54.890625 0 
L 45.90625 0 
L 45.90625 32.71875 
Q 45.90625 40.484375 42.875 44.328125 
Q 39.84375 48.1875 33.796875 48.1875 
Q 26.515625 48.1875 22.3125 43.546875 
Q 18.109375 38.921875 18.109375 30.90625 
L 18.109375 0 
L 9.078125 0 
L 9.078125 54.6875 
L 18.109375 54.6875 
L 18.109375 46.1875 
Q 21.34375 51.125 25.703125 53.5625 
Q 30.078125 56 35.796875 56 
Q 45.21875 56 50.046875 50.171875 
Q 54.890625 44.34375 54.890625 33.015625 
z
" id="DejaVuSans-110"/>
       <path d="M 18.3125 70.21875 
L 18.3125 54.6875 
L 36.8125 54.6875 
L 36.8125 47.703125 
L 18.3125 47.703125 
L 18.3125 18.015625 
Q 18.3125 11.328125 20.140625 9.421875 
Q 21.96875 7.515625 27.59375 7.515625 
L 36.8125 7.515625 
L 36.8125 0 
L 27.59375 0 
Q 17.1875 0 13.234375 3.875 
Q 9.28125 7.765625 9.28125 18.015625 
L 9.28125 47.703125 
L 2.6875 47.703125 
L 2.6875 54.6875 
L 9.28125 54.6875 
L 9.28125 70.21875 
z
" id="DejaVuSans-116"/>
       <path d="M 34.28125 27.484375 
Q 23.390625 27.484375 19.1875 25 
Q 14.984375 22.515625 14.984375 16.5 
Q 14.984375 11.71875 18.140625 8.90625 
Q 21.296875 6.109375 26.703125 6.109375 
Q 34.1875 6.109375 38.703125 11.40625 
Q 43.21875 16.703125 43.21875 25.484375 
L 43.21875 27.484375 
z
M 52.203125 31.203125 
L 52.203125 0 
L 43.21875 0 
L 43.21875 8.296875 
Q 40.140625 3.328125 35.546875 0.953125 
Q 30.953125 -1.421875 24.3125 -1.421875 
Q 15.921875 -1.421875 10.953125 3.296875 
Q 6 8.015625 6 15.921875 
Q 6 25.140625 12.171875 29.828125 
Q 18.359375 34.515625 30.609375 34.515625 
L 43.21875 34.515625 
L 43.21875 35.40625 
Q 43.21875 41.609375 39.140625 45 
Q 35.0625 48.390625 27.6875 48.390625 
Q 23 48.390625 18.546875 47.265625 
Q 14.109375 46.140625 10.015625 43.890625 
L 10.015625 52.203125 
Q 14.9375 54.109375 19.578125 55.046875 
Q 24.21875 56 28.609375 56 
Q 40.484375 56 46.34375 49.84375 
Q 52.203125 43.703125 52.203125 31.203125 
z
" id="DejaVuSans-97"/>
       <path id="DejaVuSans-32"/>
       <path d="M 9.421875 54.6875 
L 18.40625 54.6875 
L 18.40625 0 
L 9.421875 0 
z
M 9.421875 75.984375 
L 18.40625 75.984375 
L 18.40625 64.59375 
L 9.421875 64.59375 
z
" id="DejaVuSans-105"/>
       <path d="M 9.078125 75.984375 
L 18.109375 75.984375 
L 18.109375 31.109375 
L 44.921875 54.6875 
L 56.390625 54.6875 
L 27.390625 29.109375 
L 57.625 0 
L 45.90625 0 
L 18.109375 26.703125 
L 18.109375 0 
L 9.078125 0 
z
" id="DejaVuSans-107"/>
       <path d="M 34.28125 27.484375 
Q 23.390625 27.484375 19.1875 25 
Q 14.984375 22.515625 14.984375 16.5 
Q 14.984375 11.71875 18.140625 8.90625 
Q 21.296875 6.109375 26.703125 6.109375 
Q 34.1875 6.109375 38.703125 11.40625 
Q 43.21875 16.703125 43.21875 25.484375 
L 43.21875 27.484375 
z
M 52.203125 31.203125 
L 52.203125 0 
L 43.21875 0 
L 43.21875 8.296875 
Q 40.140625 3.328125 35.546875 0.953125 
Q 30.953125 -1.421875 24.3125 -1.421875 
Q 15.921875 -1.421875 10.953125 3.296875 
Q 6 8.015625 6 15.921875 
Q 6 25.140625 12.171875 29.828125 
Q 18.359375 34.515625 30.609375 34.515625 
L 43.21875 34.515625 
L 43.21875 35.40625 
Q 43.21875 41.609375 39.140625 45 
Q 35.0625 48.390625 27.6875 48.390625 
Q 23 48.390625 18.546875 47.265625 
Q 14.109375 46.140625 10.015625 43.890625 
L 10.015625 52.203125 
Q 14.9375 54.109375 19.578125 55.046875 
Q 24.21875 56 28.609375 56 
Q 40.484375 56 46.34375 49.84375 
Q 52.203125 43.703125 52.203125 31.203125 
z
M 35.78125 79.984375 
L 45.5 79.984375 
L 29.59375 61.625 
L 22.109375 61.625 
z
" id="DejaVuSans-225"/>
       <path d="M 41.109375 46.296875 
Q 39.59375 47.171875 37.8125 47.578125 
Q 36.03125 48 33.890625 48 
Q 26.265625 48 22.1875 43.046875 
Q 18.109375 38.09375 18.109375 28.8125 
L 18.109375 0 
L 9.078125 0 
L 9.078125 54.6875 
L 18.109375 54.6875 
L 18.109375 46.1875 
Q 20.953125 51.171875 25.484375 53.578125 
Q 30.03125 56 36.53125 56 
Q 37.453125 56 38.578125 55.875 
Q 39.703125 55.765625 41.0625 55.515625 
z
" id="DejaVuSans-114"/>
       <path d="M 8.5 21.578125 
L 8.5 54.6875 
L 17.484375 54.6875 
L 17.484375 21.921875 
Q 17.484375 14.15625 20.5 10.265625 
Q 23.53125 6.390625 29.59375 6.390625 
Q 36.859375 6.390625 41.078125 11.03125 
Q 45.3125 15.671875 45.3125 23.6875 
L 45.3125 54.6875 
L 54.296875 54.6875 
L 54.296875 0 
L 45.3125 0 
L 45.3125 8.40625 
Q 42.046875 3.421875 37.71875 1 
Q 33.40625 -1.421875 27.6875 -1.421875 
Q 18.265625 -1.421875 13.375 4.4375 
Q 8.5 10.296875 8.5 21.578125 
z
M 31.109375 56 
z
" id="DejaVuSans-117"/>
       <path d="M 9.8125 72.90625 
L 19.671875 72.90625 
L 19.671875 8.296875 
L 55.171875 8.296875 
L 55.171875 0 
L 9.8125 0 
z
" id="DejaVuSans-76"/>
       <path d="M 9.8125 72.90625 
L 55.90625 72.90625 
L 55.90625 64.59375 
L 19.671875 64.59375 
L 19.671875 43.015625 
L 54.390625 43.015625 
L 54.390625 34.71875 
L 19.671875 34.71875 
L 19.671875 8.296875 
L 56.78125 8.296875 
L 56.78125 0 
L 9.8125 0 
z
" id="DejaVuSans-69"/>
       <path d="M 53.515625 70.515625 
L 53.515625 60.890625 
Q 47.90625 63.578125 42.921875 64.890625 
Q 37.9375 66.21875 33.296875 66.21875 
Q 25.25 66.21875 20.875 63.09375 
Q 16.5 59.96875 16.5 54.203125 
Q 16.5 49.359375 19.40625 46.890625 
Q 22.3125 44.4375 30.421875 42.921875 
L 36.375 41.703125 
Q 47.40625 39.59375 52.65625 34.296875 
Q 57.90625 29 57.90625 20.125 
Q 57.90625 9.515625 50.796875 4.046875 
Q 43.703125 -1.421875 29.984375 -1.421875 
Q 24.8125 -1.421875 18.96875 -0.25 
Q 13.140625 0.921875 6.890625 3.21875 
L 6.890625 13.375 
Q 12.890625 10.015625 18.65625 8.296875 
Q 24.421875 6.59375 29.984375 6.59375 
Q 38.421875 6.59375 43.015625 9.90625 
Q 47.609375 13.234375 47.609375 19.390625 
Q 47.609375 24.75 44.3125 27.78125 
Q 41.015625 30.8125 33.5 32.328125 
L 27.484375 33.5 
Q 16.453125 35.6875 11.515625 40.375 
Q 6.59375 45.0625 6.59375 53.421875 
Q 6.59375 63.09375 13.40625 68.65625 
Q 20.21875 74.21875 32.171875 74.21875 
Q 37.3125 74.21875 42.625 73.28125 
Q 47.953125 72.359375 53.515625 70.515625 
z
" id="DejaVuSans-83"/>
      </defs>
      <use xlink:href="#DejaVuSans-72"/>
      <use x="75.195312" xlink:href="#DejaVuSans-111"/>
      <use x="136.376953" xlink:href="#DejaVuSans-100"/>
      <use x="199.853516" xlink:href="#DejaVuSans-110"/>
      <use x="263.232422" xlink:href="#DejaVuSans-111"/>
      <use x="324.414062" xlink:href="#DejaVuSans-116"/>
      <use x="363.623047" xlink:href="#DejaVuSans-97"/>
      <use x="424.902344" xlink:href="#DejaVuSans-32"/>
      <use x="456.689453" xlink:href="#DejaVuSans-105"/>
      <use x="484.472656" xlink:href="#DejaVuSans-110"/>
      <use x="547.851562" xlink:href="#DejaVuSans-100"/>
      <use x="611.328125" xlink:href="#DejaVuSans-105"/>
      <use x="639.111328" xlink:href="#DejaVuSans-107"/>
      <use x="695.271484" xlink:href="#DejaVuSans-225"/>
      <use x="756.550781" xlink:href="#DejaVuSans-116"/>
      <use x="795.759766" xlink:href="#DejaVuSans-111"/>
      <use x="856.941406" xlink:href="#DejaVuSans-114"/>
      <use x="898.054688" xlink:href="#DejaVuSans-117"/>
      <use x="961.433594" xlink:href="#DejaVuSans-32"/>
      <use x="993.220703" xlink:href="#DejaVuSans-76"/>
      <use x="1048.933594" xlink:href="#DejaVuSans-69"/>
      <use x="1112.117188" xlink:href="#DejaVuSans-83"/>
     </g>
    </g>
   </g>
   <g id="matplotlib.axis_2">
    <g id="ytick_1">
     <g id="line2d_45">
      <path clip-path="url(#p7188596947)" d="M 57.6 295.488881 
L 414.72 295.488881 
" style="fill:none;stroke:#b0b0b0;stroke-dasharray:1.85,0.8;stroke-dashoffset:0;stroke-width:0.5;"/>
     </g>
     <g id="line2d_46">
      <defs>
       <path d="M 3.5 0 
L -3.5 -0 
" id="m11e3279d44" style="stroke:#000000;stroke-width:0.8;"/>
      </defs>
      <g>
       <use style="stroke:#000000;stroke-width:0.8;" x="57.6" xlink:href="#m11e3279d44" y="295.488881"/>
      </g>
     </g>
     <g id="text_9">
      <!-- $\mathdefault{0.0}$ -->
      <g transform="translate(37.8 298.528256)scale(0.08 -0.08)">
       <defs>
        <path d="M 10.6875 12.40625 
L 21 12.40625 
L 21 0 
L 10.6875 0 
z
" id="DejaVuSans-46"/>
       </defs>
       <use transform="translate(0 0.78125)" xlink:href="#DejaVuSans-48"/>
       <use transform="translate(63.623047 0.78125)" xlink:href="#DejaVuSans-46"/>
       <use transform="translate(95.410156 0.78125)" xlink:href="#DejaVuSans-48"/>
      </g>
     </g>
    </g>
    <g id="ytick_2">
     <g id="line2d_47">
      <path clip-path="url(#p7188596947)" d="M 57.6 261.598706 
L 414.72 261.598706 
" style="fill:none;stroke:#b0b0b0;stroke-dasharray:1.85,0.8;stroke-dashoffset:0;stroke-width:0.5;"/>
     </g>
     <g id="line2d_48">
      <g>
       <use style="stroke:#000000;stroke-width:0.8;" x="57.6" xlink:href="#m11e3279d44" y="261.598706"/>
      </g>
     </g>
     <g id="text_10">
      <!-- $\mathdefault{0.5}$ -->
      <g transform="translate(37.8 264.638081)scale(0.08 -0.08)">
       <use transform="translate(0 0.78125)" xlink:href="#DejaVuSans-48"/>
       <use transform="translate(63.623047 0.78125)" xlink:href="#DejaVuSans-46"/>
       <use transform="translate(95.410156 0.78125)" xlink:href="#DejaVuSans-53"/>
      </g>
     </g>
    </g>
    <g id="ytick_3">
     <g id="line2d_49">
      <path clip-path="url(#p7188596947)" d="M 57.6 227.708531 
L 414.72 227.708531 
" style="fill:none;stroke:#b0b0b0;stroke-dasharray:1.85,0.8;stroke-dashoffset:0;stroke-width:0.5;"/>
     </g>
     <g id="line2d_50">
      <g>
       <use style="stroke:#000000;stroke-width:0.8;" x="57.6" xlink:href="#m11e3279d44" y="227.708531"/>
      </g>
     </g>
     <g id="text_11">
      <!-- $\mathdefault{1.0}$ -->
      <g transform="translate(37.8 230.747906)scale(0.08 -0.08)">
       <defs>
        <path d="M 12.40625 8.296875 
L 28.515625 8.296875 
L 28.515625 63.921875 
L 10.984375 60.40625 
L 10.984375 69.390625 
L 28.421875 72.90625 
L 38.28125 72.90625 
L 38.28125 8.296875 
L 54.390625 8.296875 
L 54.390625 0 
L 12.40625 0 
z
" id="DejaVuSans-49"/>
       </defs>
       <use transform="translate(0 0.78125)" xlink:href="#DejaVuSans-49"/>
       <use transform="translate(63.623047 0.78125)" xlink:href="#DejaVuSans-46"/>
       <use transform="translate(95.410156 0.78125)" xlink:href="#DejaVuSans-48"/>
      </g>
     </g>
    </g>
    <g id="ytick_4">
     <g id="line2d_51">
      <path clip-path="url(#p7188596947)" d="M 57.6 193.818356 
L 414.72 193.818356 
" style="fill:none;stroke:#b0b0b0;stroke-dasharray:1.85,0.8;stroke-dashoffset:0;stroke-width:0.5;"/>
     </g>
     <g id="line2d_52">
      <g>
       <use style="stroke:#000000;stroke-width:0.8;" x="57.6" xlink:href="#m11e3279d44" y="193.818356"/>
      </g>
     </g>
     <g id="text_12">
      <!-- $\mathdefault{1.5}$ -->
      <g transform="translate(37.8 196.857731)scale(0.08 -0.08)">
       <use transform="translate(0 0.09375)" xlink:href="#DejaVuSans-49"/>
       <use transform="translate(63.623047 0.09375)" xlink:href="#DejaVuSans-46"/>
       <use transform="translate(95.410156 0.09375)" xlink:href="#DejaVuSans-53"/>
      </g>
     </g>
    </g>
    <g id="ytick_5">
     <g id="line2d_53">
      <path clip-path="url(#p7188596947)" d="M 57.6 159.92818 
L 414.72 159.92818 
" style="fill:none;stroke:#b0b0b0;stroke-dasharray:1.85,0.8;stroke-dashoffset:0;stroke-width:0.5;"/>
     </g>
     <g id="line2d_54">
      <g>
       <use style="stroke:#000000;stroke-width:0.8;" x="57.6" xlink:href="#m11e3279d44" y="159.92818"/>
      </g>
     </g>
     <g id="text_13">
      <!-- $\mathdefault{2.0}$ -->
      <g transform="translate(37.8 162.967555)scale(0.08 -0.08)">
       <use transform="translate(0 0.78125)" xlink:href="#DejaVuSans-50"/>
       <use transform="translate(63.623047 0.78125)" xlink:href="#DejaVuSans-46"/>
       <use transform="translate(95.410156 0.78125)" xlink:href="#DejaVuSans-48"/>
      </g>
     </g>
    </g>
    <g id="ytick_6">
     <g id="line2d_55">
      <path clip-path="url(#p7188596947)" d="M 57.6 126.038005 
L 414.72 126.038005 
" style="fill:none;stroke:#b0b0b0;stroke-dasharray:1.85,0.8;stroke-dashoffset:0;stroke-width:0.5;"/>
     </g>
     <g id="line2d_56">
      <g>
       <use style="stroke:#000000;stroke-width:0.8;" x="57.6" xlink:href="#m11e3279d44" y="126.038005"/>
      </g>
     </g>
     <g id="text_14">
      <!-- $\mathdefault{2.5}$ -->
      <g transform="translate(37.8 129.07738)scale(0.08 -0.08)">
       <use transform="translate(0 0.78125)" xlink:href="#DejaVuSans-50"/>
       <use transform="translate(63.623047 0.78125)" xlink:href="#DejaVuSans-46"/>
       <use transform="translate(95.410156 0.78125)" xlink:href="#DejaVuSans-53"/>
      </g>
     </g>
    </g>
    <g id="ytick_7">
     <g id="line2d_57">
      <path clip-path="url(#p7188596947)" d="M 57.6 92.14783 
L 414.72 92.14783 
" style="fill:none;stroke:#b0b0b0;stroke-dasharray:1.85,0.8;stroke-dashoffset:0;stroke-width:0.5;"/>
     </g>
     <g id="line2d_58">
      <g>
       <use style="stroke:#000000;stroke-width:0.8;" x="57.6" xlink:href="#m11e3279d44" y="92.14783"/>
      </g>
     </g>
     <g id="text_15">
      <!-- $\mathdefault{3.0}$ -->
      <g transform="translate(37.8 95.187205)scale(0.08 -0.08)">
       <defs>
        <path d="M 40.578125 39.3125 
Q 47.65625 37.796875 51.625 33 
Q 55.609375 28.21875 55.609375 21.1875 
Q 55.609375 10.40625 48.1875 4.484375 
Q 40.765625 -1.421875 27.09375 -1.421875 
Q 22.515625 -1.421875 17.65625 -0.515625 
Q 12.796875 0.390625 7.625 2.203125 
L 7.625 11.71875 
Q 11.71875 9.328125 16.59375 8.109375 
Q 21.484375 6.890625 26.8125 6.890625 
Q 36.078125 6.890625 40.9375 10.546875 
Q 45.796875 14.203125 45.796875 21.1875 
Q 45.796875 27.640625 41.28125 31.265625 
Q 36.765625 34.90625 28.71875 34.90625 
L 20.21875 34.90625 
L 20.21875 43.015625 
L 29.109375 43.015625 
Q 36.375 43.015625 40.234375 45.921875 
Q 44.09375 48.828125 44.09375 54.296875 
Q 44.09375 59.90625 40.109375 62.90625 
Q 36.140625 65.921875 28.71875 65.921875 
Q 24.65625 65.921875 20.015625 65.03125 
Q 15.375 64.15625 9.8125 62.3125 
L 9.8125 71.09375 
Q 15.4375 72.65625 20.34375 73.4375 
Q 25.25 74.21875 29.59375 74.21875 
Q 40.828125 74.21875 47.359375 69.109375 
Q 53.90625 64.015625 53.90625 55.328125 
Q 53.90625 49.265625 50.4375 45.09375 
Q 46.96875 40.921875 40.578125 39.3125 
z
" id="DejaVuSans-51"/>
       </defs>
       <use transform="translate(0 0.78125)" xlink:href="#DejaVuSans-51"/>
       <use transform="translate(63.623047 0.78125)" xlink:href="#DejaVuSans-46"/>
       <use transform="translate(95.410156 0.78125)" xlink:href="#DejaVuSans-48"/>
      </g>
     </g>
    </g>
    <g id="ytick_8">
     <g id="line2d_59">
      <path clip-path="url(#p7188596947)" d="M 57.6 58.257655 
L 414.72 58.257655 
" style="fill:none;stroke:#b0b0b0;stroke-dasharray:1.85,0.8;stroke-dashoffset:0;stroke-width:0.5;"/>
     </g>
     <g id="line2d_60">
      <g>
       <use style="stroke:#000000;stroke-width:0.8;" x="57.6" xlink:href="#m11e3279d44" y="58.257655"/>
      </g>
     </g>
     <g id="text_16">
      <!-- $\mathdefault{3.5}$ -->
      <g transform="translate(37.8 61.29703)scale(0.08 -0.08)">
       <use transform="translate(0 0.78125)" xlink:href="#DejaVuSans-51"/>
       <use transform="translate(63.623047 0.78125)" xlink:href="#DejaVuSans-46"/>
       <use transform="translate(95.410156 0.78125)" xlink:href="#DejaVuSans-53"/>
      </g>
     </g>
    </g>
    <g id="ytick_9">
     <g id="line2d_61">
      <defs>
       <path d="M 2.5 0 
L -2.5 -0 
" id="m10003547b9" style="stroke:#000000;stroke-width:0.6;"/>
      </defs>
      <g>
       <use style="stroke:#000000;stroke-width:0.6;" x="57.6" xlink:href="#m10003547b9" y="302.266916"/>
      </g>
     </g>
    </g>
    <g id="ytick_10">
     <g id="line2d_62">
      <g>
       <use style="stroke:#000000;stroke-width:0.6;" x="57.6" xlink:href="#m10003547b9" y="288.710846"/>
      </g>
     </g>
    </g>
    <g id="ytick_11">
     <g id="line2d_63">
      <g>
       <use style="stroke:#000000;stroke-width:0.6;" x="57.6" xlink:href="#m10003547b9" y="281.932811"/>
      </g>
     </g>
    </g>
    <g id="ytick_12">
     <g id="line2d_64">
      <g>
       <use style="stroke:#000000;stroke-width:0.6;" x="57.6" xlink:href="#m10003547b9" y="275.154776"/>
      </g>
     </g>
    </g>
    <g id="ytick_13">
     <g id="line2d_65">
      <g>
       <use style="stroke:#000000;stroke-width:0.6;" x="57.6" xlink:href="#m10003547b9" y="268.376741"/>
      </g>
     </g>
    </g>
    <g id="ytick_14">
     <g id="line2d_66">
      <g>
       <use style="stroke:#000000;stroke-width:0.6;" x="57.6" xlink:href="#m10003547b9" y="254.820671"/>
      </g>
     </g>
    </g>
    <g id="ytick_15">
     <g id="line2d_67">
      <g>
       <use style="stroke:#000000;stroke-width:0.6;" x="57.6" xlink:href="#m10003547b9" y="248.042636"/>
      </g>
     </g>
    </g>
    <g id="ytick_16">
     <g id="line2d_68">
      <g>
       <use style="stroke:#000000;stroke-width:0.6;" x="57.6" xlink:href="#m10003547b9" y="241.264601"/>
      </g>
     </g>
    </g>
    <g id="ytick_17">
     <g id="line2d_69">
      <g>
       <use style="stroke:#000000;stroke-width:0.6;" x="57.6" xlink:href="#m10003547b9" y="234.486566"/>
      </g>
     </g>
    </g>
    <g id="ytick_18">
     <g id="line2d_70">
      <g>
       <use style="stroke:#000000;stroke-width:0.6;" x="57.6" xlink:href="#m10003547b9" y="220.930496"/>
      </g>
     </g>
    </g>
    <g id="ytick_19">
     <g id="line2d_71">
      <g>
       <use style="stroke:#000000;stroke-width:0.6;" x="57.6" xlink:href="#m10003547b9" y="214.152461"/>
      </g>
     </g>
    </g>
    <g id="ytick_20">
     <g id="line2d_72">
      <g>
       <use style="stroke:#000000;stroke-width:0.6;" x="57.6" xlink:href="#m10003547b9" y="207.374426"/>
      </g>
     </g>
    </g>
    <g id="ytick_21">
     <g id="line2d_73">
      <g>
       <use style="stroke:#000000;stroke-width:0.6;" x="57.6" xlink:href="#m10003547b9" y="200.596391"/>
      </g>
     </g>
    </g>
    <g id="ytick_22">
     <g id="line2d_74">
      <g>
       <use style="stroke:#000000;stroke-width:0.6;" x="57.6" xlink:href="#m10003547b9" y="187.04032"/>
      </g>
     </g>
    </g>
    <g id="ytick_23">
     <g id="line2d_75">
      <g>
       <use style="stroke:#000000;stroke-width:0.6;" x="57.6" xlink:href="#m10003547b9" y="180.262285"/>
      </g>
     </g>
    </g>
    <g id="ytick_24">
     <g id="line2d_76">
      <g>
       <use style="stroke:#000000;stroke-width:0.6;" x="57.6" xlink:href="#m10003547b9" y="173.48425"/>
      </g>
     </g>
    </g>
    <g id="ytick_25">
     <g id="line2d_77">
      <g>
       <use style="stroke:#000000;stroke-width:0.6;" x="57.6" xlink:href="#m10003547b9" y="166.706215"/>
      </g>
     </g>
    </g>
    <g id="ytick_26">
     <g id="line2d_78">
      <g>
       <use style="stroke:#000000;stroke-width:0.6;" x="57.6" xlink:href="#m10003547b9" y="153.150145"/>
      </g>
     </g>
    </g>
    <g id="ytick_27">
     <g id="line2d_79">
      <g>
       <use style="stroke:#000000;stroke-width:0.6;" x="57.6" xlink:href="#m10003547b9" y="146.37211"/>
      </g>
     </g>
    </g>
    <g id="ytick_28">
     <g id="line2d_80">
      <g>
       <use style="stroke:#000000;stroke-width:0.6;" x="57.6" xlink:href="#m10003547b9" y="139.594075"/>
      </g>
     </g>
    </g>
    <g id="ytick_29">
     <g id="line2d_81">
      <g>
       <use style="stroke:#000000;stroke-width:0.6;" x="57.6" xlink:href="#m10003547b9" y="132.81604"/>
      </g>
     </g>
    </g>
    <g id="ytick_30">
     <g id="line2d_82">
      <g>
       <use style="stroke:#000000;stroke-width:0.6;" x="57.6" xlink:href="#m10003547b9" y="119.25997"/>
      </g>
     </g>
    </g>
    <g id="ytick_31">
     <g id="line2d_83">
      <g>
       <use style="stroke:#000000;stroke-width:0.6;" x="57.6" xlink:href="#m10003547b9" y="112.481935"/>
      </g>
     </g>
    </g>
    <g id="ytick_32">
     <g id="line2d_84">
      <g>
       <use style="stroke:#000000;stroke-width:0.6;" x="57.6" xlink:href="#m10003547b9" y="105.7039"/>
      </g>
     </g>
    </g>
    <g id="ytick_33">
     <g id="line2d_85">
      <g>
       <use style="stroke:#000000;stroke-width:0.6;" x="57.6" xlink:href="#m10003547b9" y="98.925865"/>
      </g>
     </g>
    </g>
    <g id="ytick_34">
     <g id="line2d_86">
      <g>
       <use style="stroke:#000000;stroke-width:0.6;" x="57.6" xlink:href="#m10003547b9" y="85.369795"/>
      </g>
     </g>
    </g>
    <g id="ytick_35">
     <g id="line2d_87">
      <g>
       <use style="stroke:#000000;stroke-width:0.6;" x="57.6" xlink:href="#m10003547b9" y="78.59176"/>
      </g>
     </g>
    </g>
    <g id="ytick_36">
     <g id="line2d_88">
      <g>
       <use style="stroke:#000000;stroke-width:0.6;" x="57.6" xlink:href="#m10003547b9" y="71.813725"/>
      </g>
     </g>
    </g>
    <g id="ytick_37">
     <g id="line2d_89">
      <g>
       <use style="stroke:#000000;stroke-width:0.6;" x="57.6" xlink:href="#m10003547b9" y="65.03569"/>
      </g>
     </g>
    </g>
    <g id="ytick_38">
     <g id="line2d_90">
      <g>
       <use style="stroke:#000000;stroke-width:0.6;" x="57.6" xlink:href="#m10003547b9" y="51.47962"/>
      </g>
     </g>
    </g>
    <g id="ytick_39">
     <g id="line2d_91">
      <g>
       <use style="stroke:#000000;stroke-width:0.6;" x="57.6" xlink:href="#m10003547b9" y="44.701585"/>
      </g>
     </g>
    </g>
    <g id="text_17">
     <!-- Komulativní histogram -->
     <g transform="translate(19.720312 230.910031)rotate(-90)scale(0.1 -0.1)">
      <defs>
       <path d="M 9.8125 72.90625 
L 19.671875 72.90625 
L 19.671875 42.09375 
L 52.390625 72.90625 
L 65.09375 72.90625 
L 28.90625 38.921875 
L 67.671875 0 
L 54.6875 0 
L 19.671875 35.109375 
L 19.671875 0 
L 9.8125 0 
z
" id="DejaVuSans-75"/>
       <path d="M 52 44.1875 
Q 55.375 50.25 60.0625 53.125 
Q 64.75 56 71.09375 56 
Q 79.640625 56 84.28125 50.015625 
Q 88.921875 44.046875 88.921875 33.015625 
L 88.921875 0 
L 79.890625 0 
L 79.890625 32.71875 
Q 79.890625 40.578125 77.09375 44.375 
Q 74.3125 48.1875 68.609375 48.1875 
Q 61.625 48.1875 57.5625 43.546875 
Q 53.515625 38.921875 53.515625 30.90625 
L 53.515625 0 
L 44.484375 0 
L 44.484375 32.71875 
Q 44.484375 40.625 41.703125 44.40625 
Q 38.921875 48.1875 33.109375 48.1875 
Q 26.21875 48.1875 22.15625 43.53125 
Q 18.109375 38.875 18.109375 30.90625 
L 18.109375 0 
L 9.078125 0 
L 9.078125 54.6875 
L 18.109375 54.6875 
L 18.109375 46.1875 
Q 21.1875 51.21875 25.484375 53.609375 
Q 29.78125 56 35.6875 56 
Q 41.65625 56 45.828125 52.96875 
Q 50 49.953125 52 44.1875 
z
" id="DejaVuSans-109"/>
       <path d="M 9.421875 75.984375 
L 18.40625 75.984375 
L 18.40625 0 
L 9.421875 0 
z
" id="DejaVuSans-108"/>
       <path d="M 2.984375 54.6875 
L 12.5 54.6875 
L 29.59375 8.796875 
L 46.6875 54.6875 
L 56.203125 54.6875 
L 35.6875 0 
L 23.484375 0 
z
" id="DejaVuSans-118"/>
       <path d="M 20.65625 79.984375 
L 30.375 79.984375 
L 14.46875 61.625 
L 6.984375 61.625 
z
M 9.421875 54.6875 
L 18.40625 54.6875 
L 18.40625 0 
L 9.421875 0 
z
M 13.921875 56 
z
" id="DejaVuSans-237"/>
       <path d="M 54.890625 33.015625 
L 54.890625 0 
L 45.90625 0 
L 45.90625 32.71875 
Q 45.90625 40.484375 42.875 44.328125 
Q 39.84375 48.1875 33.796875 48.1875 
Q 26.515625 48.1875 22.3125 43.546875 
Q 18.109375 38.921875 18.109375 30.90625 
L 18.109375 0 
L 9.078125 0 
L 9.078125 75.984375 
L 18.109375 75.984375 
L 18.109375 46.1875 
Q 21.34375 51.125 25.703125 53.5625 
Q 30.078125 56 35.796875 56 
Q 45.21875 56 50.046875 50.171875 
Q 54.890625 44.34375 54.890625 33.015625 
z
" id="DejaVuSans-104"/>
       <path d="M 44.28125 53.078125 
L 44.28125 44.578125 
Q 40.484375 46.53125 36.375 47.5 
Q 32.28125 48.484375 27.875 48.484375 
Q 21.1875 48.484375 17.84375 46.4375 
Q 14.5 44.390625 14.5 40.28125 
Q 14.5 37.15625 16.890625 35.375 
Q 19.28125 33.59375 26.515625 31.984375 
L 29.59375 31.296875 
Q 39.15625 29.25 43.1875 25.515625 
Q 47.21875 21.78125 47.21875 15.09375 
Q 47.21875 7.46875 41.1875 3.015625 
Q 35.15625 -1.421875 24.609375 -1.421875 
Q 20.21875 -1.421875 15.453125 -0.5625 
Q 10.6875 0.296875 5.421875 2 
L 5.421875 11.28125 
Q 10.40625 8.6875 15.234375 7.390625 
Q 20.0625 6.109375 24.8125 6.109375 
Q 31.15625 6.109375 34.5625 8.28125 
Q 37.984375 10.453125 37.984375 14.40625 
Q 37.984375 18.0625 35.515625 20.015625 
Q 33.0625 21.96875 24.703125 23.78125 
L 21.578125 24.515625 
Q 13.234375 26.265625 9.515625 29.90625 
Q 5.8125 33.546875 5.8125 39.890625 
Q 5.8125 47.609375 11.28125 51.796875 
Q 16.75 56 26.8125 56 
Q 31.78125 56 36.171875 55.265625 
Q 40.578125 54.546875 44.28125 53.078125 
z
" id="DejaVuSans-115"/>
       <path d="M 45.40625 27.984375 
Q 45.40625 37.75 41.375 43.109375 
Q 37.359375 48.484375 30.078125 48.484375 
Q 22.859375 48.484375 18.828125 43.109375 
Q 14.796875 37.75 14.796875 27.984375 
Q 14.796875 18.265625 18.828125 12.890625 
Q 22.859375 7.515625 30.078125 7.515625 
Q 37.359375 7.515625 41.375 12.890625 
Q 45.40625 18.265625 45.40625 27.984375 
z
M 54.390625 6.78125 
Q 54.390625 -7.171875 48.1875 -13.984375 
Q 42 -20.796875 29.203125 -20.796875 
Q 24.46875 -20.796875 20.265625 -20.09375 
Q 16.0625 -19.390625 12.109375 -17.921875 
L 12.109375 -9.1875 
Q 16.0625 -11.328125 19.921875 -12.34375 
Q 23.78125 -13.375 27.78125 -13.375 
Q 36.625 -13.375 41.015625 -8.765625 
Q 45.40625 -4.15625 45.40625 5.171875 
L 45.40625 9.625 
Q 42.625 4.78125 38.28125 2.390625 
Q 33.9375 0 27.875 0 
Q 17.828125 0 11.671875 7.65625 
Q 5.515625 15.328125 5.515625 27.984375 
Q 5.515625 40.671875 11.671875 48.328125 
Q 17.828125 56 27.875 56 
Q 33.9375 56 38.28125 53.609375 
Q 42.625 51.21875 45.40625 46.390625 
L 45.40625 54.6875 
L 54.390625 54.6875 
z
" id="DejaVuSans-103"/>
      </defs>
      <use xlink:href="#DejaVuSans-75"/>
      <use x="60.576172" xlink:href="#DejaVuSans-111"/>
      <use x="121.757812" xlink:href="#DejaVuSans-109"/>
      <use x="219.169922" xlink:href="#DejaVuSans-117"/>
      <use x="282.548828" xlink:href="#DejaVuSans-108"/>
      <use x="310.332031" xlink:href="#DejaVuSans-97"/>
      <use x="371.611328" xlink:href="#DejaVuSans-116"/>
      <use x="410.820312" xlink:href="#DejaVuSans-105"/>
      <use x="438.603516" xlink:href="#DejaVuSans-118"/>
      <use x="497.783203" xlink:href="#DejaVuSans-110"/>
      <use x="561.162109" xlink:href="#DejaVuSans-237"/>
      <use x="588.945312" xlink:href="#DejaVuSans-32"/>
      <use x="620.732422" xlink:href="#DejaVuSans-104"/>
      <use x="684.111328" xlink:href="#DejaVuSans-105"/>
      <use x="711.894531" xlink:href="#DejaVuSans-115"/>
      <use x="763.994141" xlink:href="#DejaVuSans-116"/>
      <use x="803.203125" xlink:href="#DejaVuSans-111"/>
      <use x="864.384766" xlink:href="#DejaVuSans-103"/>
      <use x="927.861328" xlink:href="#DejaVuSans-114"/>
      <use x="968.974609" xlink:href="#DejaVuSans-97"/>
      <use x="1030.253906" xlink:href="#DejaVuSans-109"/>
     </g>
    </g>
    <g id="text_18">
     <!-- $\times\mathdefault{10^{6}}\mathdefault{}$ -->
     <g transform="translate(57.6 38.472)scale(0.08 -0.08)">
      <defs>
       <path d="M 70.125 53.71875 
L 47.796875 31.296875 
L 70.125 8.984375 
L 64.3125 3.078125 
L 41.890625 25.484375 
L 19.484375 3.078125 
L 13.71875 8.984375 
L 35.984375 31.296875 
L 13.71875 53.71875 
L 19.484375 59.625 
L 41.890625 37.203125 
L 64.3125 59.625 
z
" id="DejaVuSans-215"/>
       <path d="M 33.015625 40.375 
Q 26.375 40.375 22.484375 35.828125 
Q 18.609375 31.296875 18.609375 23.390625 
Q 18.609375 15.53125 22.484375 10.953125 
Q 26.375 6.390625 33.015625 6.390625 
Q 39.65625 6.390625 43.53125 10.953125 
Q 47.40625 15.53125 47.40625 23.390625 
Q 47.40625 31.296875 43.53125 35.828125 
Q 39.65625 40.375 33.015625 40.375 
z
M 52.59375 71.296875 
L 52.59375 62.3125 
Q 48.875 64.0625 45.09375 64.984375 
Q 41.3125 65.921875 37.59375 65.921875 
Q 27.828125 65.921875 22.671875 59.328125 
Q 17.53125 52.734375 16.796875 39.40625 
Q 19.671875 43.65625 24.015625 45.921875 
Q 28.375 48.1875 33.59375 48.1875 
Q 44.578125 48.1875 50.953125 41.515625 
Q 57.328125 34.859375 57.328125 23.390625 
Q 57.328125 12.15625 50.6875 5.359375 
Q 44.046875 -1.421875 33.015625 -1.421875 
Q 20.359375 -1.421875 13.671875 8.265625 
Q 6.984375 17.96875 6.984375 36.375 
Q 6.984375 53.65625 15.1875 63.9375 
Q 23.390625 74.21875 37.203125 74.21875 
Q 40.921875 74.21875 44.703125 73.484375 
Q 48.484375 72.75 52.59375 71.296875 
z
" id="DejaVuSans-54"/>
      </defs>
      <use transform="translate(0 0.765625)" xlink:href="#DejaVuSans-215"/>
      <use transform="translate(83.789062 0.765625)" xlink:href="#DejaVuSans-49"/>
      <use transform="translate(147.412109 0.765625)" xlink:href="#DejaVuSans-48"/>
      <use transform="translate(211.992188 39.046875)scale(0.7)" xlink:href="#DejaVuSans-54"/>
     </g>
    </g>
   </g>
   <g id="line2d_92">
    <path clip-path="url(#p7188596947)" d="M 73.832727 295.488 
L 79.871906 295.461498 
L 80.001781 295.36525 
L 96.593287 295.255174 
L 99.353127 295.245007 
L 99.385595 295.245007 
L 99.51547 295.104905 
L 109.872986 294.993881 
L 116.301789 294.930032 
L 118.899285 294.920204 
L 119.02916 294.754888 
L 128.639895 294.659385 
L 128.802239 294.60794 
L 137.309039 294.497458 
L 138.380506 294.49129 
L 138.51038 294.289576 
L 144.906715 294.208443 
L 145.069058 294.164453 
L 149.354927 294.053429 
L 151.303049 294.025368 
L 157.894195 293.852867 
L 158.02407 293.512881 
L 162.7645 293.42036 
L 162.926844 293.386945 
L 167.667274 293.227661 
L 167.797149 293.127414 
L 170.914145 293.050483 
L 171.044019 292.991175 
L 174.128546 292.880422 
L 177.407885 292.787021 
L 177.53776 292.284972 
L 180.946973 292.176862 
L 182.927564 292.03859 
L 183.901625 291.997651 
L 184.0315 291.921466 
L 186.174434 291.811729 
L 187.148495 291.786922 
L 187.27837 291.570974 
L 189.096617 291.480419 
L 189.258961 291.430126 
L 190.427834 291.381256 
L 190.557709 291.261692 
L 192.051269 291.188015 
L 192.181144 291.119624 
L 193.382486 291.011311 
L 194.064329 290.949021 
L 195.298139 290.845046 
L 195.850107 290.798006 
L 196.921574 290.763506 
L 197.051449 289.849759 
L 199.356727 289.699829 
L 199.551539 289.6656 
L 200.363257 289.557084 
L 203.28544 289.142471 
L 203.415315 289.142471 
L 203.545189 288.961159 
L 204.421844 288.85393 
L 205.233562 288.706508 
L 206.662185 288.549936 
L 206.79206 288.110109 
L 207.895995 287.98336 
L 209.29215 287.702274 
L 209.909055 287.628529 
L 210.03893 287.324196 
L 210.850647 287.178671 
L 210.980522 287.100182 
L 211.53249 287.018913 
L 211.662365 286.827095 
L 212.506551 286.664896 
L 212.636426 286.524998 
L 213.155925 286.440001 
L 213.2858 286.347549 
L 214.259861 286.074733 
L 214.422204 285.980992 
L 214.909235 285.833028 
L 215.298859 285.72119 
L 216.435264 285.605422 
L 216.565139 283.576146 
L 217.409325 283.434485 
L 218.02623 283.198338 
L 218.188574 283.124118 
L 218.350917 283.042308 
L 218.513261 282.939146 
L 219.03276 282.656434 
L 219.519791 282.358607 
L 219.682134 282.325598 
L 219.812009 282.091417 
L 220.331508 281.831479 
L 220.461383 281.533585 
L 220.753601 281.401481 
L 220.883476 281.281849 
L 221.305569 281.1166 
L 221.435444 280.633936 
L 221.727662 280.505492 
L 221.890006 280.367695 
L 221.987412 280.342142 
L 222.117287 280.123889 
L 222.929004 279.668947 
L 223.058879 278.921533 
L 223.383566 278.754523 
L 223.578378 278.5604 
L 223.740722 278.483198 
L 223.870597 278.245967 
L 224.097877 278.065603 
L 224.227752 278.011853 
L 224.357627 277.590327 
L 224.77972 277.239361 
L 224.909595 276.959225 
L 226.175874 275.785472 
L 226.305749 273.956352 
L 226.597967 273.737489 
L 227.572028 272.286312 
L 227.701903 271.83198 
L 228.091528 271.282281 
L 228.123996 271.272182 
L 228.253871 270.567131 
L 229.422744 268.3783 
L 229.552619 266.7959 
L 229.7799 266.407586 
L 230.266931 264.967728 
L 230.364337 264.864838 
L 230.494212 264.091938 
L 230.948773 262.724402 
L 231.04618 262.605312 
L 231.176054 261.082694 
L 231.435804 260.315759 
L 231.695554 259.067923 
L 232.020241 257.876887 
L 232.150115 256.481561 
L 232.377396 255.527349 
L 232.572208 254.339295 
L 232.669615 254.032792 
L 232.799489 252.653869 
L 233.124176 250.777505 
L 233.254051 249.348085 
L 233.968363 243.55639 
L 234.130706 241.79017 
L 234.163175 241.695684 
L 234.390456 238.87148 
L 234.520331 237.411152 
L 234.78008 234.131532 
L 235.689204 219.471795 
L 235.916485 218.102767 
L 236.04636 191.071286 
L 236.143766 189.717305 
L 236.468453 178.990387 
L 237.474982 148.566906 
L 238.059419 136.123382 
L 238.189294 133.667022 
L 239.098417 119.455991 
L 239.163355 118.994542 
L 239.29323 116.618705 
L 239.812729 111.647898 
L 239.942604 109.266164 
L 240.104947 108.080211 
L 240.364697 105.643033 
L 240.78679 103.001565 
L 240.916665 100.596244 
L 241.241352 98.796676 
L 241.403695 97.648205 
L 241.501101 97.377829 
L 241.630976 96.026357 
L 241.760851 95.462899 
L 241.923195 94.453311 
L 242.150475 93.234213 
L 242.410225 92.639915 
L 242.5401 90.301968 
L 242.669975 89.968217 
L 242.897256 89.220939 
L 243.124536 88.316071 
L 243.644036 86.44879 
L 243.741442 86.365895 
L 243.871317 85.355493 
L 244.29341 84.372136 
L 244.423285 83.604388 
L 244.520691 83.403012 
L 245.462283 81.270371 
L 245.689564 81.157382 
L 245.819439 78.648899 
L 245.981782 78.517405 
L 246.761031 77.247269 
L 246.923375 76.841603 
L 247.085718 76.726038 
L 247.215593 76.253541 
L 247.605217 75.76132 
L 247.637686 75.757186 
L 247.767561 75.141672 
L 247.994842 74.878888 
L 248.676684 73.943858 
L 248.936434 73.821921 
L 249.066309 72.759464 
L 249.423465 72.477227 
L 249.650745 72.161912 
L 249.845558 72.042416 
L 249.975432 71.720662 
L 250.559869 71.340347 
L 250.689744 70.701856 
L 250.917025 70.574429 
L 251.079368 70.456627 
L 251.111837 70.456491 
L 251.274181 70.211804 
L 251.53393 70.11115 
L 251.663805 69.722159 
L 252.183304 69.411725 
L 252.313179 69.13125 
L 252.637866 68.950005 
L 252.767741 68.722737 
L 253.254771 68.413185 
L 253.417115 68.277895 
L 253.936614 67.969359 
L 254.163895 67.818819 
L 254.683394 67.620493 
L 255.397706 67.51523 
L 255.430174 67.514417 
L 255.560049 64.926021 
L 256.404235 64.796018 
L 259.29395 63.682726 
L 259.326418 63.681032 
L 259.456293 63.499313 
L 260.30048 63.30519 
L 260.430354 63.04349 
L 261.014791 62.943107 
L 261.144666 62.848892 
L 261.923915 62.709671 
L 262.053789 62.29167 
L 262.735632 62.181934 
L 262.897976 62.118152 
L 263.222663 62.071994 
L 263.352537 61.929181 
L 264.424005 61.705573 
L 264.846098 61.654941 
L 265.170785 61.64613 
L 265.30066 61.03631 
L 266.566939 60.896208 
L 266.696814 60.82348 
L 268.450124 60.554799 
L 268.579998 60.265919 
L 270.073559 60.138695 
L 270.203433 59.986393 
L 271.696994 59.788135 
L 271.859337 59.729505 
L 274.943864 59.49329 
L 275.073739 58.325367 
L 277.411485 58.214411 
L 278.840108 58.101082 
L 278.969983 58.024558 
L 279.814169 57.9845 
L 279.944044 57.879305 
L 281.437604 57.80495 
L 281.567479 57.658815 
L 283.190914 57.548198 
L 284.684474 57.483264 
L 284.814349 57.239255 
L 286.924815 57.130942 
L 289.262561 56.937158 
L 291.178215 56.826676 
L 291.437964 56.807291 
L 293.028931 56.761742 
L 294.457553 56.744594 
L 294.587428 56.085023 
L 299.327859 55.973999 
L 299.490202 55.935229 
L 302.250042 55.82495 
L 302.607197 55.810445 
L 304.198164 55.793771 
L 304.328039 55.653195 
L 309.068469 55.550914 
L 309.263281 55.524615 
L 313.938774 55.458868 
L 314.068649 55.05422 
L 321.309169 54.943128 
L 333.452464 54.726163 
L 333.582339 54.430708 
L 343.193074 54.353168 
L 343.355418 54.305654 
L 352.966153 54.249057 
L 353.096028 54.025585 
L 372.479843 53.919848 
L 372.609718 53.77778 
L 391.961064 53.70451 
L 392.090939 53.581963 
L 398.487273 53.568 
L 398.487273 53.568 
" style="fill:none;stroke:#4169e1;stroke-linecap:square;stroke-width:2;"/>
   </g>
   <g id="patch_3">
    <path d="M 57.6 307.584 
L 57.6 41.472 
" style="fill:none;stroke:#000000;stroke-linecap:square;stroke-linejoin:miter;stroke-width:0.8;"/>
   </g>
   <g id="patch_4">
    <path d="M 414.72 307.584 
L 414.72 41.472 
" style="fill:none;stroke:#000000;stroke-linecap:square;stroke-linejoin:miter;stroke-width:0.8;"/>
   </g>
   <g id="patch_5">
    <path d="M 57.6 307.584 
L 414.72 307.584 
" style="fill:none;stroke:#000000;stroke-linecap:square;stroke-linejoin:miter;stroke-width:0.8;"/>
   </g>
   <g id="patch_6">
    <path d="M 57.6 41.472 
L 414.72 41.472 
" style="fill:none;stroke:#000000;stroke-linecap:square;stroke-linejoin:miter;stroke-width:0.8;"/>
   </g>
   <g id="text_19">
    <!-- Komulativní histogram hodnot indikátoru LES (po odstranění outlierů) -->
    <g transform="translate(27.375937 25.472)scale(0.12 -0.12)">
     <defs>
      <path d="M 31 75.875 
Q 24.46875 64.65625 21.28125 53.65625 
Q 18.109375 42.671875 18.109375 31.390625 
Q 18.109375 20.125 21.3125 9.0625 
Q 24.515625 -2 31 -13.1875 
L 23.1875 -13.1875 
Q 15.875 -1.703125 12.234375 9.375 
Q 8.59375 20.453125 8.59375 31.390625 
Q 8.59375 42.28125 12.203125 53.3125 
Q 15.828125 64.359375 23.1875 75.875 
z
" id="DejaVuSans-40"/>
      <path d="M 18.109375 8.203125 
L 18.109375 -20.796875 
L 9.078125 -20.796875 
L 9.078125 54.6875 
L 18.109375 54.6875 
L 18.109375 46.390625 
Q 20.953125 51.265625 25.265625 53.625 
Q 29.59375 56 35.59375 56 
Q 45.5625 56 51.78125 48.09375 
Q 58.015625 40.1875 58.015625 27.296875 
Q 58.015625 14.40625 51.78125 6.484375 
Q 45.5625 -1.421875 35.59375 -1.421875 
Q 29.59375 -1.421875 25.265625 0.953125 
Q 20.953125 3.328125 18.109375 8.203125 
z
M 48.6875 27.296875 
Q 48.6875 37.203125 44.609375 42.84375 
Q 40.53125 48.484375 33.40625 48.484375 
Q 26.265625 48.484375 22.1875 42.84375 
Q 18.109375 37.203125 18.109375 27.296875 
Q 18.109375 17.390625 22.1875 11.75 
Q 26.265625 6.109375 33.40625 6.109375 
Q 40.53125 6.109375 44.609375 11.75 
Q 48.6875 17.390625 48.6875 27.296875 
z
" id="DejaVuSans-112"/>
      <path d="M 56.203125 29.59375 
L 56.203125 25.203125 
L 14.890625 25.203125 
Q 15.484375 15.921875 20.484375 11.0625 
Q 25.484375 6.203125 34.421875 6.203125 
Q 39.59375 6.203125 44.453125 7.46875 
Q 49.3125 8.734375 54.109375 11.28125 
L 54.109375 2.78125 
Q 49.265625 0.734375 44.1875 -0.34375 
Q 39.109375 -1.421875 33.890625 -1.421875 
Q 20.796875 -1.421875 13.15625 6.1875 
Q 5.515625 13.8125 5.515625 26.8125 
Q 5.515625 40.234375 12.765625 48.109375 
Q 20.015625 56 32.328125 56 
Q 43.359375 56 49.78125 48.890625 
Q 56.203125 41.796875 56.203125 29.59375 
z
M 47.21875 32.234375 
Q 47.125 39.59375 43.09375 43.984375 
Q 39.0625 48.390625 32.421875 48.390625 
Q 24.90625 48.390625 20.390625 44.140625 
Q 15.875 39.890625 15.1875 32.171875 
z
M 28.640625 61.625 
L 16.671875 79.984375 
L 23.46875 79.984375 
L 32.25 68.015625 
L 41.046875 79.984375 
L 47.828125 79.984375 
L 35.859375 61.625 
z
" id="DejaVuSans-283"/>
      <path d="M 56.203125 29.59375 
L 56.203125 25.203125 
L 14.890625 25.203125 
Q 15.484375 15.921875 20.484375 11.0625 
Q 25.484375 6.203125 34.421875 6.203125 
Q 39.59375 6.203125 44.453125 7.46875 
Q 49.3125 8.734375 54.109375 11.28125 
L 54.109375 2.78125 
Q 49.265625 0.734375 44.1875 -0.34375 
Q 39.109375 -1.421875 33.890625 -1.421875 
Q 20.796875 -1.421875 13.15625 6.1875 
Q 5.515625 13.8125 5.515625 26.8125 
Q 5.515625 40.234375 12.765625 48.109375 
Q 20.015625 56 32.328125 56 
Q 43.359375 56 49.78125 48.890625 
Q 56.203125 41.796875 56.203125 29.59375 
z
M 47.21875 32.234375 
Q 47.125 39.59375 43.09375 43.984375 
Q 39.0625 48.390625 32.421875 48.390625 
Q 24.90625 48.390625 20.390625 44.140625 
Q 15.875 39.890625 15.1875 32.171875 
z
" id="DejaVuSans-101"/>
      <path d="M 8.5 21.578125 
L 8.5 54.6875 
L 17.484375 54.6875 
L 17.484375 21.921875 
Q 17.484375 14.15625 20.5 10.265625 
Q 23.53125 6.390625 29.59375 6.390625 
Q 36.859375 6.390625 41.078125 11.03125 
Q 45.3125 15.671875 45.3125 23.6875 
L 45.3125 54.6875 
L 54.296875 54.6875 
L 54.296875 0 
L 45.3125 0 
L 45.3125 8.40625 
Q 42.046875 3.421875 37.71875 1 
Q 33.40625 -1.421875 27.6875 -1.421875 
Q 18.265625 -1.421875 13.375 4.4375 
Q 8.5 10.296875 8.5 21.578125 
z
M 31.109375 56 
z
M 38.421875 71.421875 
Q 38.421875 74.484375 36.265625 76.625 
Q 34.125 78.78125 31 78.78125 
Q 27.828125 78.78125 25.703125 76.65625 
Q 23.578125 74.546875 23.578125 71.421875 
Q 23.578125 68.234375 25.703125 66.109375 
Q 27.828125 64 31 64 
Q 34.125 64 36.265625 66.140625 
Q 38.421875 68.296875 38.421875 71.421875 
z
M 44.375 71.421875 
Q 44.375 65.796875 40.484375 61.890625 
Q 36.609375 57.984375 31 57.984375 
Q 25.390625 57.984375 21.5 61.890625 
Q 17.625 65.796875 17.625 71.421875 
Q 17.625 77.03125 21.5 80.90625 
Q 25.390625 84.796875 31 84.796875 
Q 36.609375 84.796875 40.484375 80.90625 
Q 44.375 77.03125 44.375 71.421875 
z
" id="DejaVuSans-367"/>
      <path d="M 8.015625 75.875 
L 15.828125 75.875 
Q 23.140625 64.359375 26.78125 53.3125 
Q 30.421875 42.28125 30.421875 31.390625 
Q 30.421875 20.453125 26.78125 9.375 
Q 23.140625 -1.703125 15.828125 -13.1875 
L 8.015625 -13.1875 
Q 14.5 -2 17.703125 9.0625 
Q 20.90625 20.125 20.90625 31.390625 
Q 20.90625 42.671875 17.703125 53.65625 
Q 14.5 64.65625 8.015625 75.875 
z
" id="DejaVuSans-41"/>
     </defs>
     <use xlink:href="#DejaVuSans-75"/>
     <use x="60.576172" xlink:href="#DejaVuSans-111"/>
     <use x="121.757812" xlink:href="#DejaVuSans-109"/>
     <use x="219.169922" xlink:href="#DejaVuSans-117"/>
     <use x="282.548828" xlink:href="#DejaVuSans-108"/>
     <use x="310.332031" xlink:href="#DejaVuSans-97"/>
     <use x="371.611328" xlink:href="#DejaVuSans-116"/>
     <use x="410.820312" xlink:href="#DejaVuSans-105"/>
     <use x="438.603516" xlink:href="#DejaVuSans-118"/>
     <use x="497.783203" xlink:href="#DejaVuSans-110"/>
     <use x="561.162109" xlink:href="#DejaVuSans-237"/>
     <use x="588.945312" xlink:href="#DejaVuSans-32"/>
     <use x="620.732422" xlink:href="#DejaVuSans-104"/>
     <use x="684.111328" xlink:href="#DejaVuSans-105"/>
     <use x="711.894531" xlink:href="#DejaVuSans-115"/>
     <use x="763.994141" xlink:href="#DejaVuSans-116"/>
     <use x="803.203125" xlink:href="#DejaVuSans-111"/>
     <use x="864.384766" xlink:href="#DejaVuSans-103"/>
     <use x="927.861328" xlink:href="#DejaVuSans-114"/>
     <use x="968.974609" xlink:href="#DejaVuSans-97"/>
     <use x="1030.253906" xlink:href="#DejaVuSans-109"/>
     <use x="1127.666016" xlink:href="#DejaVuSans-32"/>
     <use x="1159.453125" xlink:href="#DejaVuSans-104"/>
     <use x="1222.832031" xlink:href="#DejaVuSans-111"/>
     <use x="1284.013672" xlink:href="#DejaVuSans-100"/>
     <use x="1347.490234" xlink:href="#DejaVuSans-110"/>
     <use x="1410.869141" xlink:href="#DejaVuSans-111"/>
     <use x="1472.050781" xlink:href="#DejaVuSans-116"/>
     <use x="1511.259766" xlink:href="#DejaVuSans-32"/>
     <use x="1543.046875" xlink:href="#DejaVuSans-105"/>
     <use x="1570.830078" xlink:href="#DejaVuSans-110"/>
     <use x="1634.208984" xlink:href="#DejaVuSans-100"/>
     <use x="1697.685547" xlink:href="#DejaVuSans-105"/>
     <use x="1725.46875" xlink:href="#DejaVuSans-107"/>
     <use x="1781.628906" xlink:href="#DejaVuSans-225"/>
     <use x="1842.908203" xlink:href="#DejaVuSans-116"/>
     <use x="1882.117188" xlink:href="#DejaVuSans-111"/>
     <use x="1943.298828" xlink:href="#DejaVuSans-114"/>
     <use x="1984.412109" xlink:href="#DejaVuSans-117"/>
     <use x="2047.791016" xlink:href="#DejaVuSans-32"/>
     <use x="2079.578125" xlink:href="#DejaVuSans-76"/>
     <use x="2135.291016" xlink:href="#DejaVuSans-69"/>
     <use x="2198.474609" xlink:href="#DejaVuSans-83"/>
     <use x="2261.951172" xlink:href="#DejaVuSans-32"/>
     <use x="2293.738281" xlink:href="#DejaVuSans-40"/>
     <use x="2332.751953" xlink:href="#DejaVuSans-112"/>
     <use x="2396.228516" xlink:href="#DejaVuSans-111"/>
     <use x="2457.410156" xlink:href="#DejaVuSans-32"/>
     <use x="2489.197266" xlink:href="#DejaVuSans-111"/>
     <use x="2550.378906" xlink:href="#DejaVuSans-100"/>
     <use x="2613.855469" xlink:href="#DejaVuSans-115"/>
     <use x="2665.955078" xlink:href="#DejaVuSans-116"/>
     <use x="2705.164062" xlink:href="#DejaVuSans-114"/>
     <use x="2746.277344" xlink:href="#DejaVuSans-97"/>
     <use x="2807.556641" xlink:href="#DejaVuSans-110"/>
     <use x="2870.935547" xlink:href="#DejaVuSans-283"/>
     <use x="2932.458984" xlink:href="#DejaVuSans-110"/>
     <use x="2995.837891" xlink:href="#DejaVuSans-237"/>
     <use x="3023.621094" xlink:href="#DejaVuSans-32"/>
     <use x="3055.408203" xlink:href="#DejaVuSans-111"/>
     <use x="3116.589844" xlink:href="#DejaVuSans-117"/>
     <use x="3179.96875" xlink:href="#DejaVuSans-116"/>
     <use x="3219.177734" xlink:href="#DejaVuSans-108"/>
     <use x="3246.960938" xlink:href="#DejaVuSans-105"/>
     <use x="3274.744141" xlink:href="#DejaVuSans-101"/>
     <use x="3336.267578" xlink:href="#DejaVuSans-114"/>
     <use x="3377.380859" xlink:href="#DejaVuSans-367"/>
     <use x="3440.759766" xlink:href="#DejaVuSans-41"/>
    </g>
   </g>
   <g id="legend_1">
    <g id="patch_7">
     <path d="M 437.576 64.150125 
L 515.427563 64.150125 
L 515.427563 46.472 
L 437.576 46.472 
z
" style="fill:#ffffff;stroke:#000000;stroke-linejoin:miter;"/>
    </g>
    <g id="line2d_93">
     <path d="M 441.576 54.570438 
L 461.576 54.570438 
" style="fill:none;stroke:#4169e1;stroke-linecap:square;stroke-width:2;"/>
    </g>
    <g id="line2d_94"/>
    <g id="text_20">
     <!-- CDF LES -->
     <g transform="translate(469.576 58.070438)scale(0.1 -0.1)">
      <defs>
       <path d="M 64.40625 67.28125 
L 64.40625 56.890625 
Q 59.421875 61.53125 53.78125 63.8125 
Q 48.140625 66.109375 41.796875 66.109375 
Q 29.296875 66.109375 22.65625 58.46875 
Q 16.015625 50.828125 16.015625 36.375 
Q 16.015625 21.96875 22.65625 14.328125 
Q 29.296875 6.6875 41.796875 6.6875 
Q 48.140625 6.6875 53.78125 8.984375 
Q 59.421875 11.28125 64.40625 15.921875 
L 64.40625 5.609375 
Q 59.234375 2.09375 53.4375 0.328125 
Q 47.65625 -1.421875 41.21875 -1.421875 
Q 24.65625 -1.421875 15.125 8.703125 
Q 5.609375 18.84375 5.609375 36.375 
Q 5.609375 53.953125 15.125 64.078125 
Q 24.65625 74.21875 41.21875 74.21875 
Q 47.75 74.21875 53.53125 72.484375 
Q 59.328125 70.75 64.40625 67.28125 
z
" id="DejaVuSans-67"/>
       <path d="M 19.671875 64.796875 
L 19.671875 8.109375 
L 31.59375 8.109375 
Q 46.6875 8.109375 53.6875 14.9375 
Q 60.6875 21.78125 60.6875 36.53125 
Q 60.6875 51.171875 53.6875 57.984375 
Q 46.6875 64.796875 31.59375 64.796875 
z
M 9.8125 72.90625 
L 30.078125 72.90625 
Q 51.265625 72.90625 61.171875 64.09375 
Q 71.09375 55.28125 71.09375 36.53125 
Q 71.09375 17.671875 61.125 8.828125 
Q 51.171875 0 30.078125 0 
L 9.8125 0 
z
" id="DejaVuSans-68"/>
       <path d="M 9.8125 72.90625 
L 51.703125 72.90625 
L 51.703125 64.59375 
L 19.671875 64.59375 
L 19.671875 43.109375 
L 48.578125 43.109375 
L 48.578125 34.8125 
L 19.671875 34.8125 
L 19.671875 0 
L 9.8125 0 
z
" id="DejaVuSans-70"/>
      </defs>
      <use xlink:href="#DejaVuSans-67"/>
      <use x="69.824219" xlink:href="#DejaVuSans-68"/>
      <use x="146.826172" xlink:href="#DejaVuSans-70"/>
      <use x="204.345703" xlink:href="#DejaVuSans-32"/>
      <use x="236.132812" xlink:href="#DejaVuSans-76"/>
      <use x="291.845703" xlink:href="#DejaVuSans-69"/>
      <use x="355.029297" xlink:href="#DejaVuSans-83"/>
     </g>
    </g>
   </g>
  </g>
 </g>
 <defs>
  <clipPath id="p7188596947">
   <rect height="266.112" width="357.12" x="57.6" y="41.472"/>
  </clipPath>
 </defs>
</svg>
