<?xml version="1.0" encoding="utf-8" standalone="no"?>
<!DOCTYPE svg PUBLIC "-//W3C//DTD SVG 1.1//EN"
  "http://www.w3.org/Graphics/SVG/1.1/DTD/svg11.dtd">
<!-- Created with matplotlib (https://matplotlib.org/) -->
<svg height="345.6pt" version="1.1" viewBox="0 0 460.8 345.6" width="460.8pt" xmlns="http://www.w3.org/2000/svg" xmlns:xlink="http://www.w3.org/1999/xlink">
 <metadata>
  <rdf:RDF xmlns:cc="http://creativecommons.org/ns#" xmlns:dc="http://purl.org/dc/elements/1.1/" xmlns:rdf="http://www.w3.org/1999/02/22-rdf-syntax-ns#">
   <cc:Work>
    <dc:type rdf:resource="http://purl.org/dc/dcmitype/StillImage"/>
    <dc:date>2024-06-26T21:56:02.534054</dc:date>
    <dc:format>image/svg+xml</dc:format>
    <dc:creator>
     <cc:Agent>
      <dc:title>Matplotlib v3.3.4, https://matplotlib.org/</dc:title>
     </cc:Agent>
    </dc:creator>
   </cc:Work>
  </rdf:RDF>
 </metadata>
 <defs>
  <style type="text/css">*{stroke-linecap:butt;stroke-linejoin:round;}</style>
 </defs>
 <g id="figure_1">
  <g id="patch_1">
   <path d="M 0 345.6 
L 460.8 345.6 
L 460.8 0 
L 0 0 
z
" style="fill:#ffffff;"/>
  </g>
  <g id="axes_1">
   <g id="patch_2">
    <path d="M 57.6 307.584 
L 414.72 307.584 
L 414.72 41.472 
L 57.6 41.472 
z
" style="fill:#ffffff;"/>
   </g>
   <g id="matplotlib.axis_1">
    <g id="xtick_1">
     <g id="line2d_1">
      <path clip-path="url(#p21af975836)" d="M 73.816493 307.584 
L 73.816493 41.472 
" style="fill:none;stroke:#b0b0b0;stroke-dasharray:1.85,0.8;stroke-dashoffset:0;stroke-width:0.5;"/>
     </g>
     <g id="line2d_2">
      <defs>
       <path d="M 0 3.5 
L 0 -3.5 
" id="m3518c1fc7a" style="stroke:#000000;stroke-width:0.8;"/>
      </defs>
      <g>
       <use style="stroke:#000000;stroke-width:0.8;" x="73.816493" xlink:href="#m3518c1fc7a" y="307.584"/>
      </g>
     </g>
     <g id="text_1">
      <!-- $\mathdefault{0.0}$ -->
      <g transform="translate(67.416493 320.66275)scale(0.08 -0.08)">
       <defs>
        <path d="M 31.78125 66.40625 
Q 24.171875 66.40625 20.328125 58.90625 
Q 16.5 51.421875 16.5 36.375 
Q 16.5 21.390625 20.328125 13.890625 
Q 24.171875 6.390625 31.78125 6.390625 
Q 39.453125 6.390625 43.28125 13.890625 
Q 47.125 21.390625 47.125 36.375 
Q 47.125 51.421875 43.28125 58.90625 
Q 39.453125 66.40625 31.78125 66.40625 
z
M 31.78125 74.21875 
Q 44.046875 74.21875 50.515625 64.515625 
Q 56.984375 54.828125 56.984375 36.375 
Q 56.984375 17.96875 50.515625 8.265625 
Q 44.046875 -1.421875 31.78125 -1.421875 
Q 19.53125 -1.421875 13.0625 8.265625 
Q 6.59375 17.96875 6.59375 36.375 
Q 6.59375 54.828125 13.0625 64.515625 
Q 19.53125 74.21875 31.78125 74.21875 
z
" id="DejaVuSans-48"/>
        <path d="M 10.6875 12.40625 
L 21 12.40625 
L 21 0 
L 10.6875 0 
z
" id="DejaVuSans-46"/>
       </defs>
       <use transform="translate(0 0.78125)" xlink:href="#DejaVuSans-48"/>
       <use transform="translate(63.623047 0.78125)" xlink:href="#DejaVuSans-46"/>
       <use transform="translate(95.410156 0.78125)" xlink:href="#DejaVuSans-48"/>
      </g>
     </g>
    </g>
    <g id="xtick_2">
     <g id="line2d_3">
      <path clip-path="url(#p21af975836)" d="M 114.390198 307.584 
L 114.390198 41.472 
" style="fill:none;stroke:#b0b0b0;stroke-dasharray:1.85,0.8;stroke-dashoffset:0;stroke-width:0.5;"/>
     </g>
     <g id="line2d_4">
      <g>
       <use style="stroke:#000000;stroke-width:0.8;" x="114.390198" xlink:href="#m3518c1fc7a" y="307.584"/>
      </g>
     </g>
     <g id="text_2">
      <!-- $\mathdefault{2.5}$ -->
      <g transform="translate(107.990198 320.66275)scale(0.08 -0.08)">
       <defs>
        <path d="M 19.1875 8.296875 
L 53.609375 8.296875 
L 53.609375 0 
L 7.328125 0 
L 7.328125 8.296875 
Q 12.9375 14.109375 22.625 23.890625 
Q 32.328125 33.6875 34.8125 36.53125 
Q 39.546875 41.84375 41.421875 45.53125 
Q 43.3125 49.21875 43.3125 52.78125 
Q 43.3125 58.59375 39.234375 62.25 
Q 35.15625 65.921875 28.609375 65.921875 
Q 23.96875 65.921875 18.8125 64.3125 
Q 13.671875 62.703125 7.8125 59.421875 
L 7.8125 69.390625 
Q 13.765625 71.78125 18.9375 73 
Q 24.125 74.21875 28.421875 74.21875 
Q 39.75 74.21875 46.484375 68.546875 
Q 53.21875 62.890625 53.21875 53.421875 
Q 53.21875 48.921875 51.53125 44.890625 
Q 49.859375 40.875 45.40625 35.40625 
Q 44.1875 33.984375 37.640625 27.21875 
Q 31.109375 20.453125 19.1875 8.296875 
z
" id="DejaVuSans-50"/>
        <path d="M 10.796875 72.90625 
L 49.515625 72.90625 
L 49.515625 64.59375 
L 19.828125 64.59375 
L 19.828125 46.734375 
Q 21.96875 47.46875 24.109375 47.828125 
Q 26.265625 48.1875 28.421875 48.1875 
Q 40.625 48.1875 47.75 41.5 
Q 54.890625 34.8125 54.890625 23.390625 
Q 54.890625 11.625 47.5625 5.09375 
Q 40.234375 -1.421875 26.90625 -1.421875 
Q 22.3125 -1.421875 17.546875 -0.640625 
Q 12.796875 0.140625 7.71875 1.703125 
L 7.71875 11.625 
Q 12.109375 9.234375 16.796875 8.0625 
Q 21.484375 6.890625 26.703125 6.890625 
Q 35.15625 6.890625 40.078125 11.328125 
Q 45.015625 15.765625 45.015625 23.390625 
Q 45.015625 31 40.078125 35.4375 
Q 35.15625 39.890625 26.703125 39.890625 
Q 22.75 39.890625 18.8125 39.015625 
Q 14.890625 38.140625 10.796875 36.28125 
z
" id="DejaVuSans-53"/>
       </defs>
       <use transform="translate(0 0.78125)" xlink:href="#DejaVuSans-50"/>
       <use transform="translate(63.623047 0.78125)" xlink:href="#DejaVuSans-46"/>
       <use transform="translate(95.410156 0.78125)" xlink:href="#DejaVuSans-53"/>
      </g>
     </g>
    </g>
    <g id="xtick_3">
     <g id="line2d_5">
      <path clip-path="url(#p21af975836)" d="M 154.963902 307.584 
L 154.963902 41.472 
" style="fill:none;stroke:#b0b0b0;stroke-dasharray:1.85,0.8;stroke-dashoffset:0;stroke-width:0.5;"/>
     </g>
     <g id="line2d_6">
      <g>
       <use style="stroke:#000000;stroke-width:0.8;" x="154.963902" xlink:href="#m3518c1fc7a" y="307.584"/>
      </g>
     </g>
     <g id="text_3">
      <!-- $\mathdefault{5.0}$ -->
      <g transform="translate(148.563902 320.66275)scale(0.08 -0.08)">
       <use transform="translate(0 0.78125)" xlink:href="#DejaVuSans-53"/>
       <use transform="translate(63.623047 0.78125)" xlink:href="#DejaVuSans-46"/>
       <use transform="translate(95.410156 0.78125)" xlink:href="#DejaVuSans-48"/>
      </g>
     </g>
    </g>
    <g id="xtick_4">
     <g id="line2d_7">
      <path clip-path="url(#p21af975836)" d="M 195.537607 307.584 
L 195.537607 41.472 
" style="fill:none;stroke:#b0b0b0;stroke-dasharray:1.85,0.8;stroke-dashoffset:0;stroke-width:0.5;"/>
     </g>
     <g id="line2d_8">
      <g>
       <use style="stroke:#000000;stroke-width:0.8;" x="195.537607" xlink:href="#m3518c1fc7a" y="307.584"/>
      </g>
     </g>
     <g id="text_4">
      <!-- $\mathdefault{7.5}$ -->
      <g transform="translate(189.137607 320.66275)scale(0.08 -0.08)">
       <defs>
        <path d="M 8.203125 72.90625 
L 55.078125 72.90625 
L 55.078125 68.703125 
L 28.609375 0 
L 18.3125 0 
L 43.21875 64.59375 
L 8.203125 64.59375 
z
" id="DejaVuSans-55"/>
       </defs>
       <use transform="translate(0 0.09375)" xlink:href="#DejaVuSans-55"/>
       <use transform="translate(63.623047 0.09375)" xlink:href="#DejaVuSans-46"/>
       <use transform="translate(95.410156 0.09375)" xlink:href="#DejaVuSans-53"/>
      </g>
     </g>
    </g>
    <g id="xtick_5">
     <g id="line2d_9">
      <path clip-path="url(#p21af975836)" d="M 236.111312 307.584 
L 236.111312 41.472 
" style="fill:none;stroke:#b0b0b0;stroke-dasharray:1.85,0.8;stroke-dashoffset:0;stroke-width:0.5;"/>
     </g>
     <g id="line2d_10">
      <g>
       <use style="stroke:#000000;stroke-width:0.8;" x="236.111312" xlink:href="#m3518c1fc7a" y="307.584"/>
      </g>
     </g>
     <g id="text_5">
      <!-- $\mathdefault{10.0}$ -->
      <g transform="translate(227.191312 320.66275)scale(0.08 -0.08)">
       <defs>
        <path d="M 12.40625 8.296875 
L 28.515625 8.296875 
L 28.515625 63.921875 
L 10.984375 60.40625 
L 10.984375 69.390625 
L 28.421875 72.90625 
L 38.28125 72.90625 
L 38.28125 8.296875 
L 54.390625 8.296875 
L 54.390625 0 
L 12.40625 0 
z
" id="DejaVuSans-49"/>
       </defs>
       <use transform="translate(0 0.78125)" xlink:href="#DejaVuSans-49"/>
       <use transform="translate(63.623047 0.78125)" xlink:href="#DejaVuSans-48"/>
       <use transform="translate(127.246094 0.78125)" xlink:href="#DejaVuSans-46"/>
       <use transform="translate(159.033203 0.78125)" xlink:href="#DejaVuSans-48"/>
      </g>
     </g>
    </g>
    <g id="xtick_6">
     <g id="line2d_11">
      <path clip-path="url(#p21af975836)" d="M 276.685016 307.584 
L 276.685016 41.472 
" style="fill:none;stroke:#b0b0b0;stroke-dasharray:1.85,0.8;stroke-dashoffset:0;stroke-width:0.5;"/>
     </g>
     <g id="line2d_12">
      <g>
       <use style="stroke:#000000;stroke-width:0.8;" x="276.685016" xlink:href="#m3518c1fc7a" y="307.584"/>
      </g>
     </g>
     <g id="text_6">
      <!-- $\mathdefault{12.5}$ -->
      <g transform="translate(267.765016 320.66275)scale(0.08 -0.08)">
       <use transform="translate(0 0.78125)" xlink:href="#DejaVuSans-49"/>
       <use transform="translate(63.623047 0.78125)" xlink:href="#DejaVuSans-50"/>
       <use transform="translate(127.246094 0.78125)" xlink:href="#DejaVuSans-46"/>
       <use transform="translate(159.033203 0.78125)" xlink:href="#DejaVuSans-53"/>
      </g>
     </g>
    </g>
    <g id="xtick_7">
     <g id="line2d_13">
      <path clip-path="url(#p21af975836)" d="M 317.258721 307.584 
L 317.258721 41.472 
" style="fill:none;stroke:#b0b0b0;stroke-dasharray:1.85,0.8;stroke-dashoffset:0;stroke-width:0.5;"/>
     </g>
     <g id="line2d_14">
      <g>
       <use style="stroke:#000000;stroke-width:0.8;" x="317.258721" xlink:href="#m3518c1fc7a" y="307.584"/>
      </g>
     </g>
     <g id="text_7">
      <!-- $\mathdefault{15.0}$ -->
      <g transform="translate(308.338721 320.66275)scale(0.08 -0.08)">
       <use transform="translate(0 0.78125)" xlink:href="#DejaVuSans-49"/>
       <use transform="translate(63.623047 0.78125)" xlink:href="#DejaVuSans-53"/>
       <use transform="translate(127.246094 0.78125)" xlink:href="#DejaVuSans-46"/>
       <use transform="translate(159.033203 0.78125)" xlink:href="#DejaVuSans-48"/>
      </g>
     </g>
    </g>
    <g id="xtick_8">
     <g id="line2d_15">
      <path clip-path="url(#p21af975836)" d="M 357.832426 307.584 
L 357.832426 41.472 
" style="fill:none;stroke:#b0b0b0;stroke-dasharray:1.85,0.8;stroke-dashoffset:0;stroke-width:0.5;"/>
     </g>
     <g id="line2d_16">
      <g>
       <use style="stroke:#000000;stroke-width:0.8;" x="357.832426" xlink:href="#m3518c1fc7a" y="307.584"/>
      </g>
     </g>
     <g id="text_8">
      <!-- $\mathdefault{17.5}$ -->
      <g transform="translate(348.912426 320.66275)scale(0.08 -0.08)">
       <use transform="translate(0 0.09375)" xlink:href="#DejaVuSans-49"/>
       <use transform="translate(63.623047 0.09375)" xlink:href="#DejaVuSans-55"/>
       <use transform="translate(127.246094 0.09375)" xlink:href="#DejaVuSans-46"/>
       <use transform="translate(159.033203 0.09375)" xlink:href="#DejaVuSans-53"/>
      </g>
     </g>
    </g>
    <g id="xtick_9">
     <g id="line2d_17">
      <path clip-path="url(#p21af975836)" d="M 398.40613 307.584 
L 398.40613 41.472 
" style="fill:none;stroke:#b0b0b0;stroke-dasharray:1.85,0.8;stroke-dashoffset:0;stroke-width:0.5;"/>
     </g>
     <g id="line2d_18">
      <g>
       <use style="stroke:#000000;stroke-width:0.8;" x="398.40613" xlink:href="#m3518c1fc7a" y="307.584"/>
      </g>
     </g>
     <g id="text_9">
      <!-- $\mathdefault{20.0}$ -->
      <g transform="translate(389.48613 320.66275)scale(0.08 -0.08)">
       <use transform="translate(0 0.78125)" xlink:href="#DejaVuSans-50"/>
       <use transform="translate(63.623047 0.78125)" xlink:href="#DejaVuSans-48"/>
       <use transform="translate(127.246094 0.78125)" xlink:href="#DejaVuSans-46"/>
       <use transform="translate(159.033203 0.78125)" xlink:href="#DejaVuSans-48"/>
      </g>
     </g>
    </g>
    <g id="xtick_10">
     <g id="line2d_19">
      <defs>
       <path d="M 0 2.5 
L 0 -2.5 
" id="m47c50369a5" style="stroke:#000000;stroke-width:0.6;"/>
      </defs>
      <g>
       <use style="stroke:#000000;stroke-width:0.6;" x="65.701752" xlink:href="#m47c50369a5" y="307.584"/>
      </g>
     </g>
    </g>
    <g id="xtick_11">
     <g id="line2d_20">
      <g>
       <use style="stroke:#000000;stroke-width:0.6;" x="81.931234" xlink:href="#m47c50369a5" y="307.584"/>
      </g>
     </g>
    </g>
    <g id="xtick_12">
     <g id="line2d_21">
      <g>
       <use style="stroke:#000000;stroke-width:0.6;" x="90.045975" xlink:href="#m47c50369a5" y="307.584"/>
      </g>
     </g>
    </g>
    <g id="xtick_13">
     <g id="line2d_22">
      <g>
       <use style="stroke:#000000;stroke-width:0.6;" x="98.160716" xlink:href="#m47c50369a5" y="307.584"/>
      </g>
     </g>
    </g>
    <g id="xtick_14">
     <g id="line2d_23">
      <g>
       <use style="stroke:#000000;stroke-width:0.6;" x="106.275457" xlink:href="#m47c50369a5" y="307.584"/>
      </g>
     </g>
    </g>
    <g id="xtick_15">
     <g id="line2d_24">
      <g>
       <use style="stroke:#000000;stroke-width:0.6;" x="122.504939" xlink:href="#m47c50369a5" y="307.584"/>
      </g>
     </g>
    </g>
    <g id="xtick_16">
     <g id="line2d_25">
      <g>
       <use style="stroke:#000000;stroke-width:0.6;" x="130.619679" xlink:href="#m47c50369a5" y="307.584"/>
      </g>
     </g>
    </g>
    <g id="xtick_17">
     <g id="line2d_26">
      <g>
       <use style="stroke:#000000;stroke-width:0.6;" x="138.73442" xlink:href="#m47c50369a5" y="307.584"/>
      </g>
     </g>
    </g>
    <g id="xtick_18">
     <g id="line2d_27">
      <g>
       <use style="stroke:#000000;stroke-width:0.6;" x="146.849161" xlink:href="#m47c50369a5" y="307.584"/>
      </g>
     </g>
    </g>
    <g id="xtick_19">
     <g id="line2d_28">
      <g>
       <use style="stroke:#000000;stroke-width:0.6;" x="163.078643" xlink:href="#m47c50369a5" y="307.584"/>
      </g>
     </g>
    </g>
    <g id="xtick_20">
     <g id="line2d_29">
      <g>
       <use style="stroke:#000000;stroke-width:0.6;" x="171.193384" xlink:href="#m47c50369a5" y="307.584"/>
      </g>
     </g>
    </g>
    <g id="xtick_21">
     <g id="line2d_30">
      <g>
       <use style="stroke:#000000;stroke-width:0.6;" x="179.308125" xlink:href="#m47c50369a5" y="307.584"/>
      </g>
     </g>
    </g>
    <g id="xtick_22">
     <g id="line2d_31">
      <g>
       <use style="stroke:#000000;stroke-width:0.6;" x="187.422866" xlink:href="#m47c50369a5" y="307.584"/>
      </g>
     </g>
    </g>
    <g id="xtick_23">
     <g id="line2d_32">
      <g>
       <use style="stroke:#000000;stroke-width:0.6;" x="203.652348" xlink:href="#m47c50369a5" y="307.584"/>
      </g>
     </g>
    </g>
    <g id="xtick_24">
     <g id="line2d_33">
      <g>
       <use style="stroke:#000000;stroke-width:0.6;" x="211.767089" xlink:href="#m47c50369a5" y="307.584"/>
      </g>
     </g>
    </g>
    <g id="xtick_25">
     <g id="line2d_34">
      <g>
       <use style="stroke:#000000;stroke-width:0.6;" x="219.88183" xlink:href="#m47c50369a5" y="307.584"/>
      </g>
     </g>
    </g>
    <g id="xtick_26">
     <g id="line2d_35">
      <g>
       <use style="stroke:#000000;stroke-width:0.6;" x="227.996571" xlink:href="#m47c50369a5" y="307.584"/>
      </g>
     </g>
    </g>
    <g id="xtick_27">
     <g id="line2d_36">
      <g>
       <use style="stroke:#000000;stroke-width:0.6;" x="244.226052" xlink:href="#m47c50369a5" y="307.584"/>
      </g>
     </g>
    </g>
    <g id="xtick_28">
     <g id="line2d_37">
      <g>
       <use style="stroke:#000000;stroke-width:0.6;" x="252.340793" xlink:href="#m47c50369a5" y="307.584"/>
      </g>
     </g>
    </g>
    <g id="xtick_29">
     <g id="line2d_38">
      <g>
       <use style="stroke:#000000;stroke-width:0.6;" x="260.455534" xlink:href="#m47c50369a5" y="307.584"/>
      </g>
     </g>
    </g>
    <g id="xtick_30">
     <g id="line2d_39">
      <g>
       <use style="stroke:#000000;stroke-width:0.6;" x="268.570275" xlink:href="#m47c50369a5" y="307.584"/>
      </g>
     </g>
    </g>
    <g id="xtick_31">
     <g id="line2d_40">
      <g>
       <use style="stroke:#000000;stroke-width:0.6;" x="284.799757" xlink:href="#m47c50369a5" y="307.584"/>
      </g>
     </g>
    </g>
    <g id="xtick_32">
     <g id="line2d_41">
      <g>
       <use style="stroke:#000000;stroke-width:0.6;" x="292.914498" xlink:href="#m47c50369a5" y="307.584"/>
      </g>
     </g>
    </g>
    <g id="xtick_33">
     <g id="line2d_42">
      <g>
       <use style="stroke:#000000;stroke-width:0.6;" x="301.029239" xlink:href="#m47c50369a5" y="307.584"/>
      </g>
     </g>
    </g>
    <g id="xtick_34">
     <g id="line2d_43">
      <g>
       <use style="stroke:#000000;stroke-width:0.6;" x="309.14398" xlink:href="#m47c50369a5" y="307.584"/>
      </g>
     </g>
    </g>
    <g id="xtick_35">
     <g id="line2d_44">
      <g>
       <use style="stroke:#000000;stroke-width:0.6;" x="325.373462" xlink:href="#m47c50369a5" y="307.584"/>
      </g>
     </g>
    </g>
    <g id="xtick_36">
     <g id="line2d_45">
      <g>
       <use style="stroke:#000000;stroke-width:0.6;" x="333.488203" xlink:href="#m47c50369a5" y="307.584"/>
      </g>
     </g>
    </g>
    <g id="xtick_37">
     <g id="line2d_46">
      <g>
       <use style="stroke:#000000;stroke-width:0.6;" x="341.602944" xlink:href="#m47c50369a5" y="307.584"/>
      </g>
     </g>
    </g>
    <g id="xtick_38">
     <g id="line2d_47">
      <g>
       <use style="stroke:#000000;stroke-width:0.6;" x="349.717685" xlink:href="#m47c50369a5" y="307.584"/>
      </g>
     </g>
    </g>
    <g id="xtick_39">
     <g id="line2d_48">
      <g>
       <use style="stroke:#000000;stroke-width:0.6;" x="365.947166" xlink:href="#m47c50369a5" y="307.584"/>
      </g>
     </g>
    </g>
    <g id="xtick_40">
     <g id="line2d_49">
      <g>
       <use style="stroke:#000000;stroke-width:0.6;" x="374.061907" xlink:href="#m47c50369a5" y="307.584"/>
      </g>
     </g>
    </g>
    <g id="xtick_41">
     <g id="line2d_50">
      <g>
       <use style="stroke:#000000;stroke-width:0.6;" x="382.176648" xlink:href="#m47c50369a5" y="307.584"/>
      </g>
     </g>
    </g>
    <g id="xtick_42">
     <g id="line2d_51">
      <g>
       <use style="stroke:#000000;stroke-width:0.6;" x="390.291389" xlink:href="#m47c50369a5" y="307.584"/>
      </g>
     </g>
    </g>
    <g id="xtick_43">
     <g id="line2d_52">
      <g>
       <use style="stroke:#000000;stroke-width:0.6;" x="406.520871" xlink:href="#m47c50369a5" y="307.584"/>
      </g>
     </g>
    </g>
    <g id="xtick_44">
     <g id="line2d_53">
      <g>
       <use style="stroke:#000000;stroke-width:0.6;" x="414.635612" xlink:href="#m47c50369a5" y="307.584"/>
      </g>
     </g>
    </g>
    <g id="text_10">
     <!-- Hodnota indikátoru SDoLEGE -->
     <g transform="translate(163.436562 345.924937)scale(0.1 -0.1)">
      <defs>
       <path d="M 9.8125 72.90625 
L 19.671875 72.90625 
L 19.671875 43.015625 
L 55.515625 43.015625 
L 55.515625 72.90625 
L 65.375 72.90625 
L 65.375 0 
L 55.515625 0 
L 55.515625 34.71875 
L 19.671875 34.71875 
L 19.671875 0 
L 9.8125 0 
z
" id="DejaVuSans-72"/>
       <path d="M 30.609375 48.390625 
Q 23.390625 48.390625 19.1875 42.75 
Q 14.984375 37.109375 14.984375 27.296875 
Q 14.984375 17.484375 19.15625 11.84375 
Q 23.34375 6.203125 30.609375 6.203125 
Q 37.796875 6.203125 41.984375 11.859375 
Q 46.1875 17.53125 46.1875 27.296875 
Q 46.1875 37.015625 41.984375 42.703125 
Q 37.796875 48.390625 30.609375 48.390625 
z
M 30.609375 56 
Q 42.328125 56 49.015625 48.375 
Q 55.71875 40.765625 55.71875 27.296875 
Q 55.71875 13.875 49.015625 6.21875 
Q 42.328125 -1.421875 30.609375 -1.421875 
Q 18.84375 -1.421875 12.171875 6.21875 
Q 5.515625 13.875 5.515625 27.296875 
Q 5.515625 40.765625 12.171875 48.375 
Q 18.84375 56 30.609375 56 
z
" id="DejaVuSans-111"/>
       <path d="M 45.40625 46.390625 
L 45.40625 75.984375 
L 54.390625 75.984375 
L 54.390625 0 
L 45.40625 0 
L 45.40625 8.203125 
Q 42.578125 3.328125 38.25 0.953125 
Q 33.9375 -1.421875 27.875 -1.421875 
Q 17.96875 -1.421875 11.734375 6.484375 
Q 5.515625 14.40625 5.515625 27.296875 
Q 5.515625 40.1875 11.734375 48.09375 
Q 17.96875 56 27.875 56 
Q 33.9375 56 38.25 53.625 
Q 42.578125 51.265625 45.40625 46.390625 
z
M 14.796875 27.296875 
Q 14.796875 17.390625 18.875 11.75 
Q 22.953125 6.109375 30.078125 6.109375 
Q 37.203125 6.109375 41.296875 11.75 
Q 45.40625 17.390625 45.40625 27.296875 
Q 45.40625 37.203125 41.296875 42.84375 
Q 37.203125 48.484375 30.078125 48.484375 
Q 22.953125 48.484375 18.875 42.84375 
Q 14.796875 37.203125 14.796875 27.296875 
z
" id="DejaVuSans-100"/>
       <path d="M 54.890625 33.015625 
L 54.890625 0 
L 45.90625 0 
L 45.90625 32.71875 
Q 45.90625 40.484375 42.875 44.328125 
Q 39.84375 48.1875 33.796875 48.1875 
Q 26.515625 48.1875 22.3125 43.546875 
Q 18.109375 38.921875 18.109375 30.90625 
L 18.109375 0 
L 9.078125 0 
L 9.078125 54.6875 
L 18.109375 54.6875 
L 18.109375 46.1875 
Q 21.34375 51.125 25.703125 53.5625 
Q 30.078125 56 35.796875 56 
Q 45.21875 56 50.046875 50.171875 
Q 54.890625 44.34375 54.890625 33.015625 
z
" id="DejaVuSans-110"/>
       <path d="M 18.3125 70.21875 
L 18.3125 54.6875 
L 36.8125 54.6875 
L 36.8125 47.703125 
L 18.3125 47.703125 
L 18.3125 18.015625 
Q 18.3125 11.328125 20.140625 9.421875 
Q 21.96875 7.515625 27.59375 7.515625 
L 36.8125 7.515625 
L 36.8125 0 
L 27.59375 0 
Q 17.1875 0 13.234375 3.875 
Q 9.28125 7.765625 9.28125 18.015625 
L 9.28125 47.703125 
L 2.6875 47.703125 
L 2.6875 54.6875 
L 9.28125 54.6875 
L 9.28125 70.21875 
z
" id="DejaVuSans-116"/>
       <path d="M 34.28125 27.484375 
Q 23.390625 27.484375 19.1875 25 
Q 14.984375 22.515625 14.984375 16.5 
Q 14.984375 11.71875 18.140625 8.90625 
Q 21.296875 6.109375 26.703125 6.109375 
Q 34.1875 6.109375 38.703125 11.40625 
Q 43.21875 16.703125 43.21875 25.484375 
L 43.21875 27.484375 
z
M 52.203125 31.203125 
L 52.203125 0 
L 43.21875 0 
L 43.21875 8.296875 
Q 40.140625 3.328125 35.546875 0.953125 
Q 30.953125 -1.421875 24.3125 -1.421875 
Q 15.921875 -1.421875 10.953125 3.296875 
Q 6 8.015625 6 15.921875 
Q 6 25.140625 12.171875 29.828125 
Q 18.359375 34.515625 30.609375 34.515625 
L 43.21875 34.515625 
L 43.21875 35.40625 
Q 43.21875 41.609375 39.140625 45 
Q 35.0625 48.390625 27.6875 48.390625 
Q 23 48.390625 18.546875 47.265625 
Q 14.109375 46.140625 10.015625 43.890625 
L 10.015625 52.203125 
Q 14.9375 54.109375 19.578125 55.046875 
Q 24.21875 56 28.609375 56 
Q 40.484375 56 46.34375 49.84375 
Q 52.203125 43.703125 52.203125 31.203125 
z
" id="DejaVuSans-97"/>
       <path id="DejaVuSans-32"/>
       <path d="M 9.421875 54.6875 
L 18.40625 54.6875 
L 18.40625 0 
L 9.421875 0 
z
M 9.421875 75.984375 
L 18.40625 75.984375 
L 18.40625 64.59375 
L 9.421875 64.59375 
z
" id="DejaVuSans-105"/>
       <path d="M 9.078125 75.984375 
L 18.109375 75.984375 
L 18.109375 31.109375 
L 44.921875 54.6875 
L 56.390625 54.6875 
L 27.390625 29.109375 
L 57.625 0 
L 45.90625 0 
L 18.109375 26.703125 
L 18.109375 0 
L 9.078125 0 
z
" id="DejaVuSans-107"/>
       <path d="M 34.28125 27.484375 
Q 23.390625 27.484375 19.1875 25 
Q 14.984375 22.515625 14.984375 16.5 
Q 14.984375 11.71875 18.140625 8.90625 
Q 21.296875 6.109375 26.703125 6.109375 
Q 34.1875 6.109375 38.703125 11.40625 
Q 43.21875 16.703125 43.21875 25.484375 
L 43.21875 27.484375 
z
M 52.203125 31.203125 
L 52.203125 0 
L 43.21875 0 
L 43.21875 8.296875 
Q 40.140625 3.328125 35.546875 0.953125 
Q 30.953125 -1.421875 24.3125 -1.421875 
Q 15.921875 -1.421875 10.953125 3.296875 
Q 6 8.015625 6 15.921875 
Q 6 25.140625 12.171875 29.828125 
Q 18.359375 34.515625 30.609375 34.515625 
L 43.21875 34.515625 
L 43.21875 35.40625 
Q 43.21875 41.609375 39.140625 45 
Q 35.0625 48.390625 27.6875 48.390625 
Q 23 48.390625 18.546875 47.265625 
Q 14.109375 46.140625 10.015625 43.890625 
L 10.015625 52.203125 
Q 14.9375 54.109375 19.578125 55.046875 
Q 24.21875 56 28.609375 56 
Q 40.484375 56 46.34375 49.84375 
Q 52.203125 43.703125 52.203125 31.203125 
z
M 35.78125 79.984375 
L 45.5 79.984375 
L 29.59375 61.625 
L 22.109375 61.625 
z
" id="DejaVuSans-225"/>
       <path d="M 41.109375 46.296875 
Q 39.59375 47.171875 37.8125 47.578125 
Q 36.03125 48 33.890625 48 
Q 26.265625 48 22.1875 43.046875 
Q 18.109375 38.09375 18.109375 28.8125 
L 18.109375 0 
L 9.078125 0 
L 9.078125 54.6875 
L 18.109375 54.6875 
L 18.109375 46.1875 
Q 20.953125 51.171875 25.484375 53.578125 
Q 30.03125 56 36.53125 56 
Q 37.453125 56 38.578125 55.875 
Q 39.703125 55.765625 41.0625 55.515625 
z
" id="DejaVuSans-114"/>
       <path d="M 8.5 21.578125 
L 8.5 54.6875 
L 17.484375 54.6875 
L 17.484375 21.921875 
Q 17.484375 14.15625 20.5 10.265625 
Q 23.53125 6.390625 29.59375 6.390625 
Q 36.859375 6.390625 41.078125 11.03125 
Q 45.3125 15.671875 45.3125 23.6875 
L 45.3125 54.6875 
L 54.296875 54.6875 
L 54.296875 0 
L 45.3125 0 
L 45.3125 8.40625 
Q 42.046875 3.421875 37.71875 1 
Q 33.40625 -1.421875 27.6875 -1.421875 
Q 18.265625 -1.421875 13.375 4.4375 
Q 8.5 10.296875 8.5 21.578125 
z
M 31.109375 56 
z
" id="DejaVuSans-117"/>
       <path d="M 53.515625 70.515625 
L 53.515625 60.890625 
Q 47.90625 63.578125 42.921875 64.890625 
Q 37.9375 66.21875 33.296875 66.21875 
Q 25.25 66.21875 20.875 63.09375 
Q 16.5 59.96875 16.5 54.203125 
Q 16.5 49.359375 19.40625 46.890625 
Q 22.3125 44.4375 30.421875 42.921875 
L 36.375 41.703125 
Q 47.40625 39.59375 52.65625 34.296875 
Q 57.90625 29 57.90625 20.125 
Q 57.90625 9.515625 50.796875 4.046875 
Q 43.703125 -1.421875 29.984375 -1.421875 
Q 24.8125 -1.421875 18.96875 -0.25 
Q 13.140625 0.921875 6.890625 3.21875 
L 6.890625 13.375 
Q 12.890625 10.015625 18.65625 8.296875 
Q 24.421875 6.59375 29.984375 6.59375 
Q 38.421875 6.59375 43.015625 9.90625 
Q 47.609375 13.234375 47.609375 19.390625 
Q 47.609375 24.75 44.3125 27.78125 
Q 41.015625 30.8125 33.5 32.328125 
L 27.484375 33.5 
Q 16.453125 35.6875 11.515625 40.375 
Q 6.59375 45.0625 6.59375 53.421875 
Q 6.59375 63.09375 13.40625 68.65625 
Q 20.21875 74.21875 32.171875 74.21875 
Q 37.3125 74.21875 42.625 73.28125 
Q 47.953125 72.359375 53.515625 70.515625 
z
" id="DejaVuSans-83"/>
       <path d="M 19.671875 64.796875 
L 19.671875 8.109375 
L 31.59375 8.109375 
Q 46.6875 8.109375 53.6875 14.9375 
Q 60.6875 21.78125 60.6875 36.53125 
Q 60.6875 51.171875 53.6875 57.984375 
Q 46.6875 64.796875 31.59375 64.796875 
z
M 9.8125 72.90625 
L 30.078125 72.90625 
Q 51.265625 72.90625 61.171875 64.09375 
Q 71.09375 55.28125 71.09375 36.53125 
Q 71.09375 17.671875 61.125 8.828125 
Q 51.171875 0 30.078125 0 
L 9.8125 0 
z
" id="DejaVuSans-68"/>
       <path d="M 9.8125 72.90625 
L 19.671875 72.90625 
L 19.671875 8.296875 
L 55.171875 8.296875 
L 55.171875 0 
L 9.8125 0 
z
" id="DejaVuSans-76"/>
       <path d="M 9.8125 72.90625 
L 55.90625 72.90625 
L 55.90625 64.59375 
L 19.671875 64.59375 
L 19.671875 43.015625 
L 54.390625 43.015625 
L 54.390625 34.71875 
L 19.671875 34.71875 
L 19.671875 8.296875 
L 56.78125 8.296875 
L 56.78125 0 
L 9.8125 0 
z
" id="DejaVuSans-69"/>
       <path d="M 59.515625 10.40625 
L 59.515625 29.984375 
L 43.40625 29.984375 
L 43.40625 38.09375 
L 69.28125 38.09375 
L 69.28125 6.78125 
Q 63.578125 2.734375 56.6875 0.65625 
Q 49.8125 -1.421875 42 -1.421875 
Q 24.90625 -1.421875 15.25 8.5625 
Q 5.609375 18.5625 5.609375 36.375 
Q 5.609375 54.25 15.25 64.234375 
Q 24.90625 74.21875 42 74.21875 
Q 49.125 74.21875 55.546875 72.453125 
Q 61.96875 70.703125 67.390625 67.28125 
L 67.390625 56.78125 
Q 61.921875 61.421875 55.765625 63.765625 
Q 49.609375 66.109375 42.828125 66.109375 
Q 29.4375 66.109375 22.71875 58.640625 
Q 16.015625 51.171875 16.015625 36.375 
Q 16.015625 21.625 22.71875 14.15625 
Q 29.4375 6.6875 42.828125 6.6875 
Q 48.046875 6.6875 52.140625 7.59375 
Q 56.25 8.5 59.515625 10.40625 
z
" id="DejaVuSans-71"/>
      </defs>
      <use xlink:href="#DejaVuSans-72"/>
      <use x="75.195312" xlink:href="#DejaVuSans-111"/>
      <use x="136.376953" xlink:href="#DejaVuSans-100"/>
      <use x="199.853516" xlink:href="#DejaVuSans-110"/>
      <use x="263.232422" xlink:href="#DejaVuSans-111"/>
      <use x="324.414062" xlink:href="#DejaVuSans-116"/>
      <use x="363.623047" xlink:href="#DejaVuSans-97"/>
      <use x="424.902344" xlink:href="#DejaVuSans-32"/>
      <use x="456.689453" xlink:href="#DejaVuSans-105"/>
      <use x="484.472656" xlink:href="#DejaVuSans-110"/>
      <use x="547.851562" xlink:href="#DejaVuSans-100"/>
      <use x="611.328125" xlink:href="#DejaVuSans-105"/>
      <use x="639.111328" xlink:href="#DejaVuSans-107"/>
      <use x="695.271484" xlink:href="#DejaVuSans-225"/>
      <use x="756.550781" xlink:href="#DejaVuSans-116"/>
      <use x="795.759766" xlink:href="#DejaVuSans-111"/>
      <use x="856.941406" xlink:href="#DejaVuSans-114"/>
      <use x="898.054688" xlink:href="#DejaVuSans-117"/>
      <use x="961.433594" xlink:href="#DejaVuSans-32"/>
      <use x="993.220703" xlink:href="#DejaVuSans-83"/>
      <use x="1056.697266" xlink:href="#DejaVuSans-68"/>
      <use x="1133.699219" xlink:href="#DejaVuSans-111"/>
      <use x="1194.880859" xlink:href="#DejaVuSans-76"/>
      <use x="1250.59375" xlink:href="#DejaVuSans-69"/>
      <use x="1313.777344" xlink:href="#DejaVuSans-71"/>
      <use x="1391.267578" xlink:href="#DejaVuSans-69"/>
     </g>
    </g>
   </g>
   <g id="matplotlib.axis_2">
    <g id="ytick_1">
     <g id="line2d_54">
      <path clip-path="url(#p21af975836)" d="M 57.6 275.943437 
L 414.72 275.943437 
" style="fill:none;stroke:#b0b0b0;stroke-dasharray:1.85,0.8;stroke-dashoffset:0;stroke-width:0.5;"/>
     </g>
     <g id="line2d_55">
      <defs>
       <path d="M 3.5 0 
L -3.5 -0 
" id="m7b373b56e5" style="stroke:#000000;stroke-width:0.8;"/>
      </defs>
      <g>
       <use style="stroke:#000000;stroke-width:0.8;" x="57.6" xlink:href="#m7b373b56e5" y="275.943437"/>
      </g>
     </g>
     <g id="text_11">
      <!-- $\mathdefault{0.2}$ -->
      <g transform="translate(38.28 278.982812)scale(0.08 -0.08)">
       <use transform="translate(0 0.78125)" xlink:href="#DejaVuSans-48"/>
       <use transform="translate(63.623047 0.78125)" xlink:href="#DejaVuSans-46"/>
       <use transform="translate(89.910156 0.78125)" xlink:href="#DejaVuSans-50"/>
      </g>
     </g>
    </g>
    <g id="ytick_2">
     <g id="line2d_56">
      <path clip-path="url(#p21af975836)" d="M 57.6 243.366993 
L 414.72 243.366993 
" style="fill:none;stroke:#b0b0b0;stroke-dasharray:1.85,0.8;stroke-dashoffset:0;stroke-width:0.5;"/>
     </g>
     <g id="line2d_57">
      <g>
       <use style="stroke:#000000;stroke-width:0.8;" x="57.6" xlink:href="#m7b373b56e5" y="243.366993"/>
      </g>
     </g>
     <g id="text_12">
      <!-- $\mathdefault{0.4}$ -->
      <g transform="translate(37.8 246.406368)scale(0.08 -0.08)">
       <defs>
        <path d="M 37.796875 64.3125 
L 12.890625 25.390625 
L 37.796875 25.390625 
z
M 35.203125 72.90625 
L 47.609375 72.90625 
L 47.609375 25.390625 
L 58.015625 25.390625 
L 58.015625 17.1875 
L 47.609375 17.1875 
L 47.609375 0 
L 37.796875 0 
L 37.796875 17.1875 
L 4.890625 17.1875 
L 4.890625 26.703125 
z
" id="DejaVuSans-52"/>
       </defs>
       <use transform="translate(0 0.78125)" xlink:href="#DejaVuSans-48"/>
       <use transform="translate(63.623047 0.78125)" xlink:href="#DejaVuSans-46"/>
       <use transform="translate(95.410156 0.78125)" xlink:href="#DejaVuSans-52"/>
      </g>
     </g>
    </g>
    <g id="ytick_3">
     <g id="line2d_58">
      <path clip-path="url(#p21af975836)" d="M 57.6 210.79055 
L 414.72 210.79055 
" style="fill:none;stroke:#b0b0b0;stroke-dasharray:1.85,0.8;stroke-dashoffset:0;stroke-width:0.5;"/>
     </g>
     <g id="line2d_59">
      <g>
       <use style="stroke:#000000;stroke-width:0.8;" x="57.6" xlink:href="#m7b373b56e5" y="210.79055"/>
      </g>
     </g>
     <g id="text_13">
      <!-- $\mathdefault{0.6}$ -->
      <g transform="translate(37.8 213.829925)scale(0.08 -0.08)">
       <defs>
        <path d="M 33.015625 40.375 
Q 26.375 40.375 22.484375 35.828125 
Q 18.609375 31.296875 18.609375 23.390625 
Q 18.609375 15.53125 22.484375 10.953125 
Q 26.375 6.390625 33.015625 6.390625 
Q 39.65625 6.390625 43.53125 10.953125 
Q 47.40625 15.53125 47.40625 23.390625 
Q 47.40625 31.296875 43.53125 35.828125 
Q 39.65625 40.375 33.015625 40.375 
z
M 52.59375 71.296875 
L 52.59375 62.3125 
Q 48.875 64.0625 45.09375 64.984375 
Q 41.3125 65.921875 37.59375 65.921875 
Q 27.828125 65.921875 22.671875 59.328125 
Q 17.53125 52.734375 16.796875 39.40625 
Q 19.671875 43.65625 24.015625 45.921875 
Q 28.375 48.1875 33.59375 48.1875 
Q 44.578125 48.1875 50.953125 41.515625 
Q 57.328125 34.859375 57.328125 23.390625 
Q 57.328125 12.15625 50.6875 5.359375 
Q 44.046875 -1.421875 33.015625 -1.421875 
Q 20.359375 -1.421875 13.671875 8.265625 
Q 6.984375 17.96875 6.984375 36.375 
Q 6.984375 53.65625 15.1875 63.9375 
Q 23.390625 74.21875 37.203125 74.21875 
Q 40.921875 74.21875 44.703125 73.484375 
Q 48.484375 72.75 52.59375 71.296875 
z
" id="DejaVuSans-54"/>
       </defs>
       <use transform="translate(0 0.78125)" xlink:href="#DejaVuSans-48"/>
       <use transform="translate(63.623047 0.78125)" xlink:href="#DejaVuSans-46"/>
       <use transform="translate(95.410156 0.78125)" xlink:href="#DejaVuSans-54"/>
      </g>
     </g>
    </g>
    <g id="ytick_4">
     <g id="line2d_60">
      <path clip-path="url(#p21af975836)" d="M 57.6 178.214106 
L 414.72 178.214106 
" style="fill:none;stroke:#b0b0b0;stroke-dasharray:1.85,0.8;stroke-dashoffset:0;stroke-width:0.5;"/>
     </g>
     <g id="line2d_61">
      <g>
       <use style="stroke:#000000;stroke-width:0.8;" x="57.6" xlink:href="#m7b373b56e5" y="178.214106"/>
      </g>
     </g>
     <g id="text_14">
      <!-- $\mathdefault{0.8}$ -->
      <g transform="translate(38.04 181.253481)scale(0.08 -0.08)">
       <defs>
        <path d="M 31.78125 34.625 
Q 24.75 34.625 20.71875 30.859375 
Q 16.703125 27.09375 16.703125 20.515625 
Q 16.703125 13.921875 20.71875 10.15625 
Q 24.75 6.390625 31.78125 6.390625 
Q 38.8125 6.390625 42.859375 10.171875 
Q 46.921875 13.96875 46.921875 20.515625 
Q 46.921875 27.09375 42.890625 30.859375 
Q 38.875 34.625 31.78125 34.625 
z
M 21.921875 38.8125 
Q 15.578125 40.375 12.03125 44.71875 
Q 8.5 49.078125 8.5 55.328125 
Q 8.5 64.0625 14.71875 69.140625 
Q 20.953125 74.21875 31.78125 74.21875 
Q 42.671875 74.21875 48.875 69.140625 
Q 55.078125 64.0625 55.078125 55.328125 
Q 55.078125 49.078125 51.53125 44.71875 
Q 48 40.375 41.703125 38.8125 
Q 48.828125 37.15625 52.796875 32.3125 
Q 56.78125 27.484375 56.78125 20.515625 
Q 56.78125 9.90625 50.3125 4.234375 
Q 43.84375 -1.421875 31.78125 -1.421875 
Q 19.734375 -1.421875 13.25 4.234375 
Q 6.78125 9.90625 6.78125 20.515625 
Q 6.78125 27.484375 10.78125 32.3125 
Q 14.796875 37.15625 21.921875 38.8125 
z
M 18.3125 54.390625 
Q 18.3125 48.734375 21.84375 45.5625 
Q 25.390625 42.390625 31.78125 42.390625 
Q 38.140625 42.390625 41.71875 45.5625 
Q 45.3125 48.734375 45.3125 54.390625 
Q 45.3125 60.0625 41.71875 63.234375 
Q 38.140625 66.40625 31.78125 66.40625 
Q 25.390625 66.40625 21.84375 63.234375 
Q 18.3125 60.0625 18.3125 54.390625 
z
" id="DejaVuSans-56"/>
       </defs>
       <use transform="translate(0 0.78125)" xlink:href="#DejaVuSans-48"/>
       <use transform="translate(63.623047 0.78125)" xlink:href="#DejaVuSans-46"/>
       <use transform="translate(92.785156 0.78125)" xlink:href="#DejaVuSans-56"/>
      </g>
     </g>
    </g>
    <g id="ytick_5">
     <g id="line2d_62">
      <path clip-path="url(#p21af975836)" d="M 57.6 145.637662 
L 414.72 145.637662 
" style="fill:none;stroke:#b0b0b0;stroke-dasharray:1.85,0.8;stroke-dashoffset:0;stroke-width:0.5;"/>
     </g>
     <g id="line2d_63">
      <g>
       <use style="stroke:#000000;stroke-width:0.8;" x="57.6" xlink:href="#m7b373b56e5" y="145.637662"/>
      </g>
     </g>
     <g id="text_15">
      <!-- $\mathdefault{1.0}$ -->
      <g transform="translate(37.8 148.677037)scale(0.08 -0.08)">
       <use transform="translate(0 0.78125)" xlink:href="#DejaVuSans-49"/>
       <use transform="translate(63.623047 0.78125)" xlink:href="#DejaVuSans-46"/>
       <use transform="translate(95.410156 0.78125)" xlink:href="#DejaVuSans-48"/>
      </g>
     </g>
    </g>
    <g id="ytick_6">
     <g id="line2d_64">
      <path clip-path="url(#p21af975836)" d="M 57.6 113.061219 
L 414.72 113.061219 
" style="fill:none;stroke:#b0b0b0;stroke-dasharray:1.85,0.8;stroke-dashoffset:0;stroke-width:0.5;"/>
     </g>
     <g id="line2d_65">
      <g>
       <use style="stroke:#000000;stroke-width:0.8;" x="57.6" xlink:href="#m7b373b56e5" y="113.061219"/>
      </g>
     </g>
     <g id="text_16">
      <!-- $\mathdefault{1.2}$ -->
      <g transform="translate(38.28 116.100594)scale(0.08 -0.08)">
       <use transform="translate(0 0.78125)" xlink:href="#DejaVuSans-49"/>
       <use transform="translate(63.623047 0.78125)" xlink:href="#DejaVuSans-46"/>
       <use transform="translate(89.910156 0.78125)" xlink:href="#DejaVuSans-50"/>
      </g>
     </g>
    </g>
    <g id="ytick_7">
     <g id="line2d_66">
      <path clip-path="url(#p21af975836)" d="M 57.6 80.484775 
L 414.72 80.484775 
" style="fill:none;stroke:#b0b0b0;stroke-dasharray:1.85,0.8;stroke-dashoffset:0;stroke-width:0.5;"/>
     </g>
     <g id="line2d_67">
      <g>
       <use style="stroke:#000000;stroke-width:0.8;" x="57.6" xlink:href="#m7b373b56e5" y="80.484775"/>
      </g>
     </g>
     <g id="text_17">
      <!-- $\mathdefault{1.4}$ -->
      <g transform="translate(37.8 83.52415)scale(0.08 -0.08)">
       <use transform="translate(0 0.09375)" xlink:href="#DejaVuSans-49"/>
       <use transform="translate(63.623047 0.09375)" xlink:href="#DejaVuSans-46"/>
       <use transform="translate(95.410156 0.09375)" xlink:href="#DejaVuSans-52"/>
      </g>
     </g>
    </g>
    <g id="ytick_8">
     <g id="line2d_68">
      <path clip-path="url(#p21af975836)" d="M 57.6 47.908332 
L 414.72 47.908332 
" style="fill:none;stroke:#b0b0b0;stroke-dasharray:1.85,0.8;stroke-dashoffset:0;stroke-width:0.5;"/>
     </g>
     <g id="line2d_69">
      <g>
       <use style="stroke:#000000;stroke-width:0.8;" x="57.6" xlink:href="#m7b373b56e5" y="47.908332"/>
      </g>
     </g>
     <g id="text_18">
      <!-- $\mathdefault{1.6}$ -->
      <g transform="translate(37.8 50.947707)scale(0.08 -0.08)">
       <use transform="translate(0 0.78125)" xlink:href="#DejaVuSans-49"/>
       <use transform="translate(63.623047 0.78125)" xlink:href="#DejaVuSans-46"/>
       <use transform="translate(95.410156 0.78125)" xlink:href="#DejaVuSans-54"/>
      </g>
     </g>
    </g>
    <g id="ytick_9">
     <g id="line2d_70">
      <defs>
       <path d="M 2.5 0 
L -2.5 -0 
" id="mac57d9d13e" style="stroke:#000000;stroke-width:0.6;"/>
      </defs>
      <g>
       <use style="stroke:#000000;stroke-width:0.6;" x="57.6" xlink:href="#mac57d9d13e" y="300.37577"/>
      </g>
     </g>
    </g>
    <g id="ytick_10">
     <g id="line2d_71">
      <g>
       <use style="stroke:#000000;stroke-width:0.6;" x="57.6" xlink:href="#mac57d9d13e" y="292.231659"/>
      </g>
     </g>
    </g>
    <g id="ytick_11">
     <g id="line2d_72">
      <g>
       <use style="stroke:#000000;stroke-width:0.6;" x="57.6" xlink:href="#mac57d9d13e" y="284.087548"/>
      </g>
     </g>
    </g>
    <g id="ytick_12">
     <g id="line2d_73">
      <g>
       <use style="stroke:#000000;stroke-width:0.6;" x="57.6" xlink:href="#mac57d9d13e" y="267.799326"/>
      </g>
     </g>
    </g>
    <g id="ytick_13">
     <g id="line2d_74">
      <g>
       <use style="stroke:#000000;stroke-width:0.6;" x="57.6" xlink:href="#mac57d9d13e" y="259.655215"/>
      </g>
     </g>
    </g>
    <g id="ytick_14">
     <g id="line2d_75">
      <g>
       <use style="stroke:#000000;stroke-width:0.6;" x="57.6" xlink:href="#mac57d9d13e" y="251.511104"/>
      </g>
     </g>
    </g>
    <g id="ytick_15">
     <g id="line2d_76">
      <g>
       <use style="stroke:#000000;stroke-width:0.6;" x="57.6" xlink:href="#mac57d9d13e" y="235.222882"/>
      </g>
     </g>
    </g>
    <g id="ytick_16">
     <g id="line2d_77">
      <g>
       <use style="stroke:#000000;stroke-width:0.6;" x="57.6" xlink:href="#mac57d9d13e" y="227.078771"/>
      </g>
     </g>
    </g>
    <g id="ytick_17">
     <g id="line2d_78">
      <g>
       <use style="stroke:#000000;stroke-width:0.6;" x="57.6" xlink:href="#mac57d9d13e" y="218.934661"/>
      </g>
     </g>
    </g>
    <g id="ytick_18">
     <g id="line2d_79">
      <g>
       <use style="stroke:#000000;stroke-width:0.6;" x="57.6" xlink:href="#mac57d9d13e" y="202.646439"/>
      </g>
     </g>
    </g>
    <g id="ytick_19">
     <g id="line2d_80">
      <g>
       <use style="stroke:#000000;stroke-width:0.6;" x="57.6" xlink:href="#mac57d9d13e" y="194.502328"/>
      </g>
     </g>
    </g>
    <g id="ytick_20">
     <g id="line2d_81">
      <g>
       <use style="stroke:#000000;stroke-width:0.6;" x="57.6" xlink:href="#mac57d9d13e" y="186.358217"/>
      </g>
     </g>
    </g>
    <g id="ytick_21">
     <g id="line2d_82">
      <g>
       <use style="stroke:#000000;stroke-width:0.6;" x="57.6" xlink:href="#mac57d9d13e" y="170.069995"/>
      </g>
     </g>
    </g>
    <g id="ytick_22">
     <g id="line2d_83">
      <g>
       <use style="stroke:#000000;stroke-width:0.6;" x="57.6" xlink:href="#mac57d9d13e" y="161.925884"/>
      </g>
     </g>
    </g>
    <g id="ytick_23">
     <g id="line2d_84">
      <g>
       <use style="stroke:#000000;stroke-width:0.6;" x="57.6" xlink:href="#mac57d9d13e" y="153.781773"/>
      </g>
     </g>
    </g>
    <g id="ytick_24">
     <g id="line2d_85">
      <g>
       <use style="stroke:#000000;stroke-width:0.6;" x="57.6" xlink:href="#mac57d9d13e" y="137.493552"/>
      </g>
     </g>
    </g>
    <g id="ytick_25">
     <g id="line2d_86">
      <g>
       <use style="stroke:#000000;stroke-width:0.6;" x="57.6" xlink:href="#mac57d9d13e" y="129.349441"/>
      </g>
     </g>
    </g>
    <g id="ytick_26">
     <g id="line2d_87">
      <g>
       <use style="stroke:#000000;stroke-width:0.6;" x="57.6" xlink:href="#mac57d9d13e" y="121.20533"/>
      </g>
     </g>
    </g>
    <g id="ytick_27">
     <g id="line2d_88">
      <g>
       <use style="stroke:#000000;stroke-width:0.6;" x="57.6" xlink:href="#mac57d9d13e" y="104.917108"/>
      </g>
     </g>
    </g>
    <g id="ytick_28">
     <g id="line2d_89">
      <g>
       <use style="stroke:#000000;stroke-width:0.6;" x="57.6" xlink:href="#mac57d9d13e" y="96.772997"/>
      </g>
     </g>
    </g>
    <g id="ytick_29">
     <g id="line2d_90">
      <g>
       <use style="stroke:#000000;stroke-width:0.6;" x="57.6" xlink:href="#mac57d9d13e" y="88.628886"/>
      </g>
     </g>
    </g>
    <g id="ytick_30">
     <g id="line2d_91">
      <g>
       <use style="stroke:#000000;stroke-width:0.6;" x="57.6" xlink:href="#mac57d9d13e" y="72.340664"/>
      </g>
     </g>
    </g>
    <g id="ytick_31">
     <g id="line2d_92">
      <g>
       <use style="stroke:#000000;stroke-width:0.6;" x="57.6" xlink:href="#mac57d9d13e" y="64.196553"/>
      </g>
     </g>
    </g>
    <g id="ytick_32">
     <g id="line2d_93">
      <g>
       <use style="stroke:#000000;stroke-width:0.6;" x="57.6" xlink:href="#mac57d9d13e" y="56.052442"/>
      </g>
     </g>
    </g>
    <g id="text_19">
     <!-- Komulativní histogram -->
     <g transform="translate(19.720312 230.910031)rotate(-90)scale(0.1 -0.1)">
      <defs>
       <path d="M 9.8125 72.90625 
L 19.671875 72.90625 
L 19.671875 42.09375 
L 52.390625 72.90625 
L 65.09375 72.90625 
L 28.90625 38.921875 
L 67.671875 0 
L 54.6875 0 
L 19.671875 35.109375 
L 19.671875 0 
L 9.8125 0 
z
" id="DejaVuSans-75"/>
       <path d="M 52 44.1875 
Q 55.375 50.25 60.0625 53.125 
Q 64.75 56 71.09375 56 
Q 79.640625 56 84.28125 50.015625 
Q 88.921875 44.046875 88.921875 33.015625 
L 88.921875 0 
L 79.890625 0 
L 79.890625 32.71875 
Q 79.890625 40.578125 77.09375 44.375 
Q 74.3125 48.1875 68.609375 48.1875 
Q 61.625 48.1875 57.5625 43.546875 
Q 53.515625 38.921875 53.515625 30.90625 
L 53.515625 0 
L 44.484375 0 
L 44.484375 32.71875 
Q 44.484375 40.625 41.703125 44.40625 
Q 38.921875 48.1875 33.109375 48.1875 
Q 26.21875 48.1875 22.15625 43.53125 
Q 18.109375 38.875 18.109375 30.90625 
L 18.109375 0 
L 9.078125 0 
L 9.078125 54.6875 
L 18.109375 54.6875 
L 18.109375 46.1875 
Q 21.1875 51.21875 25.484375 53.609375 
Q 29.78125 56 35.6875 56 
Q 41.65625 56 45.828125 52.96875 
Q 50 49.953125 52 44.1875 
z
" id="DejaVuSans-109"/>
       <path d="M 9.421875 75.984375 
L 18.40625 75.984375 
L 18.40625 0 
L 9.421875 0 
z
" id="DejaVuSans-108"/>
       <path d="M 2.984375 54.6875 
L 12.5 54.6875 
L 29.59375 8.796875 
L 46.6875 54.6875 
L 56.203125 54.6875 
L 35.6875 0 
L 23.484375 0 
z
" id="DejaVuSans-118"/>
       <path d="M 20.65625 79.984375 
L 30.375 79.984375 
L 14.46875 61.625 
L 6.984375 61.625 
z
M 9.421875 54.6875 
L 18.40625 54.6875 
L 18.40625 0 
L 9.421875 0 
z
M 13.921875 56 
z
" id="DejaVuSans-237"/>
       <path d="M 54.890625 33.015625 
L 54.890625 0 
L 45.90625 0 
L 45.90625 32.71875 
Q 45.90625 40.484375 42.875 44.328125 
Q 39.84375 48.1875 33.796875 48.1875 
Q 26.515625 48.1875 22.3125 43.546875 
Q 18.109375 38.921875 18.109375 30.90625 
L 18.109375 0 
L 9.078125 0 
L 9.078125 75.984375 
L 18.109375 75.984375 
L 18.109375 46.1875 
Q 21.34375 51.125 25.703125 53.5625 
Q 30.078125 56 35.796875 56 
Q 45.21875 56 50.046875 50.171875 
Q 54.890625 44.34375 54.890625 33.015625 
z
" id="DejaVuSans-104"/>
       <path d="M 44.28125 53.078125 
L 44.28125 44.578125 
Q 40.484375 46.53125 36.375 47.5 
Q 32.28125 48.484375 27.875 48.484375 
Q 21.1875 48.484375 17.84375 46.4375 
Q 14.5 44.390625 14.5 40.28125 
Q 14.5 37.15625 16.890625 35.375 
Q 19.28125 33.59375 26.515625 31.984375 
L 29.59375 31.296875 
Q 39.15625 29.25 43.1875 25.515625 
Q 47.21875 21.78125 47.21875 15.09375 
Q 47.21875 7.46875 41.1875 3.015625 
Q 35.15625 -1.421875 24.609375 -1.421875 
Q 20.21875 -1.421875 15.453125 -0.5625 
Q 10.6875 0.296875 5.421875 2 
L 5.421875 11.28125 
Q 10.40625 8.6875 15.234375 7.390625 
Q 20.0625 6.109375 24.8125 6.109375 
Q 31.15625 6.109375 34.5625 8.28125 
Q 37.984375 10.453125 37.984375 14.40625 
Q 37.984375 18.0625 35.515625 20.015625 
Q 33.0625 21.96875 24.703125 23.78125 
L 21.578125 24.515625 
Q 13.234375 26.265625 9.515625 29.90625 
Q 5.8125 33.546875 5.8125 39.890625 
Q 5.8125 47.609375 11.28125 51.796875 
Q 16.75 56 26.8125 56 
Q 31.78125 56 36.171875 55.265625 
Q 40.578125 54.546875 44.28125 53.078125 
z
" id="DejaVuSans-115"/>
       <path d="M 45.40625 27.984375 
Q 45.40625 37.75 41.375 43.109375 
Q 37.359375 48.484375 30.078125 48.484375 
Q 22.859375 48.484375 18.828125 43.109375 
Q 14.796875 37.75 14.796875 27.984375 
Q 14.796875 18.265625 18.828125 12.890625 
Q 22.859375 7.515625 30.078125 7.515625 
Q 37.359375 7.515625 41.375 12.890625 
Q 45.40625 18.265625 45.40625 27.984375 
z
M 54.390625 6.78125 
Q 54.390625 -7.171875 48.1875 -13.984375 
Q 42 -20.796875 29.203125 -20.796875 
Q 24.46875 -20.796875 20.265625 -20.09375 
Q 16.0625 -19.390625 12.109375 -17.921875 
L 12.109375 -9.1875 
Q 16.0625 -11.328125 19.921875 -12.34375 
Q 23.78125 -13.375 27.78125 -13.375 
Q 36.625 -13.375 41.015625 -8.765625 
Q 45.40625 -4.15625 45.40625 5.171875 
L 45.40625 9.625 
Q 42.625 4.78125 38.28125 2.390625 
Q 33.9375 0 27.875 0 
Q 17.828125 0 11.671875 7.65625 
Q 5.515625 15.328125 5.515625 27.984375 
Q 5.515625 40.671875 11.671875 48.328125 
Q 17.828125 56 27.875 56 
Q 33.9375 56 38.28125 53.609375 
Q 42.625 51.21875 45.40625 46.390625 
L 45.40625 54.6875 
L 54.390625 54.6875 
z
" id="DejaVuSans-103"/>
      </defs>
      <use xlink:href="#DejaVuSans-75"/>
      <use x="60.576172" xlink:href="#DejaVuSans-111"/>
      <use x="121.757812" xlink:href="#DejaVuSans-109"/>
      <use x="219.169922" xlink:href="#DejaVuSans-117"/>
      <use x="282.548828" xlink:href="#DejaVuSans-108"/>
      <use x="310.332031" xlink:href="#DejaVuSans-97"/>
      <use x="371.611328" xlink:href="#DejaVuSans-116"/>
      <use x="410.820312" xlink:href="#DejaVuSans-105"/>
      <use x="438.603516" xlink:href="#DejaVuSans-118"/>
      <use x="497.783203" xlink:href="#DejaVuSans-110"/>
      <use x="561.162109" xlink:href="#DejaVuSans-237"/>
      <use x="588.945312" xlink:href="#DejaVuSans-32"/>
      <use x="620.732422" xlink:href="#DejaVuSans-104"/>
      <use x="684.111328" xlink:href="#DejaVuSans-105"/>
      <use x="711.894531" xlink:href="#DejaVuSans-115"/>
      <use x="763.994141" xlink:href="#DejaVuSans-116"/>
      <use x="803.203125" xlink:href="#DejaVuSans-111"/>
      <use x="864.384766" xlink:href="#DejaVuSans-103"/>
      <use x="927.861328" xlink:href="#DejaVuSans-114"/>
      <use x="968.974609" xlink:href="#DejaVuSans-97"/>
      <use x="1030.253906" xlink:href="#DejaVuSans-109"/>
     </g>
    </g>
    <g id="text_20">
     <!-- $\times\mathdefault{10^{6}}\mathdefault{}$ -->
     <g transform="translate(57.6 38.472)scale(0.08 -0.08)">
      <defs>
       <path d="M 70.125 53.71875 
L 47.796875 31.296875 
L 70.125 8.984375 
L 64.3125 3.078125 
L 41.890625 25.484375 
L 19.484375 3.078125 
L 13.71875 8.984375 
L 35.984375 31.296875 
L 13.71875 53.71875 
L 19.484375 59.625 
L 41.890625 37.203125 
L 64.3125 59.625 
z
" id="DejaVuSans-215"/>
      </defs>
      <use transform="translate(0 0.765625)" xlink:href="#DejaVuSans-215"/>
      <use transform="translate(83.789062 0.765625)" xlink:href="#DejaVuSans-49"/>
      <use transform="translate(147.412109 0.765625)" xlink:href="#DejaVuSans-48"/>
      <use transform="translate(211.992188 39.046875)scale(0.7)" xlink:href="#DejaVuSans-54"/>
     </g>
    </g>
   </g>
   <g id="line2d_94">
    <path clip-path="url(#p21af975836)" d="M 73.832727 295.488 
L 74.124946 295.393203 
L 74.319758 295.323652 
L 74.579507 295.232112 
L 74.871726 295.095291 
L 74.936663 295.090405 
L 75.066538 294.854062 
L 75.391225 294.775227 
L 75.586037 294.669517 
L 75.845787 294.552405 
L 76.625036 294.102687 
L 77.112066 293.921887 
L 77.631565 293.565664 
L 77.826378 293.461908 
L 78.02119 293.324924 
L 78.475752 292.995739 
L 78.605626 292.82455 
L 78.800439 292.73415 
L 79.287469 292.58495 
L 79.51475 292.463929 
L 79.644625 291.83276 
L 79.839437 291.749039 
L 80.099187 291.639908 
L 80.618686 291.37555 
L 80.716092 291.250945 
L 81.462872 290.713922 
L 81.657684 290.536543 
L 81.820028 290.444515 
L 82.079777 289.574398 
L 82.177184 289.51967 
L 82.339527 289.302059 
L 82.664214 289.088358 
L 82.859026 288.888013 
L 83.151245 288.612416 
L 83.281119 286.671837 
L 83.540869 286.531921 
L 83.76815 286.347376 
L 84.417524 285.728586 
L 85.034429 285.290759 
L 85.26171 285.098558 
L 85.391585 278.930371 
L 85.943553 278.5432 
L 86.138365 278.255876 
L 86.300709 278.112702 
L 86.592927 277.747032 
L 86.917614 277.519811 
L 88.183893 275.671098 
L 88.313768 275.565387 
L 88.443643 275.122673 
L 88.703393 274.876233 
L 88.865736 274.604708 
L 89.222892 274.276989 
L 89.320298 274.146032 
L 89.450173 273.598259 
L 89.839797 273.105214 
L 90.002141 272.841997 
L 90.132015 271.116748 
L 90.943733 269.816459 
L 91.00867 269.763197 
L 91.138545 269.077626 
L 91.430763 268.745997 
L 91.560638 268.606082 
L 91.722982 268.164671 
L 91.852857 267.992179 
L 92.534699 266.949569 
L 92.664574 264.551292 
L 92.956792 264.205981 
L 93.216542 263.86572 
L 93.281479 263.819462 
L 93.443823 263.441412 
L 93.736041 262.917909 
L 94.125666 262.301562 
L 94.190603 262.206439 
L 94.320478 261.693197 
L 94.612696 261.187122 
L 94.742571 261.033036 
L 94.872446 260.678441 
L 94.937383 260.570287 
L 95.099727 260.138812 
L 95.229602 259.937979 
L 95.359476 259.595926 
L 95.52182 259.259411 
L 95.554289 259.230907 
L 95.749101 258.652675 
L 96.171194 258.110114 
L 96.398475 257.808131 
L 96.723162 257.388057 
L 96.853037 249.205343 
L 97.632285 248.001644 
L 97.859566 247.697869 
L 98.086847 247.121917 
L 98.119316 247.066211 
L 98.249191 245.979461 
L 98.411534 245.753544 
L 98.801159 243.560986 
L 99.223252 242.930306 
L 99.77522 242.087553 
L 99.970032 241.581967 
L 100.294719 241.022467 
L 100.457062 240.502058 
L 100.619406 240.104788 
L 100.879156 239.764201 
L 101.26878 239.044262 
L 101.398655 238.819485 
L 101.496061 238.677451 
L 101.658404 238.229037 
L 101.885685 237.898549 
L 102.01556 235.810561 
L 102.470122 235.050227 
L 102.599997 233.532979 
L 103.054559 232.78649 
L 103.216902 232.498677 
L 104.126026 230.82718 
L 104.190963 230.653548 
L 104.645525 229.786363 
L 105.781929 227.400627 
L 105.911804 227.193929 
L 106.074148 226.869631 
L 106.236491 226.683945 
L 106.366366 225.765289 
L 107.243021 223.971467 
L 107.372896 223.25218 
L 107.567708 222.781124 
L 107.697583 221.617494 
L 108.217082 220.937949 
L 108.346957 214.812275 
L 108.476832 214.613884 
L 108.639175 214.334052 
L 108.736581 214.176871 
L 108.833987 214.042982 
L 109.0288 213.295841 
L 109.77558 211.90727 
L 109.905455 211.470257 
L 110.067798 211.201827 
L 110.230142 210.748526 
L 110.52236 210.235773 
L 110.717172 209.84567 
L 110.911984 209.516485 
L 111.139265 209.165962 
L 111.431484 207.659139 
L 111.658764 207.358621 
L 111.886045 206.842773 
L 112.145795 206.442246 
L 112.27567 205.76319 
L 112.405545 205.639074 
L 112.567888 205.160526 
L 113.541949 203.59083 
L 113.671824 202.939301 
L 114.353667 201.548124 
L 114.483541 200.19327 
L 114.613416 199.794534 
L 114.743291 197.650678 
L 116.723882 193.81073 
L 116.853757 192.775939 
L 117.633005 191.660522 
L 117.860286 191.263415 
L 118.477192 190.184157 
L 118.639535 189.661468 
L 119.061628 188.977852 
L 119.223972 188.766105 
L 119.678534 188.188199 
L 119.808408 184.727114 
L 120.230502 184.218433 
L 120.392845 183.964174 
L 120.587657 183.356298 
L 120.620126 183.324373 
L 120.750001 179.279519 
L 121.301969 178.536776 
L 121.496781 178.28382 
L 121.561718 178.220784 
L 121.756531 177.682947 
L 122.243561 176.983042 
L 122.373436 176.493255 
L 122.470842 176.358063 
L 122.600717 175.85492 
L 122.925404 175.426703 
L 123.120216 175.19427 
L 123.315028 174.827133 
L 123.379966 174.774034 
L 123.50984 174.215999 
L 123.802059 173.891212 
L 123.996871 173.579944 
L 124.321558 172.886717 
L 124.678714 172.409635 
L 124.841057 172.238772 
L 125.003401 171.950796 
L 125.133276 171.718037 
L 125.425494 171.374193 
L 125.587837 170.89141 
L 125.750181 170.701978 
L 126.204743 169.336048 
L 126.464492 169.080323 
L 127.406085 167.799417 
L 127.568428 167.465183 
L 127.600897 167.436353 
L 127.76324 166.969858 
L 128.02299 166.621453 
L 128.347677 166.262786 
L 128.542489 165.927249 
L 128.867176 165.597738 
L 129.061988 165.233208 
L 129.321738 164.890829 
L 129.873706 164.263407 
L 130.003581 164.121537 
L 130.133456 163.480106 
L 130.78283 162.515029 
L 130.912704 161.943313 
L 131.172454 161.694103 
L 131.302329 150.941759 
L 131.497141 150.681962 
L 131.627016 150.409134 
L 131.789359 150.13875 
L 132.081578 149.849797 
L 132.308859 149.594071 
L 132.438733 148.686003 
L 133.607607 147.435556 
L 133.834887 147.107023 
L 134.289449 146.577656 
L 134.484262 146.390178 
L 135.036229 145.689133 
L 135.198573 145.226059 
L 135.231042 145.195111 
L 135.360916 144.903878 
L 135.750541 144.547003 
L 135.880416 144.108687 
L 136.886945 142.947988 
L 137.01682 142.605936 
L 137.7636 141.859121 
L 137.861006 141.773282 
L 138.02335 141.537265 
L 138.705193 140.923688 
L 138.835068 140.622519 
L 139.192223 140.332914 
L 139.354567 140.085008 
L 139.387035 140.065136 
L 139.51691 138.763218 
L 140.036409 138.333535 
L 140.166284 137.758398 
L 140.52344 137.3437 
L 140.685783 137.151173 
L 140.848127 136.955063 
L 141.302689 136.559259 
L 141.919594 135.365332 
L 142.049469 135.163196 
L 142.633906 134.687091 
L 142.76378 132.519291 
L 143.445623 131.850986 
L 144.354747 130.928909 
L 144.484622 130.63393 
L 144.51709 130.598584 
L 144.646965 130.256206 
L 144.906715 130.058141 
L 145.685964 129.314258 
L 145.848307 129.145512 
L 146.952243 127.951911 
L 147.082118 127.588521 
L 147.569148 127.181478 
L 147.731492 126.943507 
L 148.153585 126.533207 
L 148.28346 126.326998 
L 148.738021 125.869136 
L 148.867896 125.454112 
L 149.192583 125.201482 
L 149.452333 124.938101 
L 150.328988 124.234125 
L 150.588737 123.803138 
L 150.848487 123.577546 
L 151.108237 123.363193 
L 151.400455 123.142977 
L 151.465392 123.111377 
L 151.595267 122.521907 
L 151.952423 122.201192 
L 154.127826 120.430988 
L 154.257701 118.099817 
L 154.51745 117.890677 
L 154.939543 117.62811 
L 155.069418 115.959545 
L 156.952603 114.324533 
L 157.082478 114.233156 
L 157.212353 113.783439 
L 157.569508 113.564688 
L 157.796789 113.342354 
L 158.965662 112.325317 
L 159.647505 111.870876 
L 159.77738 111.479632 
L 159.842317 111.449499 
L 159.972192 110.838528 
L 161.011191 110.154749 
L 161.206003 109.903747 
L 161.563158 109.681413 
L 161.855377 109.482045 
L 162.667094 108.980368 
L 162.829438 108.79175 
L 163.154125 108.539934 
L 163.284 108.18143 
L 163.446343 108.034836 
L 163.738561 107.893292 
L 163.965842 107.722591 
L 164.160655 107.602384 
L 164.322998 107.442271 
L 165.589277 106.734711 
L 165.719152 104.822473 
L 167.407525 103.625126 
L 167.472462 103.58636 
L 167.602337 102.45612 
L 168.868616 101.738299 
L 169.095897 101.552939 
L 170.297239 100.971612 
L 170.914145 100.679727 
L 171.238832 100.496484 
L 171.433644 100.329367 
L 172.862267 99.268841 
L 173.381766 98.963926 
L 173.576578 98.843067 
L 175.135076 98.015137 
L 175.297419 97.850463 
L 175.881856 97.54115 
L 176.011731 97.243564 
L 176.336418 97.131664 
L 176.855917 96.873984 
L 177.01826 96.752962 
L 177.083198 96.734557 
L 177.213073 95.752866 
L 177.700103 95.546983 
L 177.862447 95.443064 
L 178.122196 95.343868 
L 178.252071 95.02071 
L 178.544289 94.907996 
L 178.674164 94.706185 
L 180.200193 93.936729 
L 180.330068 93.694523 
L 180.914505 93.44059 
L 181.109317 93.342046 
L 181.661285 93.078991 
L 181.921034 92.888419 
L 182.797689 92.601421 
L 182.960033 92.492778 
L 184.258781 92.018954 
L 184.388656 91.794665 
L 184.843217 91.623639 
L 185.395185 91.38974 
L 185.979622 91.206823 
L 186.239372 91.103881 
L 186.369246 90.910866 
L 188.544649 90.106228 
L 188.674524 85.773072 
L 188.999211 85.601069 
L 195.590358 83.213704 
L 195.720232 83.006192 
L 196.661825 82.686617 
L 196.921574 82.581884 
L 197.733292 82.320946 
L 197.863167 81.378184 
L 198.350197 81.263841 
L 198.577478 81.184843 
L 198.869696 81.095746 
L 199.03204 80.996388 
L 199.454133 80.908106 
L 200.006101 80.757929 
L 200.135976 80.145166 
L 201.174974 79.870546 
L 201.369786 79.799367 
L 202.408785 79.517581 
L 203.188034 79.243613 
L 205.980342 78.389784 
L 206.110217 78.24319 
L 206.53231 78.128195 
L 207.051809 77.935343 
L 207.701183 77.795264 
L 209.746711 77.269643 
L 210.52596 77.079397 
L 210.753241 77.004634 
L 211.500021 76.903321 
L 211.629896 75.951274 
L 212.116927 75.781225 
L 213.155925 75.399104 
L 214.03258 75.190777 
L 214.324798 75.121552 
L 214.454673 74.79025 
L 214.941704 74.698222 
L 215.104047 74.607985 
L 215.591078 74.500157 
L 215.720952 74.399984 
L 216.435264 74.199639 
L 216.954763 74.113474 
L 217.246981 74.066076 
L 217.376856 73.862636 
L 222.961473 72.660402 
L 223.091348 72.094386 
L 223.870597 71.920754 
L 224.584908 71.76455 
L 224.714783 71.668449 
L 226.078468 71.449699 
L 228.708433 70.925381 
L 228.903245 70.869838 
L 229.650025 70.761847 
L 230.948773 70.498141 
L 231.435804 70.381517 
L 232.799489 70.172213 
L 233.221583 70.062919 
L 234.455393 69.832115 
L 234.585268 69.44413 
L 236.04636 69.295744 
L 236.078828 69.287111 
L 236.208703 69.10957 
L 237.962013 68.8242 
L 238.189294 68.752369 
L 239.29323 68.587858 
L 239.747792 68.517167 
L 240.299759 68.408688 
L 242.410225 68.087158 
L 242.702443 68.022494 
L 242.832318 67.777356 
L 245.916845 67.363798 
L 246.04672 65.820978 
L 249.098778 65.405628 
L 250.462463 65.253496 
L 251.436524 65.141759 
L 253.222303 64.859484 
L 257.410765 64.394455 
L 257.54064 64.177985 
L 261.177134 63.746998 
L 261.307009 63.596007 
L 266.437064 63.074784 
L 267.605937 62.949038 
L 268.872217 62.844305 
L 269.002091 62.598679 
L 269.651466 62.52978 
L 270.78787 62.413156 
L 273.320429 62.168018 
L 274.619177 62.071429 
L 274.749052 61.992431 
L 276.112737 61.877762 
L 280.366137 61.33683 
L 280.496012 61.009926 
L 282.638946 60.824403 
L 282.80129 60.783845 
L 298.191454 59.427851 
L 299.620077 59.317091 
L 303.28904 59.14411 
L 303.418915 58.361787 
L 305.691724 58.243045 
L 307.250222 58.133589 
L 307.607377 58.108342 
L 321.601388 57.236759 
L 325.108008 57.003186 
L 328.906846 56.637027 
L 331.04978 56.52643 
L 334.29665 56.362407 
L 334.5564 56.340581 
L 336.147366 56.23031 
L 337.05649 56.198548 
L 337.965613 56.078829 
L 339.55658 56.014165 
L 341.894326 55.89461 
L 342.381357 55.863173 
L 345.498352 55.752739 
L 345.920445 55.725538 
L 349.199784 55.628786 
L 349.329659 55.532197 
L 351.180375 55.466392 
L 353.940214 55.356121 
L 356.862398 55.261486 
L 358.745582 55.180208 
L 358.907926 55.144211 
L 360.693704 55.083782 
L 360.823579 54.763881 
L 364.622417 54.652958 
L 369.103098 54.494474 
L 372.155156 54.421014 
L 372.285031 54.326705 
L 388.227163 53.900443 
L 388.941475 53.875685 
L 395.110528 53.746193 
L 395.240403 53.653187 
L 398.487273 53.568 
L 398.487273 53.568 
" style="fill:none;stroke:#4169e1;stroke-linecap:square;stroke-width:2;"/>
   </g>
   <g id="patch_3">
    <path d="M 57.6 307.584 
L 57.6 41.472 
" style="fill:none;stroke:#000000;stroke-linecap:square;stroke-linejoin:miter;stroke-width:0.8;"/>
   </g>
   <g id="patch_4">
    <path d="M 414.72 307.584 
L 414.72 41.472 
" style="fill:none;stroke:#000000;stroke-linecap:square;stroke-linejoin:miter;stroke-width:0.8;"/>
   </g>
   <g id="patch_5">
    <path d="M 57.6 307.584 
L 414.72 307.584 
" style="fill:none;stroke:#000000;stroke-linecap:square;stroke-linejoin:miter;stroke-width:0.8;"/>
   </g>
   <g id="patch_6">
    <path d="M 57.6 41.472 
L 414.72 41.472 
" style="fill:none;stroke:#000000;stroke-linecap:square;stroke-linejoin:miter;stroke-width:0.8;"/>
   </g>
   <g id="text_21">
    <!-- Komulativní histogram hodnot indikátoru SDoLEGE (po odstranění outlierů) -->
    <g transform="translate(10.644375 25.472)scale(0.12 -0.12)">
     <defs>
      <path d="M 31 75.875 
Q 24.46875 64.65625 21.28125 53.65625 
Q 18.109375 42.671875 18.109375 31.390625 
Q 18.109375 20.125 21.3125 9.0625 
Q 24.515625 -2 31 -13.1875 
L 23.1875 -13.1875 
Q 15.875 -1.703125 12.234375 9.375 
Q 8.59375 20.453125 8.59375 31.390625 
Q 8.59375 42.28125 12.203125 53.3125 
Q 15.828125 64.359375 23.1875 75.875 
z
" id="DejaVuSans-40"/>
      <path d="M 18.109375 8.203125 
L 18.109375 -20.796875 
L 9.078125 -20.796875 
L 9.078125 54.6875 
L 18.109375 54.6875 
L 18.109375 46.390625 
Q 20.953125 51.265625 25.265625 53.625 
Q 29.59375 56 35.59375 56 
Q 45.5625 56 51.78125 48.09375 
Q 58.015625 40.1875 58.015625 27.296875 
Q 58.015625 14.40625 51.78125 6.484375 
Q 45.5625 -1.421875 35.59375 -1.421875 
Q 29.59375 -1.421875 25.265625 0.953125 
Q 20.953125 3.328125 18.109375 8.203125 
z
M 48.6875 27.296875 
Q 48.6875 37.203125 44.609375 42.84375 
Q 40.53125 48.484375 33.40625 48.484375 
Q 26.265625 48.484375 22.1875 42.84375 
Q 18.109375 37.203125 18.109375 27.296875 
Q 18.109375 17.390625 22.1875 11.75 
Q 26.265625 6.109375 33.40625 6.109375 
Q 40.53125 6.109375 44.609375 11.75 
Q 48.6875 17.390625 48.6875 27.296875 
z
" id="DejaVuSans-112"/>
      <path d="M 56.203125 29.59375 
L 56.203125 25.203125 
L 14.890625 25.203125 
Q 15.484375 15.921875 20.484375 11.0625 
Q 25.484375 6.203125 34.421875 6.203125 
Q 39.59375 6.203125 44.453125 7.46875 
Q 49.3125 8.734375 54.109375 11.28125 
L 54.109375 2.78125 
Q 49.265625 0.734375 44.1875 -0.34375 
Q 39.109375 -1.421875 33.890625 -1.421875 
Q 20.796875 -1.421875 13.15625 6.1875 
Q 5.515625 13.8125 5.515625 26.8125 
Q 5.515625 40.234375 12.765625 48.109375 
Q 20.015625 56 32.328125 56 
Q 43.359375 56 49.78125 48.890625 
Q 56.203125 41.796875 56.203125 29.59375 
z
M 47.21875 32.234375 
Q 47.125 39.59375 43.09375 43.984375 
Q 39.0625 48.390625 32.421875 48.390625 
Q 24.90625 48.390625 20.390625 44.140625 
Q 15.875 39.890625 15.1875 32.171875 
z
M 28.640625 61.625 
L 16.671875 79.984375 
L 23.46875 79.984375 
L 32.25 68.015625 
L 41.046875 79.984375 
L 47.828125 79.984375 
L 35.859375 61.625 
z
" id="DejaVuSans-283"/>
      <path d="M 56.203125 29.59375 
L 56.203125 25.203125 
L 14.890625 25.203125 
Q 15.484375 15.921875 20.484375 11.0625 
Q 25.484375 6.203125 34.421875 6.203125 
Q 39.59375 6.203125 44.453125 7.46875 
Q 49.3125 8.734375 54.109375 11.28125 
L 54.109375 2.78125 
Q 49.265625 0.734375 44.1875 -0.34375 
Q 39.109375 -1.421875 33.890625 -1.421875 
Q 20.796875 -1.421875 13.15625 6.1875 
Q 5.515625 13.8125 5.515625 26.8125 
Q 5.515625 40.234375 12.765625 48.109375 
Q 20.015625 56 32.328125 56 
Q 43.359375 56 49.78125 48.890625 
Q 56.203125 41.796875 56.203125 29.59375 
z
M 47.21875 32.234375 
Q 47.125 39.59375 43.09375 43.984375 
Q 39.0625 48.390625 32.421875 48.390625 
Q 24.90625 48.390625 20.390625 44.140625 
Q 15.875 39.890625 15.1875 32.171875 
z
" id="DejaVuSans-101"/>
      <path d="M 8.5 21.578125 
L 8.5 54.6875 
L 17.484375 54.6875 
L 17.484375 21.921875 
Q 17.484375 14.15625 20.5 10.265625 
Q 23.53125 6.390625 29.59375 6.390625 
Q 36.859375 6.390625 41.078125 11.03125 
Q 45.3125 15.671875 45.3125 23.6875 
L 45.3125 54.6875 
L 54.296875 54.6875 
L 54.296875 0 
L 45.3125 0 
L 45.3125 8.40625 
Q 42.046875 3.421875 37.71875 1 
Q 33.40625 -1.421875 27.6875 -1.421875 
Q 18.265625 -1.421875 13.375 4.4375 
Q 8.5 10.296875 8.5 21.578125 
z
M 31.109375 56 
z
M 38.421875 71.421875 
Q 38.421875 74.484375 36.265625 76.625 
Q 34.125 78.78125 31 78.78125 
Q 27.828125 78.78125 25.703125 76.65625 
Q 23.578125 74.546875 23.578125 71.421875 
Q 23.578125 68.234375 25.703125 66.109375 
Q 27.828125 64 31 64 
Q 34.125 64 36.265625 66.140625 
Q 38.421875 68.296875 38.421875 71.421875 
z
M 44.375 71.421875 
Q 44.375 65.796875 40.484375 61.890625 
Q 36.609375 57.984375 31 57.984375 
Q 25.390625 57.984375 21.5 61.890625 
Q 17.625 65.796875 17.625 71.421875 
Q 17.625 77.03125 21.5 80.90625 
Q 25.390625 84.796875 31 84.796875 
Q 36.609375 84.796875 40.484375 80.90625 
Q 44.375 77.03125 44.375 71.421875 
z
" id="DejaVuSans-367"/>
      <path d="M 8.015625 75.875 
L 15.828125 75.875 
Q 23.140625 64.359375 26.78125 53.3125 
Q 30.421875 42.28125 30.421875 31.390625 
Q 30.421875 20.453125 26.78125 9.375 
Q 23.140625 -1.703125 15.828125 -13.1875 
L 8.015625 -13.1875 
Q 14.5 -2 17.703125 9.0625 
Q 20.90625 20.125 20.90625 31.390625 
Q 20.90625 42.671875 17.703125 53.65625 
Q 14.5 64.65625 8.015625 75.875 
z
" id="DejaVuSans-41"/>
     </defs>
     <use xlink:href="#DejaVuSans-75"/>
     <use x="60.576172" xlink:href="#DejaVuSans-111"/>
     <use x="121.757812" xlink:href="#DejaVuSans-109"/>
     <use x="219.169922" xlink:href="#DejaVuSans-117"/>
     <use x="282.548828" xlink:href="#DejaVuSans-108"/>
     <use x="310.332031" xlink:href="#DejaVuSans-97"/>
     <use x="371.611328" xlink:href="#DejaVuSans-116"/>
     <use x="410.820312" xlink:href="#DejaVuSans-105"/>
     <use x="438.603516" xlink:href="#DejaVuSans-118"/>
     <use x="497.783203" xlink:href="#DejaVuSans-110"/>
     <use x="561.162109" xlink:href="#DejaVuSans-237"/>
     <use x="588.945312" xlink:href="#DejaVuSans-32"/>
     <use x="620.732422" xlink:href="#DejaVuSans-104"/>
     <use x="684.111328" xlink:href="#DejaVuSans-105"/>
     <use x="711.894531" xlink:href="#DejaVuSans-115"/>
     <use x="763.994141" xlink:href="#DejaVuSans-116"/>
     <use x="803.203125" xlink:href="#DejaVuSans-111"/>
     <use x="864.384766" xlink:href="#DejaVuSans-103"/>
     <use x="927.861328" xlink:href="#DejaVuSans-114"/>
     <use x="968.974609" xlink:href="#DejaVuSans-97"/>
     <use x="1030.253906" xlink:href="#DejaVuSans-109"/>
     <use x="1127.666016" xlink:href="#DejaVuSans-32"/>
     <use x="1159.453125" xlink:href="#DejaVuSans-104"/>
     <use x="1222.832031" xlink:href="#DejaVuSans-111"/>
     <use x="1284.013672" xlink:href="#DejaVuSans-100"/>
     <use x="1347.490234" xlink:href="#DejaVuSans-110"/>
     <use x="1410.869141" xlink:href="#DejaVuSans-111"/>
     <use x="1472.050781" xlink:href="#DejaVuSans-116"/>
     <use x="1511.259766" xlink:href="#DejaVuSans-32"/>
     <use x="1543.046875" xlink:href="#DejaVuSans-105"/>
     <use x="1570.830078" xlink:href="#DejaVuSans-110"/>
     <use x="1634.208984" xlink:href="#DejaVuSans-100"/>
     <use x="1697.685547" xlink:href="#DejaVuSans-105"/>
     <use x="1725.46875" xlink:href="#DejaVuSans-107"/>
     <use x="1781.628906" xlink:href="#DejaVuSans-225"/>
     <use x="1842.908203" xlink:href="#DejaVuSans-116"/>
     <use x="1882.117188" xlink:href="#DejaVuSans-111"/>
     <use x="1943.298828" xlink:href="#DejaVuSans-114"/>
     <use x="1984.412109" xlink:href="#DejaVuSans-117"/>
     <use x="2047.791016" xlink:href="#DejaVuSans-32"/>
     <use x="2079.578125" xlink:href="#DejaVuSans-83"/>
     <use x="2143.054688" xlink:href="#DejaVuSans-68"/>
     <use x="2220.056641" xlink:href="#DejaVuSans-111"/>
     <use x="2281.238281" xlink:href="#DejaVuSans-76"/>
     <use x="2336.951172" xlink:href="#DejaVuSans-69"/>
     <use x="2400.134766" xlink:href="#DejaVuSans-71"/>
     <use x="2477.625" xlink:href="#DejaVuSans-69"/>
     <use x="2540.808594" xlink:href="#DejaVuSans-32"/>
     <use x="2572.595703" xlink:href="#DejaVuSans-40"/>
     <use x="2611.609375" xlink:href="#DejaVuSans-112"/>
     <use x="2675.085938" xlink:href="#DejaVuSans-111"/>
     <use x="2736.267578" xlink:href="#DejaVuSans-32"/>
     <use x="2768.054688" xlink:href="#DejaVuSans-111"/>
     <use x="2829.236328" xlink:href="#DejaVuSans-100"/>
     <use x="2892.712891" xlink:href="#DejaVuSans-115"/>
     <use x="2944.8125" xlink:href="#DejaVuSans-116"/>
     <use x="2984.021484" xlink:href="#DejaVuSans-114"/>
     <use x="3025.134766" xlink:href="#DejaVuSans-97"/>
     <use x="3086.414062" xlink:href="#DejaVuSans-110"/>
     <use x="3149.792969" xlink:href="#DejaVuSans-283"/>
     <use x="3211.316406" xlink:href="#DejaVuSans-110"/>
     <use x="3274.695312" xlink:href="#DejaVuSans-237"/>
     <use x="3302.478516" xlink:href="#DejaVuSans-32"/>
     <use x="3334.265625" xlink:href="#DejaVuSans-111"/>
     <use x="3395.447266" xlink:href="#DejaVuSans-117"/>
     <use x="3458.826172" xlink:href="#DejaVuSans-116"/>
     <use x="3498.035156" xlink:href="#DejaVuSans-108"/>
     <use x="3525.818359" xlink:href="#DejaVuSans-105"/>
     <use x="3553.601562" xlink:href="#DejaVuSans-101"/>
     <use x="3615.125" xlink:href="#DejaVuSans-114"/>
     <use x="3656.238281" xlink:href="#DejaVuSans-367"/>
     <use x="3719.617188" xlink:href="#DejaVuSans-41"/>
    </g>
   </g>
   <g id="legend_1">
    <g id="patch_7">
     <path d="M 437.576 64.150125 
L 543.3135 64.150125 
L 543.3135 46.472 
L 437.576 46.472 
z
" style="fill:#ffffff;stroke:#000000;stroke-linejoin:miter;"/>
    </g>
    <g id="line2d_95">
     <path d="M 441.576 54.570438 
L 461.576 54.570438 
" style="fill:none;stroke:#4169e1;stroke-linecap:square;stroke-width:2;"/>
    </g>
    <g id="line2d_96"/>
    <g id="text_22">
     <!-- CDF SDoLEGE -->
     <g transform="translate(469.576 58.070438)scale(0.1 -0.1)">
      <defs>
       <path d="M 64.40625 67.28125 
L 64.40625 56.890625 
Q 59.421875 61.53125 53.78125 63.8125 
Q 48.140625 66.109375 41.796875 66.109375 
Q 29.296875 66.109375 22.65625 58.46875 
Q 16.015625 50.828125 16.015625 36.375 
Q 16.015625 21.96875 22.65625 14.328125 
Q 29.296875 6.6875 41.796875 6.6875 
Q 48.140625 6.6875 53.78125 8.984375 
Q 59.421875 11.28125 64.40625 15.921875 
L 64.40625 5.609375 
Q 59.234375 2.09375 53.4375 0.328125 
Q 47.65625 -1.421875 41.21875 -1.421875 
Q 24.65625 -1.421875 15.125 8.703125 
Q 5.609375 18.84375 5.609375 36.375 
Q 5.609375 53.953125 15.125 64.078125 
Q 24.65625 74.21875 41.21875 74.21875 
Q 47.75 74.21875 53.53125 72.484375 
Q 59.328125 70.75 64.40625 67.28125 
z
" id="DejaVuSans-67"/>
       <path d="M 9.8125 72.90625 
L 51.703125 72.90625 
L 51.703125 64.59375 
L 19.671875 64.59375 
L 19.671875 43.109375 
L 48.578125 43.109375 
L 48.578125 34.8125 
L 19.671875 34.8125 
L 19.671875 0 
L 9.8125 0 
z
" id="DejaVuSans-70"/>
      </defs>
      <use xlink:href="#DejaVuSans-67"/>
      <use x="69.824219" xlink:href="#DejaVuSans-68"/>
      <use x="146.826172" xlink:href="#DejaVuSans-70"/>
      <use x="204.345703" xlink:href="#DejaVuSans-32"/>
      <use x="236.132812" xlink:href="#DejaVuSans-83"/>
      <use x="299.609375" xlink:href="#DejaVuSans-68"/>
      <use x="376.611328" xlink:href="#DejaVuSans-111"/>
      <use x="437.792969" xlink:href="#DejaVuSans-76"/>
      <use x="493.505859" xlink:href="#DejaVuSans-69"/>
      <use x="556.689453" xlink:href="#DejaVuSans-71"/>
      <use x="634.179688" xlink:href="#DejaVuSans-69"/>
     </g>
    </g>
   </g>
  </g>
 </g>
 <defs>
  <clipPath id="p21af975836">
   <rect height="266.112" width="357.12" x="57.6" y="41.472"/>
  </clipPath>
 </defs>
</svg>
